<svg width="342" height="129" viewBox="0 0 342 129" fill="none" xmlns="http://www.w3.org/2000/svg">
<path d="M10.5 5H47L84 45.9355L47 52L0 45.9355L10.5 5Z" fill="#C1C1C1"/>
<rect x="42" y="72" width="252" height="31" fill="white"/>
<path d="M19 32H139.256L168 61H31L19 32Z" fill="#787878"/>
<path d="M31 17H98.7953L115 32H31V17Z" fill="#040A0E"/>
<path d="M31.5 0.5H54.8986L60.2037 11.5H31.5V0.5Z" fill="#040A0E" stroke="black"/>
<path d="M19 73.8382L42 66V107L19 102.176V73.8382Z" fill="#040A0E"/>
<path d="M46 73C46 72.4477 46.4477 72 47 72L67 72.0001C67.5523 72.0001 68 72.4478 68 73.0001V102C68 102.552 67.5523 103 67 103H47C46.4477 103 46 102.552 46 102V73Z" fill="#7E7E7E"/>
<path d="M71 73C71 72.4477 71.4477 72 72 72L74 72.0001C74.5523 72.0001 75 72.4478 75 73.0001V102C75 102.552 74.5523 103 74 103H72C71.4477 103 71 102.552 71 102V73Z" fill="#7E7E7E"/>
<path d="M78 73C78 72.4477 78.4477 72 79 72L81 72.0001C81.5523 72.0001 82 72.4478 82 73.0001V102C82 102.552 81.5523 103 81 103H79C78.4477 103 78 102.552 78 102V73Z" fill="#7E7E7E"/>
<path d="M89 73C89 72.4477 89.4477 72 90 72L97 72.0001C97.5523 72.0001 98 72.4478 98 73.0001V102C98 102.552 97.5523 103 97 103H90C89.4477 103 89 102.552 89 102V73Z" fill="#7E7E7E"/>
<path d="M102 73C102 72.4477 102.448 72 103 72L110 72.0001C110.552 72.0001 111 72.4478 111 73.0001V102C111 102.552 110.552 103 110 103H103C102.448 103 102 102.552 102 102V73Z" fill="#7E7E7E"/>
<path d="M239 73C239 72.4477 239.448 72 240 72L243 72.0001C243.552 72.0001 244 72.4478 244 73.0001V102C244 102.552 243.552 103 243 103H240C239.448 103 239 102.552 239 102V73Z" fill="#7E7E7E"/>
<path d="M247 73.0001C247 72.4477 247.448 72 248 72.0001V72.0001C248.552 72.0001 249 72.4478 249 73.0001V102C249 102.552 248.552 103 248 103V103C247.448 103 247 102.552 247 102V73.0001Z" fill="#7E7E7E"/>
<path d="M252 73.0001C252 72.4477 252.448 72 253 72.0001V72.0001C253.552 72.0001 254 72.4478 254 73.0001V102C254 102.552 253.552 103 253 103V103C252.448 103 252 102.552 252 102V73.0001Z" fill="#7E7E7E"/>
<path d="M257 73.0001C257 72.4477 257.448 72 258 72.0001V72.0001C258.552 72.0001 259 72.4478 259 73.0001V102C259 102.552 258.552 103 258 103V103C257.448 103 257 102.552 257 102V73.0001Z" fill="#7E7E7E"/>
<path d="M262 73C262 72.4477 262.448 72 263 72L265 72.0001C265.552 72.0001 266 72.4478 266 73.0001V102C266 102.552 265.552 103 265 103H263C262.448 103 262 102.552 262 102V73Z" fill="#7E7E7E"/>
<path d="M269 73C269 72.4477 269.448 72 270 72L272 72.0001C272.552 72.0001 273 72.4478 273 73.0001V102C273 102.552 272.552 103 272 103H270C269.448 103 269 102.552 269 102V73Z" fill="#7E7E7E"/>
<path d="M276 73C276 72.4477 276.448 72 277 72L283 72.0001C283.552 72.0001 284 72.4478 284 73.0001V102C284 102.552 283.552 103 283 103H277C276.448 103 276 102.552 276 102V73Z" fill="#7E7E7E"/>
<path d="M291 73C291 72.4477 291.448 72 292 72L293 72.0001C293.552 72.0001 294 72.4478 294 73.0001V102C294 102.552 293.552 103 293 103H292C291.448 103 291 102.552 291 102V73Z" fill="#7E7E7E"/>
<path d="M0 44L342 72H318H42L0 44Z" fill="#D9D9D9"/>
<path d="M0 129L342 103H318H42L0 129Z" fill="#D9D9D9"/>
</svg>
