<svg width="32" height="32" viewBox="0 0 32 32" fill="none" xmlns="http://www.w3.org/2000/svg">
<path fill-rule="evenodd" clip-rule="evenodd" d="M0.857772 19.4163C0.337644 20.4121 0.0470713 21.4746 0 22.5526C0.0717761 23.2175 0.356264 23.8566 0.826281 24.4089C1.7107 25.225 2.77429 25.9059 3.96495 26.4181L11.6549 30.4987C12.6012 31.0989 13.6652 31.5706 14.8041 31.8948C15.5435 32.0351 16.314 32.0351 17.0535 31.8948C18.2 31.5746 19.2725 31.1062 20.2281 30.5083L28.0006 26.4253C29.2034 25.9116 30.2791 25.2279 31.1752 24.4077C31.6486 23.8524 31.9328 23.2087 32 22.5395C31.9489 21.4527 31.6507 20.3823 31.1197 19.3804L24.322 2.32885C24.1703 1.77661 23.8961 1.25041 23.5123 0.775011C23.2327 0.504279 22.8715 0.294535 22.4625 0.165429C21.7792 0.0177499 21.0682 -0.03163 20.3631 0.0196069H11.5124C10.807 -0.0315 10.0959 0.0191109 9.413 0.169014C9.00302 0.29786 8.64153 0.508605 8.36328 0.780987C7.98115 1.25641 7.70939 1.78273 7.56099 2.33482L0.857772 19.4163ZM20.7125 3.63885C21.0287 4.03951 21.2526 4.48191 21.3738 4.94527L27.2103 20.2255C25.0181 19.3192 22.6651 18.6851 20.2326 18.3453L16.4401 8.1139C16.4168 8.05347 16.3757 7.99837 16.3202 7.95322C16.2646 7.90807 16.1963 7.87419 16.121 7.85441C16.0457 7.83462 15.9655 7.82952 15.8871 7.83953C15.8088 7.84953 15.7346 7.87435 15.6708 7.9119C15.5852 7.96184 15.5225 8.03281 15.4924 8.1139L11.7434 18.3417C9.29946 18.6808 6.93547 19.3174 4.73424 20.2291L10.5947 4.94886C10.7147 4.48464 10.9392 4.04161 11.2575 3.64124C11.4896 3.41419 11.7898 3.23742 12.1303 3.12728C12.7039 3.0037 13.3007 2.96321 13.8923 3.00776H18.0807C18.6728 2.96317 19.2701 3.00366 19.8442 3.12728C20.1857 3.23774 20.4865 3.41539 20.7185 3.64363L20.7125 3.63885ZM16.1942 22.0614C17.999 22.1447 19.7887 21.7574 21.2928 20.9582C21.4638 21.3872 21.5244 21.8393 21.4711 22.2874C21.4178 22.7355 21.2516 23.1705 20.9824 23.5662C20.4291 24.3158 19.6262 24.9285 18.6625 25.3364C17.6518 25.848 16.782 26.2926 16.782 27.4723C16.7808 27.8507 16.888 28.2244 17.0955 28.5648C16.4139 28.3392 15.8314 27.9576 15.4217 27.4683C15.012 26.979 14.7934 26.4039 14.7936 25.8157V25.7428C14.7936 24.9264 14.7936 23.9212 13.351 23.9212C13.1498 23.9211 12.9507 23.9524 12.7646 24.0132C12.3902 24.1368 12.0925 24.3736 11.9368 24.6718C11.8595 24.82 11.8193 24.9787 11.8184 25.1392C10.8296 24.2785 10.2984 23.1455 10.3368 21.9789C10.3297 21.474 10.4182 20.9711 10.5992 20.4872C11.199 21.392 13.4784 22.065 16.1942 22.065V22.0614Z" fill="#FF5D01"/>
</svg>
