<svg width="21" height="23" viewBox="0 0 21 23" fill="none" xmlns="http://www.w3.org/2000/svg">
<path fill-rule="evenodd" clip-rule="evenodd" d="M0.562913 13.9554C0.221579 14.6712 0.0308905 15.4349 0 16.2097C0.0471031 16.6876 0.233798 17.1469 0.542247 17.5439C1.12265 18.1305 1.82063 18.6198 2.602 18.988L7.64853 21.921C8.26951 22.3524 8.96776 22.6914 9.71517 22.9244C10.2004 23.0252 10.7061 23.0252 11.1913 22.9244C11.9437 22.6943 12.6476 22.3576 13.2747 21.9278L18.3754 18.9932C19.1647 18.6239 19.8706 18.1326 20.4587 17.543C20.7694 17.1439 20.9559 16.6812 21 16.2003C20.9665 15.4191 20.7708 14.6498 20.4223 13.9297L15.9613 1.67386C15.8618 1.27694 15.6818 0.898731 15.4299 0.557039C15.2465 0.36245 15.0094 0.211697 14.741 0.118902C14.2926 0.0127577 13.826 -0.0227341 13.3633 0.0140925H7.55504C7.09213 -0.0226407 6.62542 0.0137359 6.17728 0.121479C5.90824 0.214087 5.67101 0.36556 5.4884 0.561335C5.23763 0.903045 5.05929 1.28134 4.9619 1.67816L0.562913 13.9554ZM13.5926 2.61542C13.8001 2.9034 13.947 3.22137 14.0266 3.55441L17.8567 14.5371C16.4181 13.8857 14.8739 13.4299 13.2777 13.1857L10.7888 5.83187C10.7735 5.78843 10.7465 5.74883 10.7101 5.71638C10.6737 5.68393 10.6288 5.65957 10.5794 5.64536C10.53 5.63114 10.4773 5.62747 10.4259 5.63466C10.3745 5.64185 10.3259 5.65969 10.284 5.68668C10.2278 5.72257 10.1866 5.77358 10.1669 5.83187L7.70659 13.1831C6.10277 13.4268 4.5514 13.8844 3.10685 14.5396L6.95276 3.55699C7.0315 3.22334 7.17888 2.90491 7.38774 2.61714C7.54007 2.45395 7.73705 2.3269 7.96049 2.24773C8.33694 2.15891 8.7286 2.12981 9.11683 2.16182H11.8655C12.254 2.12978 12.646 2.15888 13.0228 2.24773C13.2469 2.32713 13.4443 2.45481 13.5965 2.61886L13.5926 2.61542ZM10.6274 15.8566C11.8118 15.9165 12.9863 15.6381 13.9734 15.0637C14.0856 15.372 14.1254 15.697 14.0904 16.0191C14.0554 16.3412 13.9463 16.6538 13.7697 16.9382C13.4066 17.477 12.8797 17.9173 12.2473 18.2105C11.584 18.5782 11.0132 18.8978 11.0132 19.7457C11.0124 20.0177 11.0827 20.2863 11.2189 20.5309C10.7716 20.3688 10.3894 20.0945 10.1205 19.7429C9.85165 19.3912 9.7082 18.9778 9.70828 18.555V18.5026C9.70828 17.9159 9.70828 17.1934 8.76156 17.1934C8.62959 17.1933 8.49887 17.2158 8.37677 17.2595C8.13108 17.3483 7.93573 17.5186 7.83354 17.7329C7.7828 17.8394 7.75639 17.9535 7.7558 18.0688C7.1069 17.4502 6.75833 16.6358 6.78349 15.7973C6.7789 15.4344 6.83695 15.073 6.95571 14.7252C7.34936 15.3755 8.84521 15.8592 10.6274 15.8592V15.8566Z" fill="#FF5D01"/>
</svg>
