<svg width="27" height="25" viewBox="0 0 27 25" fill="none" xmlns="http://www.w3.org/2000/svg">
<g clip-path="url(#clip0_8_43)">
<path d="M5.60798 0C4.0674 0 2.92739 1.56679 2.97844 3.26593C3.02748 4.89828 2.96378 7.01262 2.50573 8.73676C2.0463 10.4659 1.26921 11.5613 0 11.702V13.2897C1.26921 13.4304 2.0463 14.5257 2.50573 16.255C2.96378 17.9792 3.02748 20.0933 2.97844 21.7257C2.92739 23.4246 4.0674 24.9917 5.6082 24.9917H21.394C22.9347 24.9917 24.0744 23.4249 24.0234 21.7257C23.9744 20.0934 24.038 17.9792 24.4961 16.255C24.9558 14.5259 25.7308 13.4303 27 13.2897V11.702C25.7308 11.5613 24.9558 10.4659 24.4962 8.73676C24.038 7.01287 23.9744 4.89841 24.0234 3.26593C24.0744 1.56703 22.9347 0 21.394 0H5.60777H5.60798ZM18.3052 15.3839C18.3052 17.7237 16.8033 19.1425 14.3108 19.1425H10.0678C9.94648 19.1425 9.83011 19.0865 9.74431 18.9867C9.65851 18.887 9.61031 18.7518 9.61031 18.6108V6.38088C9.6103 6.31104 9.62213 6.24188 9.64512 6.17736C9.66811 6.11283 9.70182 6.0542 9.74431 6.00481C9.78681 5.95542 9.83726 5.91624 9.89279 5.88951C9.94832 5.86278 10.0078 5.84902 10.0679 5.84902H14.2866C16.3648 5.84902 17.7288 7.15723 17.7288 9.16556C17.7288 10.5752 16.8112 11.8373 15.6423 12.0582V12.1319C17.2337 12.3347 18.3052 13.6152 18.3052 15.3839ZM13.848 7.53468H11.4289V11.5053H13.4666C15.0416 11.5053 15.9103 10.7683 15.9103 9.45086C15.9103 8.21642 15.1632 7.53468 13.848 7.53468ZM11.4289 13.0808V17.4564H13.9372C15.577 17.4564 16.4458 16.6918 16.4458 15.2548C16.4458 13.8175 15.5528 13.0805 13.8317 13.0805H11.4289V13.0808Z" fill="#7E13F8"/>
</g>
<defs>
<clipPath id="clip0_8_43">
<rect width="27" height="25" fill="white"/>
</clipPath>
</defs>
</svg>
