<svg width="26" height="28" viewBox="0 0 26 28" fill="none" xmlns="http://www.w3.org/2000/svg">
<path d="M5.49121 20.9618L3.29011 19.6787C3.71021 18.4074 7.1551 12.6404 9.21331 12.8026C8.02006 15.7181 7.35144 18.3157 5.49121 20.9618ZM9.81863 14.078C8.83338 16.8268 7.72897 19.372 6.3385 21.429L13.0007 25.0299L23.5293 19.3648V14.1119C22.5099 14.2157 21.8873 14.7525 21.5467 15.6226C21.0217 16.9637 18.9063 18.5498 17.2012 16.412C14.4903 20.4489 11.949 19.7551 9.81863 14.078V14.078ZM8.8831 12.0272C7.14291 8.55258 3.83957 8.50757 2.42479 13.6887V19.1227C3.40577 17.4776 6.49432 12.2305 8.8831 12.0272ZM23.028 13.3005C21.2606 12.0628 18.6198 13.5699 17.6016 15.749C18.5545 17.2171 19.5121 16.9145 20.3206 16.2037C20.9715 15.6314 21.1983 13.8859 23.028 13.3005ZM15.3382 13.3957C13.6888 10.4462 12.2916 8.1486 10.4928 12.455C11.9829 13.5457 13.7684 14.6507 15.3382 13.3958V13.3957ZM16.7551 15.8214C16.4003 15.3179 16.05 14.7125 15.7239 14.1009C14.1558 15.2554 12.1688 14.6955 10.1829 13.1931C11.3998 16.1188 12.3538 17.7436 13.3067 18.1834C14.3833 18.6803 15.8366 17.5288 16.7551 15.8214ZM1.76976 7.94484V20.0552L13 26.1103L24.2302 20.0552V7.94484L13 1.88967L1.76976 7.94484ZM26 7V21L13 28L0 21V7L13 0L26 7ZM23.5293 12.2968C21.5955 9.57195 19.9673 9.41145 18.775 10.1979C17.6901 10.9134 16.9512 12.6182 16.3601 13.5152C16.6227 14.0655 16.8701 14.3723 17.1572 14.8797C18.5424 12.418 21.1171 10.9746 23.5293 12.6513V12.2968Z" fill="#EB294C"/>
</svg>
