<svg width="129" height="70" viewBox="0 0 129 70" fill="none" xmlns="http://www.w3.org/2000/svg">
<rect x="25.7797" width="34" height="61" rx="17" transform="rotate(25 25.7797 0)" fill="white"/>
<rect x="72.2971" y="14.6959" width="34" height="61" rx="17" transform="rotate(-25 72.2971 14.6959)" fill="white"/>
<rect x="33.2971" y="44.3269" width="34" height="61" rx="17" transform="rotate(-90 33.2971 44.3269)" fill="white"/>
<rect x="39.5" y="32.5" width="14" height="14" rx="7" fill="#EB294C" stroke="#040A0E"/>
<rect x="31" y="12" width="4" height="10" rx="2" fill="#040A0E"/>
<rect x="31" y="26" width="4" height="10" rx="2" fill="#040A0E"/>
<rect x="35" y="26" width="4" height="10" rx="2" transform="rotate(-90 35 26)" fill="#040A0E"/>
<rect x="21" y="26" width="4" height="10" rx="2" transform="rotate(-90 21 26)" fill="#040A0E"/>
<rect x="95" y="12" width="4" height="6" rx="2" fill="#040A0E"/>
<rect x="95" y="30" width="4" height="6" rx="2" fill="#040A0E"/>
<rect x="103" y="26" width="4" height="6" rx="2" transform="rotate(-90 103 26)" fill="#040A0E"/>
<rect x="85" y="26" width="4" height="6" rx="2" transform="rotate(-90 85 26)" fill="#040A0E"/>
<rect x="75.5" y="32.5" width="14" height="14" rx="7" fill="#FFC83C" stroke="#040A0E"/>
</svg>
