<svg width="32" height="32" viewBox="0 0 32 32" fill="none" xmlns="http://www.w3.org/2000/svg">
<path d="M15.4191 0.010547C18.582 -0.104336 21.708 0.721442 24.4016 2.38342C27.0952 4.0454 29.2354 6.46892 30.5514 9.34739C31.8674 12.2259 32.3001 15.43 31.7948 18.5544C31.2895 21.6789 29.8688 24.5832 27.7126 26.9002C25.5564 29.2171 22.7614 30.8425 19.6812 31.5707C16.6011 32.299 13.3742 32.0973 10.4086 30.9913C7.4431 29.8853 4.87221 27.9246 3.02119 25.3573C1.17016 22.7899 0.122161 19.7313 0.00975004 16.5683C-0.138137 12.3304 1.40127 8.20692 4.29016 5.10273C7.17905 1.99853 11.1814 0.167185 15.4191 0.010547Z" fill="black"/>
<path d="M24.562 10.9238L21.5505 18.4804L18.5208 10.9238H16.0408L20.2911 21.2381L17.2705 28.5113L19.4419 28.9398L26.9117 10.9238H24.562Z" fill="#D2D2D2"/>
<path d="M11.3321 12.8344C11.9296 12.8229 12.5168 12.991 13.0177 13.317C13.5186 13.643 13.91 14.112 14.1413 14.663L14.1824 14.7533L16.2956 14.0413L16.2499 13.9339C15.8475 12.9682 15.1633 12.1463 14.2866 11.5754C13.4099 11.0046 12.3815 10.7113 11.3355 10.7339C10.6216 10.7112 9.91054 10.8335 9.24522 11.0934C8.57991 11.3533 7.97418 11.7453 7.46464 12.2459C6.9556 12.7317 6.55314 13.318 6.28281 13.9677C6.01248 14.6173 5.88019 15.3161 5.89434 16.0196C5.88028 16.7206 6.01234 17.4168 6.2821 18.0639C6.55187 18.7111 6.95342 19.295 7.46121 19.7784C7.97066 20.2792 8.57634 20.6714 9.24166 20.9315C9.90698 21.1916 10.6181 21.3141 11.3321 21.2916C12.378 21.3138 13.4063 21.0204 14.2829 20.4496C15.1595 19.8788 15.8438 19.057 16.2464 18.0916L16.2922 17.9841L14.1756 17.271L14.1356 17.3659C13.9099 17.92 13.5199 18.3918 13.0181 18.7176C12.5163 19.0435 11.9267 19.2079 11.3287 19.1887C10.9201 19.1967 10.5142 19.1204 10.1365 18.9645C9.75871 18.8085 9.41718 18.5763 9.13323 18.2824C8.84067 17.9846 8.61091 17.631 8.45759 17.2427C8.30426 16.8544 8.23049 16.4392 8.24065 16.0219C8.23008 15.6007 8.30357 15.1816 8.45683 14.7891C8.61008 14.3967 8.84003 14.0387 9.13323 13.7361C9.41769 13.4408 9.76047 13.2078 10.1398 13.0519C10.5191 12.8961 10.9267 12.8209 11.3367 12.831L11.3321 12.8344Z" fill="#D2D2D2"/>
<path d="M23.1345 27.197C25.9589 25.4191 28.0101 22.6426 28.8797 19.4206C29.7493 16.1985 29.3735 12.7671 27.8271 9.80955L29.7494 8.81641C31.5484 12.2508 31.9866 16.2372 30.9766 19.9804C29.9666 23.7236 27.5827 26.9484 24.3002 29.0118L23.1345 27.197Z" fill="url(#paint0_linear_78_10)"/>
<path d="M1.02465 20.0678C0.657121 18.7374 0.471055 17.3634 0.471497 15.9832C0.493032 12.8613 1.45548 9.81841 3.23315 7.25194C5.01082 4.68546 7.5211 2.71467 10.4362 1.59692L11.2179 3.60264C8.7102 4.56518 6.5509 6.26132 5.02183 8.46968C3.49276 10.678 2.66493 13.2961 2.64638 15.9821C2.6459 17.1696 2.80583 18.3517 3.12181 19.4963L1.02465 20.0678Z" fill="#58D09E"/>
<path d="M10.3322 1.64719C13.9179 0.257169 17.8905 0.238658 21.489 1.5952C25.0876 2.95175 28.0594 5.58801 29.8352 8.99919L27.9061 9.97976C26.3772 7.04465 23.8197 4.77645 20.7229 3.60932C17.6261 2.44218 14.2077 2.45811 11.1219 3.65405L10.3322 1.65062V1.64719Z" fill="#58D09E"/>
<path d="M17.691 27.494L17.163 28.7626C17.112 28.8855 17.0272 28.9914 16.9183 29.0679C16.8094 29.1443 16.6811 29.1883 16.5482 29.1946C16.3699 29.2026 16.1893 29.2072 16.0076 29.2072C12.983 29.2021 10.0481 28.1792 7.6756 26.3032C5.30308 24.4273 3.63099 21.8074 2.92861 18.8655L0.812012 19.3398C1.596 22.7291 3.50065 25.7548 6.21778 27.9272C8.99284 30.1402 12.4353 31.3486 15.9847 31.3558H16.0167C16.2247 31.3558 16.4327 31.3558 16.6385 31.3432C17.1846 31.3201 17.713 31.1421 18.1617 30.8298C18.6104 30.5175 18.9609 30.0839 19.1722 29.5798L19.8579 27.9226L17.6865 27.494H17.691Z" fill="url(#paint1_linear_78_10)"/>
<defs>
<linearGradient id="paint0_linear_78_10" x1="30.6048" y1="12.1067" x2="25.8849" y2="29.2529" gradientUnits="userSpaceOnUse">
<stop stop-color="#58D09E"/>
<stop offset="1"/>
</linearGradient>
<linearGradient id="paint1_linear_78_10" x1="2.89321" y1="20.0129" x2="16.8626" y2="31.0211" gradientUnits="userSpaceOnUse">
<stop stop-color="#58D09E"/>
<stop offset="1" stop-color="#D2D2D2"/>
</linearGradient>
</defs>
</svg>
