<svg width="40" height="40" viewBox="0 0 40 40" fill="none" xmlns="http://www.w3.org/2000/svg">
<path d="M0.5 20C0.5 9.23045 9.23045 0.5 20 0.5C30.7696 0.5 39.5 9.23045 39.5 20C39.5 30.7696 30.7696 39.5 20 39.5C9.23045 39.5 0.5 30.7696 0.5 20Z" fill="white" stroke="#040A0E"/>
<path d="M2.5 11.5H14.5V13.5H2L2.5 11.5Z" fill="#040A0E"/>
<path d="M1 18H13V19H1V18Z" fill="#040A0E"/>
<path d="M1 16H9V17H1V16Z" fill="#040A0E"/>
<path d="M1.28 23H8V26H1.28L1.28 23Z" fill="#040A0E"/>
<path d="M2 27H9V28H2L2 27Z" fill="#040A0E"/>
<path d="M3 29H11V30H3L3 29Z" fill="#040A0E"/>
<path d="M4 31H13V32H4L4 31Z" fill="#040A0E"/>
<path d="M6 33H15V37.5H11L6 33Z" fill="#040A0E"/>
<path d="M1 20H39V21H0L1 20Z" fill="#040A0E"/>
<path d="M4 8H16V10H2.5L4 8Z" fill="#040A0E"/>
<rect x="25" y="6" width="8" height="8" rx="4" fill="#040A0E"/>
</svg>
