<svg width="170" height="224" viewBox="0 0 170 224" fill="none" xmlns="http://www.w3.org/2000/svg">
<path d="M96.3328 0L97.592 45.5878L108.925 0H96.3331H96.3328ZM61.9127 0.0977793L61.2838 97.0748L0 79.2732L39.8764 148.885L7.97541 146.759L49.0984 192.92L33.1188 161.751L60.1482 165.035L41.5517 119.867L81.123 152.716L76.5824 76.6167L76.5831 76.618L103.612 146.695L130.857 109.74L128.478 173.248L150.103 156.823L142.776 189.479L170 130.817L142.715 131.614L168.11 57.7527L120.889 87.7767L116.482 30.3868L92.9756 88.0421L61.9138 0.0981904H61.9127V0.0977793ZM9.33633 11.8313L7.12695 24.9144L48.4289 83.278H48.4296L20.5428 14.7355L9.33597 11.8309L9.33633 11.8313ZM161.086 22.0102L149.879 24.9148L134.161 69.0265L163.295 35.0954L161.086 22.0102H161.086ZM93.322 159.534C78.8841 159.534 67.1932 172.901 67.1932 189.406C67.1932 191.758 67.4218 193.804 67.8713 196C70.4767 182.629 80.8434 172.724 93.3217 172.724C105.835 172.724 116.204 182.571 118.772 196C119.21 193.832 119.45 191.726 119.45 189.406C119.45 172.901 107.758 159.534 93.3209 159.534L93.322 159.534Z" fill="#EC5454"/>
<rect x="63.5" y="166.5" width="56" height="28" rx="5.5" fill="white" stroke="#191919"/>
<rect x="88" y="169" width="4" height="9" fill="#E59F33"/>
<rect x="88.2402" y="173.697" width="4" height="14.3622" transform="rotate(67.2025 88.2402 173.697)" fill="#E59F33"/>
<rect width="4" height="14.3622" transform="matrix(-0.387475 0.92188 0.92188 0.387475 91.5498 174)" fill="#E59F33"/>
<rect x="0.574145" y="0.412744" width="12.2893" height="32" rx="5.5" transform="matrix(0.161401 0.986889 0.986889 -0.161401 42.673 186.901)" fill="white" stroke="#191919"/>
<rect x="144.189" y="188.09" width="12.6049" height="32" rx="5.5" transform="rotate(99.2882 144.189 188.09)" fill="white" stroke="#191919"/>
<rect x="52.1938" y="173.12" width="16" height="32" rx="5.5" transform="rotate(-31.718 52.1938 173.12)" fill="white" stroke="#191919"/>
<path d="M54.5 197.5L51 198L44 190.5L46.5 188L54.5 197.5Z" fill="#E59F33"/>
<rect x="114.687" y="166.699" width="16" height="32" rx="5.5" transform="rotate(36.3958 114.687 166.699)" fill="white" stroke="#191919"/>
<rect x="51.8105" y="69.5" width="78.4946" height="89.5904" rx="37.5" fill="white" stroke="#191919"/>
<path d="M45.1003 128.105C45.1003 124.569 50.6897 117.057 51.3108 117.61C51.9318 117.002 63.7318 141.362 69.9423 143.019C76.1528 144.676 87.9528 131.971 91.6791 131.971C96.4089 131.971 104.721 141.914 112.795 143.019C120.869 144.124 128.321 117.61 130.805 117.61C132.793 117.61 136.809 124.606 137.637 128.105C138.672 138.048 137.637 158.817 132.669 162.352C127.7 165.888 103.479 168.981 91.6791 168.981C81.9493 169.165 60.2539 168.097 51.3108 162.352C40.1319 155.171 45.1003 132.524 45.1003 128.105Z" fill="white" stroke="#191919"/>
<rect x="85" y="70" width="12" height="99" fill="#E59F33"/>
<path d="M64 138L70.5 143L78 140.5L91.5 132.5L106 140.5L114 143.5L120 138V166L110 168L91.5 169.5L71.5 168L63.5 166.5L64 138Z" fill="#E59F33"/>
<path d="M140.5 188L137 187.5L130 198L133 198.5L140.5 188Z" fill="#E59F33"/>
<path d="M64.1331 137.836C67.9218 142.037 69.8676 143.138 70.3669 143.164" stroke="#191919"/>
<path d="M52.349 99H130L130.5 103H51.7065L52.349 99Z" fill="#191919"/>
<rect x="86" y="152" width="10" height="15" rx="5" fill="#191919"/>
<rect x="97" y="160" width="8" height="7" rx="3.5" fill="#191919"/>
<rect x="99" y="162" width="4" height="4" rx="2" fill="#BCBCBC"/>
<rect x="77" y="160" width="8" height="7" rx="3.5" fill="#191919"/>
<path d="M78.0161 139.705L91.6792 128.657L106.584 140.257L105.963 140.809L91.6792 133.076L78.6372 140.809L78.0161 139.705Z" fill="#191919"/>
<path d="M85.0719 110C85.0719 112 70.3563 115.5 62.072 115.5C53.7878 115.5 55.0719 113.866 55.0719 110C55.0719 106.134 61.7878 105 70.072 105C78.3563 105 85.0719 106.134 85.0719 110Z" fill="#191919"/>
<rect x="75.5" y="200.5" width="28" height="4" rx="2" fill="#4F4F4F" stroke="black"/>
<rect x="87.5" y="213.5" width="11" height="4" rx="2" transform="rotate(-90 87.5 213.5)" fill="#4F4F4F" stroke="black"/>
<path d="M58.4349 110.807C57.3205 112.771 60.2936 114.757 58.766 113.89C57.2384 113.023 56.9034 110.728 58.0178 108.764C59.1322 106.801 61.274 105.911 62.8016 106.778C64.3292 107.645 59.5493 108.844 58.4349 110.807Z" fill="#D9D9D9"/>
<rect x="79" y="162" width="4" height="4" rx="2" fill="#BCBCBC"/>
<path d="M97.0001 110C97.0001 112 111.716 115.5 120 115.5C128.284 115.5 127 113.866 127 110C127 106.134 120.284 105 112 105C103.716 105 97.0001 106.134 97.0001 110Z" fill="#191919"/>
<path d="M79 140C76.5 141.333 71.2 143.8 70 143" stroke="#191919"/>
<path d="M120 137.5C119 140 114.5 143.5 113.008 142.98" stroke="#191919"/>
<path d="M105.5 140L113 143" stroke="#191919"/>
<path d="M84.0384 195.241C85.9065 198.312 84.9549 202.291 81.9291 204.131C78.9033 205.971 74.9328 204.986 73.0647 201.915C71.1965 198.843 72.1481 194.864 75.1739 193.024C78.1997 191.184 82.1702 192.169 84.0384 195.241Z" fill="white" stroke="#191919"/>
<path d="M105.038 195.241C106.907 198.312 105.955 202.291 102.929 204.131C99.9033 205.971 95.9328 204.986 94.0647 201.915C92.1965 198.843 93.1481 194.864 96.1739 193.024C99.1997 191.184 103.17 192.169 105.038 195.241Z" fill="white" stroke="#191919"/>
<path d="M33.3855 179.72L50.5248 198.202L37.8516 203.477L30.6666 180.562L33.3855 179.72Z" fill="white" stroke="#191919"/>
<path d="M148.169 177.872L133.425 198.316L146.65 201.997L150.971 178.374L148.169 177.872Z" fill="white" stroke="#191919"/>
<path d="M104.187 109.814C103.164 111.618 105.766 113.369 104.426 112.608C103.086 111.848 102.83 109.769 103.854 107.965C104.877 106.161 106.793 105.315 108.133 106.076C109.473 106.836 105.211 108.01 104.187 109.814Z" fill="#D9D9D9"/>
<rect x="76.5" y="208.5" width="26" height="15" fill="#EC4343" stroke="black"/>
<path d="M56 171.5L58 170L72.8904 194.401L72.0001 196.5L56 171.5Z" fill="#E59F33"/>
<path d="M123.499 173.75L121.5 172.25L105 194.5L106 196L123.499 173.75Z" fill="#E59F33"/>
<path d="M63.9991 98.144C64.3206 95.6373 64.5656 94.9408 65.0034 92.8398C65.4411 90.7387 66.292 88.447 67.0646 86.2967C67.8372 84.1464 67.5796 84.8632 68.3522 82.7129C69.2228 80.2898 73.258 76.3825 72.5241 76.1188C71.7902 75.8552 66.7286 80.511 65.4152 81.6577C64.5658 82.3993 61.6229 85.6371 60.554 86.9815C59.485 88.3259 58.4205 89.9954 57.421 91.8946C56.4216 93.7939 55.5068 95.8857 54.729 98.0506L59.4923 98.1433L63.9991 98.144Z" fill="#C9C9C9"/>
<path d="M55.208 149.551C54.0861 146.687 53.9056 145.8 53.1071 143.3C52.3085 140.801 51.7523 137.855 51.2085 135.105C50.6648 132.356 50.846 133.272 50.3023 130.523C49.6896 127.425 50.9192 120.878 50.1542 121.029C49.3892 121.181 47.7105 129.131 47.2408 131.129C46.937 132.42 46.256 137.609 46.1022 139.673C45.9484 141.738 45.9788 144.146 46.1918 146.761C46.4049 149.377 46.7963 152.147 47.3437 154.915L51.4095 152.207L55.208 149.551Z" fill="#C9C9C9"/>
</svg>
