<svg width="34" height="16" viewBox="0 0 34 16" fill="none" xmlns="http://www.w3.org/2000/svg">
<mask id="path-1-outside-1_73_65" maskUnits="userSpaceOnUse" x="0" y="0" width="34" height="16" fill="black">
<rect fill="white" width="34" height="16"/>
<path d="M1.20825 11.9169V6.53712H5.65475V6.22244H1.20825V1.31458H5.93587V1H1V12.2314H5.9775V11.9169H1.20825ZM9.98669 4.14602L8.14356 7.81122L6.342 4.14612H6.07125L8.01856 8.04725L5.88375 12.2313H6.13369L8.14344 8.283L10.1636 12.2313H10.4239L8.27881 8.04706L10.2365 4.14593H9.98662L9.98669 4.14602ZM11.0488 15V9.96638H11.0696C11.1946 10.7004 11.4411 11.2903 11.809 11.7361C12.1769 12.1817 12.6455 12.4046 13.2148 12.4046C13.5827 12.4046 13.909 12.2919 14.1936 12.0664C14.4783 11.8409 14.716 11.5342 14.9069 11.1462C15.0978 10.7581 15.2436 10.3072 15.3443 9.79332C15.4449 9.27953 15.4953 8.73939 15.4953 8.1732C15.4953 7.5649 15.4432 7.0038 15.3391 6.49001C15.2349 5.97612 15.0839 5.5304 14.8861 5.15294C14.6882 4.77538 14.4487 4.48166 14.1676 4.27206C13.8864 4.06228 13.5688 3.95739 13.2148 3.95739C12.944 3.95739 12.6924 4.01772 12.4598 4.13828C12.2272 4.25894 12.0208 4.42926 11.8403 4.64953C11.6587 4.87148 11.5007 5.13406 11.3716 5.42815C11.2397 5.72706 11.1391 6.05477 11.0696 6.41136H11.0488V4.14602H10.8406V15H11.0488ZM13.2148 12.1056C12.5623 12.1056 12.0381 11.7674 11.6424 11.091C11.2467 10.4147 11.0488 9.44192 11.0488 8.17301C11.0488 7.64864 11.0974 7.15052 11.1946 6.67865C11.2918 6.20677 11.4324 5.79249 11.6163 5.43598C11.8003 5.07939 12.0277 4.79624 12.2984 4.58655C12.5691 4.37677 12.8746 4.27187 13.2148 4.27187C13.5619 4.27187 13.8656 4.37677 14.1259 4.58655C14.3862 4.79624 14.6015 5.08203 14.7716 5.44382C14.9416 5.80561 15.0701 6.21989 15.1569 6.68648C15.2436 7.15316 15.287 7.64864 15.287 8.17301C15.287 8.64498 15.2471 9.11431 15.1672 9.58089C15.0874 10.0476 14.9642 10.4671 14.7976 10.8394C14.631 11.2116 14.4176 11.5157 14.1572 11.7517C13.8968 11.9877 13.5827 12.1056 13.2148 12.1056ZM16.6407 12.2314V7.65393C16.6407 7.21349 16.6824 6.78344 16.7657 6.36406C16.849 5.94459 16.9774 5.57487 17.151 5.25509C17.3246 4.93522 17.5449 4.68351 17.8123 4.49998C18.0795 4.31644 18.3971 4.24044 18.7651 4.27187V3.95729C18.4457 3.94691 18.1663 3.99921 17.9268 4.11458C17.6873 4.22996 17.4808 4.38725 17.3072 4.58655C17.1336 4.78576 16.9948 5.01906 16.8907 5.28653C16.7866 5.55358 16.7094 5.84248 16.6616 6.1438H16.6407V4.14602H16.4325V12.2315L16.6407 12.2314ZM19.0254 8.25166H23.5031C23.517 7.69585 23.4806 7.16109 23.3937 6.64721C23.307 6.13332 23.1681 5.67711 22.9772 5.27869C22.7863 4.88018 22.5399 4.56031 22.2379 4.31908C21.9359 4.07786 21.5766 3.95729 21.1601 3.95729C20.8616 3.95729 20.57 4.0517 20.2854 4.24053C20.0008 4.42926 19.7508 4.70447 19.5356 5.06626C19.3204 5.42805 19.1469 5.87113 19.015 6.3956C18.8831 6.91987 18.8171 7.5176 18.8171 8.18878C18.8171 8.78651 18.8622 9.34496 18.9525 9.86404C19.0427 10.3831 19.1816 10.8341 19.369 11.2169C19.5565 11.5996 19.7978 11.8959 20.0928 12.1056C20.3878 12.3154 20.7436 12.415 21.1601 12.4045C21.771 12.4045 22.2848 12.1449 22.7013 11.6259C23.1178 11.1067 23.3642 10.3753 23.4406 9.43144H23.2324C23.1421 10.3229 22.9113 10.9914 22.5399 11.437C22.1684 11.8828 21.7016 12.1056 21.1392 12.1056C20.7574 12.1056 20.4346 12.006 20.1708 11.8068C19.9071 11.6076 19.6918 11.3348 19.5252 10.9888C19.3586 10.6427 19.2354 10.2363 19.1556 9.76963C19.0757 9.30304 19.0323 8.79699 19.0254 8.25166ZM23.2948 7.93707H19.0254C19.0462 7.37079 19.1156 6.86218 19.2336 6.41127C19.3517 5.96026 19.5061 5.57487 19.6971 5.25509C19.8879 4.93522 20.1101 4.69145 20.3635 4.52358C20.6169 4.35581 20.8894 4.27187 21.1809 4.27187C21.5281 4.27187 21.8334 4.36893 22.0973 4.56295C22.3611 4.75697 22.5815 5.0218 22.7586 5.35734C22.9356 5.69288 23.0692 6.08356 23.1594 6.52919C23.2497 6.97491 23.2948 7.44424 23.2948 7.93707ZM27.8246 6.53712H28.0329C28.0329 5.6352 27.8593 4.97978 27.5123 4.57079C27.1651 4.16179 26.693 3.95729 26.096 3.95729C25.7628 3.95729 25.4816 4.02026 25.2525 4.14612C25.0234 4.27188 24.836 4.43445 24.6902 4.63366C24.5444 4.83288 24.4403 5.05314 24.3778 5.29437C24.3153 5.53559 24.2841 5.76633 24.2841 5.98651C24.2841 6.42694 24.3361 6.77825 24.4403 7.04044C24.5444 7.30262 24.7076 7.50712 24.9297 7.65393C25.0824 7.75873 25.2559 7.85314 25.4504 7.93717C25.6447 8.02101 25.8704 8.11013 26.1273 8.20445C26.3563 8.28848 26.5819 8.37232 26.8041 8.45615C27.0262 8.54009 27.2224 8.65282 27.3924 8.79434C27.5626 8.93596 27.7014 9.11686 27.809 9.33712C27.9166 9.55729 27.9704 9.84572 27.9704 10.2022C27.9704 10.5483 27.9166 10.842 27.809 11.0831C27.7023 11.3231 27.5618 11.5245 27.3977 11.6731C27.2311 11.8251 27.0453 11.9352 26.8406 12.0033C26.6358 12.0715 26.4362 12.1056 26.2418 12.1056C25.6101 12.1056 25.1258 11.8933 24.7891 11.4686C24.4524 11.0438 24.2841 10.3753 24.2841 9.46288H24.0758C24.0758 10.4802 24.2581 11.2247 24.6225 11.6967C24.987 12.1686 25.5267 12.4045 26.2418 12.4045C26.4709 12.4045 26.7017 12.3651 26.9343 12.2865C27.1668 12.2078 27.3751 12.0794 27.5591 11.9011C27.7414 11.7253 27.8946 11.4885 28.0068 11.209C28.1214 10.9258 28.1787 10.5798 28.1787 10.1708C28.1787 9.78275 28.1283 9.46817 28.0277 9.22694C27.927 8.98581 27.7951 8.78651 27.6319 8.62921C27.4688 8.47192 27.2849 8.34871 27.0801 8.25959C26.8741 8.16993 26.6675 8.08339 26.4604 7.99995C26.2056 7.89894 25.9504 7.79933 25.6951 7.70114C25.4764 7.6172 25.2734 7.5176 25.0859 7.40223C24.9054 7.28685 24.7614 7.12172 24.6537 6.90675C24.5461 6.69177 24.4924 6.38502 24.4924 5.98651C24.4924 5.91315 24.5063 5.78201 24.534 5.59328C24.5618 5.40445 24.6277 5.21308 24.7319 5.01906C24.836 4.82513 24.9956 4.65208 25.2109 4.49998C25.4261 4.34797 25.7211 4.27187 26.096 4.27187C26.3529 4.27187 26.5871 4.31389 26.7989 4.39773C27.0106 4.48166 27.1929 4.61535 27.3456 4.79889C27.4983 4.98243 27.6163 5.21572 27.6996 5.49886C27.7829 5.7821 27.8246 6.12812 27.8246 6.53712ZM32.6459 6.53712H32.8542C32.8542 5.6352 32.6807 4.97978 32.3336 4.57079C31.9864 4.16179 31.5144 3.95729 30.9173 3.95729C30.5841 3.95729 30.3029 4.02026 30.0739 4.14612C29.8448 4.27188 29.6573 4.43445 29.5116 4.63366C29.3657 4.83288 29.2616 5.05314 29.1991 5.29437C29.1366 5.53559 29.1054 5.76633 29.1054 5.98651C29.1054 6.42694 29.1575 6.77825 29.2617 7.04044C29.3658 7.30262 29.5289 7.50712 29.7511 7.65393C29.9038 7.75873 30.0773 7.85314 30.2717 7.93717C30.4661 8.02101 30.6917 8.11013 30.9486 8.20445C31.1777 8.28848 31.4033 8.37232 31.6254 8.45615C31.8476 8.54009 32.0437 8.65282 32.2138 8.79434C32.3839 8.93596 32.5227 9.11686 32.6303 9.33712C32.7379 9.55729 32.7917 9.84572 32.7917 10.2022C32.7917 10.5483 32.7379 10.842 32.6303 11.0831C32.5236 11.3231 32.3832 11.5245 32.2191 11.6731C32.0524 11.8251 31.8667 11.9352 31.6619 12.0033C31.4571 12.0715 31.2575 12.1056 31.0631 12.1056C30.4314 12.1056 29.9472 11.8933 29.6105 11.4686C29.2738 11.0438 29.1054 10.3753 29.1054 9.46288H28.8972C28.8972 10.4802 29.0794 11.2247 29.4439 11.6967C29.8083 12.1686 30.3481 12.4045 31.0631 12.4045C31.2923 12.4045 31.5231 12.3651 31.7556 12.2865C31.9881 12.2078 32.1964 12.0794 32.3804 11.9011C32.5628 11.7253 32.716 11.4885 32.8282 11.209C32.9428 10.9258 33 10.5798 33 10.1708C33 9.78275 32.9497 9.46817 32.849 9.22694C32.7484 8.98581 32.6165 8.78651 32.4533 8.62921C32.2902 8.47192 32.1062 8.34871 31.9014 8.25959C31.6955 8.16993 31.4889 8.08339 31.2818 7.99995C31.0269 7.89894 30.7718 7.79933 30.5164 7.70114C30.2978 7.6172 30.0947 7.5176 29.9072 7.40223C29.7267 7.28685 29.5827 7.12172 29.4751 6.90675C29.3675 6.69177 29.3137 6.38502 29.3137 5.98651C29.3137 5.91315 29.3276 5.78201 29.3554 5.59328C29.3831 5.40445 29.4491 5.21308 29.5532 5.01906C29.6573 4.82513 29.817 4.65208 30.0322 4.49998C30.2474 4.34797 30.5424 4.27187 30.9174 4.27187C31.1743 4.27187 31.4085 4.31389 31.6203 4.39773C31.832 4.48166 32.0142 4.61535 32.1669 4.79889C32.3197 4.98243 32.4377 5.21572 32.521 5.49886C32.6043 5.7821 32.646 6.12812 32.646 6.53712H32.6459Z"/>
</mask>
<path d="M1.20825 11.9169V6.53712H5.65475V6.22244H1.20825V1.31458H5.93587V1H1V12.2314H5.9775V11.9169H1.20825ZM9.98669 4.14602L8.14356 7.81122L6.342 4.14612H6.07125L8.01856 8.04725L5.88375 12.2313H6.13369L8.14344 8.283L10.1636 12.2313H10.4239L8.27881 8.04706L10.2365 4.14593H9.98662L9.98669 4.14602ZM11.0488 15V9.96638H11.0696C11.1946 10.7004 11.4411 11.2903 11.809 11.7361C12.1769 12.1817 12.6455 12.4046 13.2148 12.4046C13.5827 12.4046 13.909 12.2919 14.1936 12.0664C14.4783 11.8409 14.716 11.5342 14.9069 11.1462C15.0978 10.7581 15.2436 10.3072 15.3443 9.79332C15.4449 9.27953 15.4953 8.73939 15.4953 8.1732C15.4953 7.5649 15.4432 7.0038 15.3391 6.49001C15.2349 5.97612 15.0839 5.5304 14.8861 5.15294C14.6882 4.77538 14.4487 4.48166 14.1676 4.27206C13.8864 4.06228 13.5688 3.95739 13.2148 3.95739C12.944 3.95739 12.6924 4.01772 12.4598 4.13828C12.2272 4.25894 12.0208 4.42926 11.8403 4.64953C11.6587 4.87148 11.5007 5.13406 11.3716 5.42815C11.2397 5.72706 11.1391 6.05477 11.0696 6.41136H11.0488V4.14602H10.8406V15H11.0488ZM13.2148 12.1056C12.5623 12.1056 12.0381 11.7674 11.6424 11.091C11.2467 10.4147 11.0488 9.44192 11.0488 8.17301C11.0488 7.64864 11.0974 7.15052 11.1946 6.67865C11.2918 6.20677 11.4324 5.79249 11.6163 5.43598C11.8003 5.07939 12.0277 4.79624 12.2984 4.58655C12.5691 4.37677 12.8746 4.27187 13.2148 4.27187C13.5619 4.27187 13.8656 4.37677 14.1259 4.58655C14.3862 4.79624 14.6015 5.08203 14.7716 5.44382C14.9416 5.80561 15.0701 6.21989 15.1569 6.68648C15.2436 7.15316 15.287 7.64864 15.287 8.17301C15.287 8.64498 15.2471 9.11431 15.1672 9.58089C15.0874 10.0476 14.9642 10.4671 14.7976 10.8394C14.631 11.2116 14.4176 11.5157 14.1572 11.7517C13.8968 11.9877 13.5827 12.1056 13.2148 12.1056ZM16.6407 12.2314V7.65393C16.6407 7.21349 16.6824 6.78344 16.7657 6.36406C16.849 5.94459 16.9774 5.57487 17.151 5.25509C17.3246 4.93522 17.5449 4.68351 17.8123 4.49998C18.0795 4.31644 18.3971 4.24044 18.7651 4.27187V3.95729C18.4457 3.94691 18.1663 3.99921 17.9268 4.11458C17.6873 4.22996 17.4808 4.38725 17.3072 4.58655C17.1336 4.78576 16.9948 5.01906 16.8907 5.28653C16.7866 5.55358 16.7094 5.84248 16.6616 6.1438H16.6407V4.14602H16.4325V12.2315L16.6407 12.2314ZM19.0254 8.25166H23.5031C23.517 7.69585 23.4806 7.16109 23.3937 6.64721C23.307 6.13332 23.1681 5.67711 22.9772 5.27869C22.7863 4.88018 22.5399 4.56031 22.2379 4.31908C21.9359 4.07786 21.5766 3.95729 21.1601 3.95729C20.8616 3.95729 20.57 4.0517 20.2854 4.24053C20.0008 4.42926 19.7508 4.70447 19.5356 5.06626C19.3204 5.42805 19.1469 5.87113 19.015 6.3956C18.8831 6.91987 18.8171 7.5176 18.8171 8.18878C18.8171 8.78651 18.8622 9.34496 18.9525 9.86404C19.0427 10.3831 19.1816 10.8341 19.369 11.2169C19.5565 11.5996 19.7978 11.8959 20.0928 12.1056C20.3878 12.3154 20.7436 12.415 21.1601 12.4045C21.771 12.4045 22.2848 12.1449 22.7013 11.6259C23.1178 11.1067 23.3642 10.3753 23.4406 9.43144H23.2324C23.1421 10.3229 22.9113 10.9914 22.5399 11.437C22.1684 11.8828 21.7016 12.1056 21.1392 12.1056C20.7574 12.1056 20.4346 12.006 20.1708 11.8068C19.9071 11.6076 19.6918 11.3348 19.5252 10.9888C19.3586 10.6427 19.2354 10.2363 19.1556 9.76963C19.0757 9.30304 19.0323 8.79699 19.0254 8.25166ZM23.2948 7.93707H19.0254C19.0462 7.37079 19.1156 6.86218 19.2336 6.41127C19.3517 5.96026 19.5061 5.57487 19.6971 5.25509C19.8879 4.93522 20.1101 4.69145 20.3635 4.52358C20.6169 4.35581 20.8894 4.27187 21.1809 4.27187C21.5281 4.27187 21.8334 4.36893 22.0973 4.56295C22.3611 4.75697 22.5815 5.0218 22.7586 5.35734C22.9356 5.69288 23.0692 6.08356 23.1594 6.52919C23.2497 6.97491 23.2948 7.44424 23.2948 7.93707ZM27.8246 6.53712H28.0329C28.0329 5.6352 27.8593 4.97978 27.5123 4.57079C27.1651 4.16179 26.693 3.95729 26.096 3.95729C25.7628 3.95729 25.4816 4.02026 25.2525 4.14612C25.0234 4.27188 24.836 4.43445 24.6902 4.63366C24.5444 4.83288 24.4403 5.05314 24.3778 5.29437C24.3153 5.53559 24.2841 5.76633 24.2841 5.98651C24.2841 6.42694 24.3361 6.77825 24.4403 7.04044C24.5444 7.30262 24.7076 7.50712 24.9297 7.65393C25.0824 7.75873 25.2559 7.85314 25.4504 7.93717C25.6447 8.02101 25.8704 8.11013 26.1273 8.20445C26.3563 8.28848 26.5819 8.37232 26.8041 8.45615C27.0262 8.54009 27.2224 8.65282 27.3924 8.79434C27.5626 8.93596 27.7014 9.11686 27.809 9.33712C27.9166 9.55729 27.9704 9.84572 27.9704 10.2022C27.9704 10.5483 27.9166 10.842 27.809 11.0831C27.7023 11.3231 27.5618 11.5245 27.3977 11.6731C27.2311 11.8251 27.0453 11.9352 26.8406 12.0033C26.6358 12.0715 26.4362 12.1056 26.2418 12.1056C25.6101 12.1056 25.1258 11.8933 24.7891 11.4686C24.4524 11.0438 24.2841 10.3753 24.2841 9.46288H24.0758C24.0758 10.4802 24.2581 11.2247 24.6225 11.6967C24.987 12.1686 25.5267 12.4045 26.2418 12.4045C26.4709 12.4045 26.7017 12.3651 26.9343 12.2865C27.1668 12.2078 27.3751 12.0794 27.5591 11.9011C27.7414 11.7253 27.8946 11.4885 28.0068 11.209C28.1214 10.9258 28.1787 10.5798 28.1787 10.1708C28.1787 9.78275 28.1283 9.46817 28.0277 9.22694C27.927 8.98581 27.7951 8.78651 27.6319 8.62921C27.4688 8.47192 27.2849 8.34871 27.0801 8.25959C26.8741 8.16993 26.6675 8.08339 26.4604 7.99995C26.2056 7.89894 25.9504 7.79933 25.6951 7.70114C25.4764 7.6172 25.2734 7.5176 25.0859 7.40223C24.9054 7.28685 24.7614 7.12172 24.6537 6.90675C24.5461 6.69177 24.4924 6.38502 24.4924 5.98651C24.4924 5.91315 24.5063 5.78201 24.534 5.59328C24.5618 5.40445 24.6277 5.21308 24.7319 5.01906C24.836 4.82513 24.9956 4.65208 25.2109 4.49998C25.4261 4.34797 25.7211 4.27187 26.096 4.27187C26.3529 4.27187 26.5871 4.31389 26.7989 4.39773C27.0106 4.48166 27.1929 4.61535 27.3456 4.79889C27.4983 4.98243 27.6163 5.21572 27.6996 5.49886C27.7829 5.7821 27.8246 6.12812 27.8246 6.53712ZM32.6459 6.53712H32.8542C32.8542 5.6352 32.6807 4.97978 32.3336 4.57079C31.9864 4.16179 31.5144 3.95729 30.9173 3.95729C30.5841 3.95729 30.3029 4.02026 30.0739 4.14612C29.8448 4.27188 29.6573 4.43445 29.5116 4.63366C29.3657 4.83288 29.2616 5.05314 29.1991 5.29437C29.1366 5.53559 29.1054 5.76633 29.1054 5.98651C29.1054 6.42694 29.1575 6.77825 29.2617 7.04044C29.3658 7.30262 29.5289 7.50712 29.7511 7.65393C29.9038 7.75873 30.0773 7.85314 30.2717 7.93717C30.4661 8.02101 30.6917 8.11013 30.9486 8.20445C31.1777 8.28848 31.4033 8.37232 31.6254 8.45615C31.8476 8.54009 32.0437 8.65282 32.2138 8.79434C32.3839 8.93596 32.5227 9.11686 32.6303 9.33712C32.7379 9.55729 32.7917 9.84572 32.7917 10.2022C32.7917 10.5483 32.7379 10.842 32.6303 11.0831C32.5236 11.3231 32.3832 11.5245 32.2191 11.6731C32.0524 11.8251 31.8667 11.9352 31.6619 12.0033C31.4571 12.0715 31.2575 12.1056 31.0631 12.1056C30.4314 12.1056 29.9472 11.8933 29.6105 11.4686C29.2738 11.0438 29.1054 10.3753 29.1054 9.46288H28.8972C28.8972 10.4802 29.0794 11.2247 29.4439 11.6967C29.8083 12.1686 30.3481 12.4045 31.0631 12.4045C31.2923 12.4045 31.5231 12.3651 31.7556 12.2865C31.9881 12.2078 32.1964 12.0794 32.3804 11.9011C32.5628 11.7253 32.716 11.4885 32.8282 11.209C32.9428 10.9258 33 10.5798 33 10.1708C33 9.78275 32.9497 9.46817 32.849 9.22694C32.7484 8.98581 32.6165 8.78651 32.4533 8.62921C32.2902 8.47192 32.1062 8.34871 31.9014 8.25959C31.6955 8.16993 31.4889 8.08339 31.2818 7.99995C31.0269 7.89894 30.7718 7.79933 30.5164 7.70114C30.2978 7.6172 30.0947 7.5176 29.9072 7.40223C29.7267 7.28685 29.5827 7.12172 29.4751 6.90675C29.3675 6.69177 29.3137 6.38502 29.3137 5.98651C29.3137 5.91315 29.3276 5.78201 29.3554 5.59328C29.3831 5.40445 29.4491 5.21308 29.5532 5.01906C29.6573 4.82513 29.817 4.65208 30.0322 4.49998C30.2474 4.34797 30.5424 4.27187 30.9174 4.27187C31.1743 4.27187 31.4085 4.31389 31.6203 4.39773C31.832 4.48166 32.0142 4.61535 32.1669 4.79889C32.3197 4.98243 32.4377 5.21572 32.521 5.49886C32.6043 5.7821 32.646 6.12812 32.646 6.53712H32.6459Z" fill="white"/>
<path d="M1.20825 11.9169V6.53712H5.65475V6.22244H1.20825V1.31458H5.93587V1H1V12.2314H5.9775V11.9169H1.20825ZM9.98669 4.14602L8.14356 7.81122L6.342 4.14612H6.07125L8.01856 8.04725L5.88375 12.2313H6.13369L8.14344 8.283L10.1636 12.2313H10.4239L8.27881 8.04706L10.2365 4.14593H9.98662L9.98669 4.14602ZM11.0488 15V9.96638H11.0696C11.1946 10.7004 11.4411 11.2903 11.809 11.7361C12.1769 12.1817 12.6455 12.4046 13.2148 12.4046C13.5827 12.4046 13.909 12.2919 14.1936 12.0664C14.4783 11.8409 14.716 11.5342 14.9069 11.1462C15.0978 10.7581 15.2436 10.3072 15.3443 9.79332C15.4449 9.27953 15.4953 8.73939 15.4953 8.1732C15.4953 7.5649 15.4432 7.0038 15.3391 6.49001C15.2349 5.97612 15.0839 5.5304 14.8861 5.15294C14.6882 4.77538 14.4487 4.48166 14.1676 4.27206C13.8864 4.06228 13.5688 3.95739 13.2148 3.95739C12.944 3.95739 12.6924 4.01772 12.4598 4.13828C12.2272 4.25894 12.0208 4.42926 11.8403 4.64953C11.6587 4.87148 11.5007 5.13406 11.3716 5.42815C11.2397 5.72706 11.1391 6.05477 11.0696 6.41136H11.0488V4.14602H10.8406V15H11.0488ZM13.2148 12.1056C12.5623 12.1056 12.0381 11.7674 11.6424 11.091C11.2467 10.4147 11.0488 9.44192 11.0488 8.17301C11.0488 7.64864 11.0974 7.15052 11.1946 6.67865C11.2918 6.20677 11.4324 5.79249 11.6163 5.43598C11.8003 5.07939 12.0277 4.79624 12.2984 4.58655C12.5691 4.37677 12.8746 4.27187 13.2148 4.27187C13.5619 4.27187 13.8656 4.37677 14.1259 4.58655C14.3862 4.79624 14.6015 5.08203 14.7716 5.44382C14.9416 5.80561 15.0701 6.21989 15.1569 6.68648C15.2436 7.15316 15.287 7.64864 15.287 8.17301C15.287 8.64498 15.2471 9.11431 15.1672 9.58089C15.0874 10.0476 14.9642 10.4671 14.7976 10.8394C14.631 11.2116 14.4176 11.5157 14.1572 11.7517C13.8968 11.9877 13.5827 12.1056 13.2148 12.1056ZM16.6407 12.2314V7.65393C16.6407 7.21349 16.6824 6.78344 16.7657 6.36406C16.849 5.94459 16.9774 5.57487 17.151 5.25509C17.3246 4.93522 17.5449 4.68351 17.8123 4.49998C18.0795 4.31644 18.3971 4.24044 18.7651 4.27187V3.95729C18.4457 3.94691 18.1663 3.99921 17.9268 4.11458C17.6873 4.22996 17.4808 4.38725 17.3072 4.58655C17.1336 4.78576 16.9948 5.01906 16.8907 5.28653C16.7866 5.55358 16.7094 5.84248 16.6616 6.1438H16.6407V4.14602H16.4325V12.2315L16.6407 12.2314ZM19.0254 8.25166H23.5031C23.517 7.69585 23.4806 7.16109 23.3937 6.64721C23.307 6.13332 23.1681 5.67711 22.9772 5.27869C22.7863 4.88018 22.5399 4.56031 22.2379 4.31908C21.9359 4.07786 21.5766 3.95729 21.1601 3.95729C20.8616 3.95729 20.57 4.0517 20.2854 4.24053C20.0008 4.42926 19.7508 4.70447 19.5356 5.06626C19.3204 5.42805 19.1469 5.87113 19.015 6.3956C18.8831 6.91987 18.8171 7.5176 18.8171 8.18878C18.8171 8.78651 18.8622 9.34496 18.9525 9.86404C19.0427 10.3831 19.1816 10.8341 19.369 11.2169C19.5565 11.5996 19.7978 11.8959 20.0928 12.1056C20.3878 12.3154 20.7436 12.415 21.1601 12.4045C21.771 12.4045 22.2848 12.1449 22.7013 11.6259C23.1178 11.1067 23.3642 10.3753 23.4406 9.43144H23.2324C23.1421 10.3229 22.9113 10.9914 22.5399 11.437C22.1684 11.8828 21.7016 12.1056 21.1392 12.1056C20.7574 12.1056 20.4346 12.006 20.1708 11.8068C19.9071 11.6076 19.6918 11.3348 19.5252 10.9888C19.3586 10.6427 19.2354 10.2363 19.1556 9.76963C19.0757 9.30304 19.0323 8.79699 19.0254 8.25166ZM23.2948 7.93707H19.0254C19.0462 7.37079 19.1156 6.86218 19.2336 6.41127C19.3517 5.96026 19.5061 5.57487 19.6971 5.25509C19.8879 4.93522 20.1101 4.69145 20.3635 4.52358C20.6169 4.35581 20.8894 4.27187 21.1809 4.27187C21.5281 4.27187 21.8334 4.36893 22.0973 4.56295C22.3611 4.75697 22.5815 5.0218 22.7586 5.35734C22.9356 5.69288 23.0692 6.08356 23.1594 6.52919C23.2497 6.97491 23.2948 7.44424 23.2948 7.93707ZM27.8246 6.53712H28.0329C28.0329 5.6352 27.8593 4.97978 27.5123 4.57079C27.1651 4.16179 26.693 3.95729 26.096 3.95729C25.7628 3.95729 25.4816 4.02026 25.2525 4.14612C25.0234 4.27188 24.836 4.43445 24.6902 4.63366C24.5444 4.83288 24.4403 5.05314 24.3778 5.29437C24.3153 5.53559 24.2841 5.76633 24.2841 5.98651C24.2841 6.42694 24.3361 6.77825 24.4403 7.04044C24.5444 7.30262 24.7076 7.50712 24.9297 7.65393C25.0824 7.75873 25.2559 7.85314 25.4504 7.93717C25.6447 8.02101 25.8704 8.11013 26.1273 8.20445C26.3563 8.28848 26.5819 8.37232 26.8041 8.45615C27.0262 8.54009 27.2224 8.65282 27.3924 8.79434C27.5626 8.93596 27.7014 9.11686 27.809 9.33712C27.9166 9.55729 27.9704 9.84572 27.9704 10.2022C27.9704 10.5483 27.9166 10.842 27.809 11.0831C27.7023 11.3231 27.5618 11.5245 27.3977 11.6731C27.2311 11.8251 27.0453 11.9352 26.8406 12.0033C26.6358 12.0715 26.4362 12.1056 26.2418 12.1056C25.6101 12.1056 25.1258 11.8933 24.7891 11.4686C24.4524 11.0438 24.2841 10.3753 24.2841 9.46288H24.0758C24.0758 10.4802 24.2581 11.2247 24.6225 11.6967C24.987 12.1686 25.5267 12.4045 26.2418 12.4045C26.4709 12.4045 26.7017 12.3651 26.9343 12.2865C27.1668 12.2078 27.3751 12.0794 27.5591 11.9011C27.7414 11.7253 27.8946 11.4885 28.0068 11.209C28.1214 10.9258 28.1787 10.5798 28.1787 10.1708C28.1787 9.78275 28.1283 9.46817 28.0277 9.22694C27.927 8.98581 27.7951 8.78651 27.6319 8.62921C27.4688 8.47192 27.2849 8.34871 27.0801 8.25959C26.8741 8.16993 26.6675 8.08339 26.4604 7.99995C26.2056 7.89894 25.9504 7.79933 25.6951 7.70114C25.4764 7.6172 25.2734 7.5176 25.0859 7.40223C24.9054 7.28685 24.7614 7.12172 24.6537 6.90675C24.5461 6.69177 24.4924 6.38502 24.4924 5.98651C24.4924 5.91315 24.5063 5.78201 24.534 5.59328C24.5618 5.40445 24.6277 5.21308 24.7319 5.01906C24.836 4.82513 24.9956 4.65208 25.2109 4.49998C25.4261 4.34797 25.7211 4.27187 26.096 4.27187C26.3529 4.27187 26.5871 4.31389 26.7989 4.39773C27.0106 4.48166 27.1929 4.61535 27.3456 4.79889C27.4983 4.98243 27.6163 5.21572 27.6996 5.49886C27.7829 5.7821 27.8246 6.12812 27.8246 6.53712ZM32.6459 6.53712H32.8542C32.8542 5.6352 32.6807 4.97978 32.3336 4.57079C31.9864 4.16179 31.5144 3.95729 30.9173 3.95729C30.5841 3.95729 30.3029 4.02026 30.0739 4.14612C29.8448 4.27188 29.6573 4.43445 29.5116 4.63366C29.3657 4.83288 29.2616 5.05314 29.1991 5.29437C29.1366 5.53559 29.1054 5.76633 29.1054 5.98651C29.1054 6.42694 29.1575 6.77825 29.2617 7.04044C29.3658 7.30262 29.5289 7.50712 29.7511 7.65393C29.9038 7.75873 30.0773 7.85314 30.2717 7.93717C30.4661 8.02101 30.6917 8.11013 30.9486 8.20445C31.1777 8.28848 31.4033 8.37232 31.6254 8.45615C31.8476 8.54009 32.0437 8.65282 32.2138 8.79434C32.3839 8.93596 32.5227 9.11686 32.6303 9.33712C32.7379 9.55729 32.7917 9.84572 32.7917 10.2022C32.7917 10.5483 32.7379 10.842 32.6303 11.0831C32.5236 11.3231 32.3832 11.5245 32.2191 11.6731C32.0524 11.8251 31.8667 11.9352 31.6619 12.0033C31.4571 12.0715 31.2575 12.1056 31.0631 12.1056C30.4314 12.1056 29.9472 11.8933 29.6105 11.4686C29.2738 11.0438 29.1054 10.3753 29.1054 9.46288H28.8972C28.8972 10.4802 29.0794 11.2247 29.4439 11.6967C29.8083 12.1686 30.3481 12.4045 31.0631 12.4045C31.2923 12.4045 31.5231 12.3651 31.7556 12.2865C31.9881 12.2078 32.1964 12.0794 32.3804 11.9011C32.5628 11.7253 32.716 11.4885 32.8282 11.209C32.9428 10.9258 33 10.5798 33 10.1708C33 9.78275 32.9497 9.46817 32.849 9.22694C32.7484 8.98581 32.6165 8.78651 32.4533 8.62921C32.2902 8.47192 32.1062 8.34871 31.9014 8.25959C31.6955 8.16993 31.4889 8.08339 31.2818 7.99995C31.0269 7.89894 30.7718 7.79933 30.5164 7.70114C30.2978 7.6172 30.0947 7.5176 29.9072 7.40223C29.7267 7.28685 29.5827 7.12172 29.4751 6.90675C29.3675 6.69177 29.3137 6.38502 29.3137 5.98651C29.3137 5.91315 29.3276 5.78201 29.3554 5.59328C29.3831 5.40445 29.4491 5.21308 29.5532 5.01906C29.6573 4.82513 29.817 4.65208 30.0322 4.49998C30.2474 4.34797 30.5424 4.27187 30.9174 4.27187C31.1743 4.27187 31.4085 4.31389 31.6203 4.39773C31.832 4.48166 32.0142 4.61535 32.1669 4.79889C32.3197 4.98243 32.4377 5.21572 32.521 5.49886C32.6043 5.7821 32.646 6.12812 32.646 6.53712H32.6459Z" stroke="white" stroke-width="0.8" mask="url(#path-1-outside-1_73_65)"/>
</svg>
