<svg width="32" height="14" viewBox="0 0 32 14" fill="none" xmlns="http://www.w3.org/2000/svg">
<path d="M0.20825 10.9169V5.53712H4.65475V5.22244H0.20825V0.314583H4.93587V0H0V11.2314H4.9775V10.9169H0.20825ZM8.98669 3.14602L7.14356 6.81122L5.342 3.14612H5.07125L7.01856 7.04725L4.88375 11.2313H5.13369L7.14344 7.283L9.16362 11.2313H9.42394L7.27881 7.04706L9.2365 3.14593H8.98662L8.98669 3.14602ZM10.0488 14V8.96638H10.0696C10.1946 9.70044 10.4411 10.2903 10.809 10.7361C11.1769 11.1817 11.6455 11.4046 12.2148 11.4046C12.5827 11.4046 12.909 11.2919 13.1936 11.0664C13.4783 10.8409 13.716 10.5342 13.9069 10.1462C14.0978 9.75813 14.2436 9.30721 14.3443 8.79332C14.4449 8.27953 14.4953 7.73939 14.4953 7.1732C14.4953 6.5649 14.4432 6.0038 14.3391 5.49001C14.2349 4.97612 14.0839 4.5304 13.8861 4.15293C13.6882 3.77538 13.4487 3.48166 13.1676 3.27206C12.8864 3.06228 12.5688 2.95739 12.2148 2.95739C11.944 2.95739 11.6924 3.01772 11.4598 3.13828C11.2272 3.25894 11.0208 3.42926 10.8403 3.64953C10.6587 3.87148 10.5007 4.13406 10.3716 4.42815C10.2397 4.72706 10.1391 5.05477 10.0696 5.41136H10.0488V3.14602H9.84056V14H10.0488ZM12.2148 11.1056C11.5623 11.1056 11.0381 10.7674 10.6424 10.091C10.2467 9.41465 10.0488 8.44192 10.0488 7.17301C10.0488 6.64864 10.0974 6.15052 10.1946 5.67865C10.2918 5.20677 10.4324 4.79249 10.6163 4.43598C10.8003 4.07939 11.0277 3.79624 11.2984 3.58655C11.5691 3.37677 11.8746 3.27187 12.2148 3.27187C12.5619 3.27187 12.8656 3.37677 13.1259 3.58655C13.3862 3.79624 13.6015 4.08203 13.7716 4.44382C13.9416 4.80561 14.0701 5.21989 14.1569 5.68648C14.2436 6.15316 14.287 6.64864 14.287 7.17301C14.287 7.64498 14.2471 8.11431 14.1672 8.58089C14.0874 9.04758 13.9642 9.46705 13.7976 9.83942C13.631 10.2116 13.4176 10.5157 13.1572 10.7517C12.8968 10.9877 12.5827 11.1056 12.2148 11.1056ZM15.6407 11.2314V6.65393C15.6407 6.21349 15.6824 5.78344 15.7657 5.36406C15.849 4.94459 15.9774 4.57487 16.151 4.25509C16.3246 3.93522 16.5449 3.68351 16.8123 3.49998C17.0795 3.31644 17.3971 3.24044 17.7651 3.27187V2.95729C17.4457 2.94691 17.1663 2.99921 16.9268 3.11458C16.6873 3.22996 16.4808 3.38725 16.3072 3.58655C16.1336 3.78576 15.9948 4.01906 15.8907 4.28653C15.7866 4.55358 15.7094 4.84248 15.6616 5.1438H15.6407V3.14602H15.4325V11.2315L15.6407 11.2314ZM18.0254 7.25166H22.5031C22.517 6.69585 22.4806 6.16109 22.3937 5.64721C22.307 5.13332 22.1681 4.67711 21.9772 4.27869C21.7863 3.88018 21.5399 3.56031 21.2379 3.31908C20.9359 3.07786 20.5766 2.95729 20.1601 2.95729C19.8616 2.95729 19.57 3.0517 19.2854 3.24053C19.0008 3.42926 18.7508 3.70447 18.5356 4.06626C18.3204 4.42805 18.1469 4.87113 18.015 5.3956C17.8831 5.91987 17.8171 6.5176 17.8171 7.18878C17.8171 7.78651 17.8622 8.34496 17.9525 8.86404C18.0427 9.38312 18.1816 9.83413 18.369 10.2169C18.5565 10.5996 18.7978 10.8959 19.0928 11.1056C19.3878 11.3154 19.7436 11.415 20.1601 11.4045C20.771 11.4045 21.2848 11.1449 21.7013 10.6259C22.1178 10.1067 22.3642 9.37528 22.4406 8.43144H22.2324C22.1421 9.32288 21.9113 9.99142 21.5399 10.437C21.1684 10.8828 20.7016 11.1056 20.1392 11.1056C19.7574 11.1056 19.4346 11.006 19.1708 10.8068C18.9071 10.6076 18.6918 10.3348 18.5252 9.98878C18.3586 9.64266 18.2354 9.23631 18.1556 8.76963C18.0757 8.30304 18.0323 7.79699 18.0254 7.25166ZM22.2948 6.93707H18.0254C18.0462 6.37079 18.1156 5.86218 18.2336 5.41127C18.3517 4.96026 18.5061 4.57487 18.6971 4.25509C18.8879 3.93522 19.1101 3.69145 19.3635 3.52358C19.6169 3.35581 19.8894 3.27187 20.1809 3.27187C20.5281 3.27187 20.8334 3.36893 21.0973 3.56295C21.3611 3.75697 21.5815 4.0218 21.7586 4.35734C21.9356 4.69288 22.0692 5.08356 22.1594 5.52919C22.2497 5.97491 22.2948 6.44424 22.2948 6.93707ZM26.8246 5.53712H27.0329C27.0329 4.6352 26.8593 3.97978 26.5123 3.57079C26.1651 3.16179 25.693 2.95729 25.096 2.95729C24.7628 2.95729 24.4816 3.02027 24.2525 3.14612C24.0234 3.27188 23.836 3.43445 23.6902 3.63366C23.5444 3.83288 23.4403 4.05314 23.3778 4.29437C23.3153 4.53559 23.2841 4.76634 23.2841 4.98651C23.2841 5.42694 23.3361 5.77825 23.4403 6.04044C23.5444 6.30262 23.7076 6.50712 23.9297 6.65393C24.0824 6.75873 24.2559 6.85314 24.4504 6.93717C24.6447 7.02101 24.8704 7.11013 25.1273 7.20445C25.3563 7.28848 25.5819 7.37232 25.8041 7.45615C26.0262 7.54009 26.2224 7.65282 26.3924 7.79434C26.5626 7.93596 26.7014 8.11686 26.809 8.33712C26.9166 8.55729 26.9704 8.84572 26.9704 9.20223C26.9704 9.54834 26.9166 9.84197 26.809 10.0831C26.7023 10.3231 26.5618 10.5245 26.3977 10.6731C26.2311 10.8251 26.0453 10.9352 25.8406 11.0033C25.6358 11.0715 25.4362 11.1056 25.2418 11.1056C24.6101 11.1056 24.1258 10.8933 23.7891 10.4686C23.4524 10.0438 23.2841 9.37528 23.2841 8.46288H23.0758C23.0758 9.48018 23.2581 10.2247 23.6225 10.6967C23.987 11.1686 24.5267 11.4045 25.2418 11.4045C25.4709 11.4045 25.7017 11.3651 25.9343 11.2865C26.1668 11.2078 26.3751 11.0794 26.5591 10.9011C26.7414 10.7253 26.8946 10.4885 27.0068 10.209C27.1214 9.9258 27.1787 9.57978 27.1787 9.17079C27.1787 8.78275 27.1283 8.46817 27.0277 8.22694C26.927 7.98581 26.7951 7.78651 26.6319 7.62921C26.4688 7.47192 26.2849 7.34871 26.0801 7.25959C25.8741 7.16993 25.6675 7.08339 25.4604 6.99995C25.2056 6.89894 24.9504 6.79933 24.6951 6.70114C24.4764 6.6172 24.2734 6.5176 24.0859 6.40222C23.9054 6.28685 23.7614 6.12172 23.6537 5.90675C23.5461 5.69177 23.4924 5.38502 23.4924 4.98651C23.4924 4.91315 23.5063 4.78201 23.534 4.59328C23.5618 4.40445 23.6277 4.21308 23.7319 4.01906C23.836 3.82513 23.9956 3.65208 24.2109 3.49998C24.4261 3.34797 24.7211 3.27187 25.096 3.27187C25.3529 3.27187 25.5871 3.31389 25.7989 3.39773C26.0106 3.48166 26.1929 3.61535 26.3456 3.79889C26.4983 3.98243 26.6163 4.21572 26.6996 4.49886C26.7829 4.7821 26.8246 5.12812 26.8246 5.53712ZM31.6459 5.53712H31.8542C31.8542 4.6352 31.6807 3.97978 31.3336 3.57079C30.9864 3.16179 30.5144 2.95729 29.9173 2.95729C29.5841 2.95729 29.3029 3.02027 29.0739 3.14612C28.8448 3.27188 28.6573 3.43445 28.5116 3.63366C28.3657 3.83288 28.2616 4.05314 28.1991 4.29437C28.1366 4.53559 28.1054 4.76634 28.1054 4.98651C28.1054 5.42694 28.1575 5.77825 28.2617 6.04044C28.3658 6.30262 28.5289 6.50712 28.7511 6.65393C28.9038 6.75873 29.0773 6.85314 29.2717 6.93717C29.4661 7.02101 29.6917 7.11013 29.9486 7.20445C30.1777 7.28848 30.4033 7.37232 30.6254 7.45615C30.8476 7.54009 31.0437 7.65282 31.2138 7.79434C31.3839 7.93596 31.5227 8.11686 31.6303 8.33712C31.7379 8.55729 31.7917 8.84572 31.7917 9.20223C31.7917 9.54834 31.7379 9.84197 31.6303 10.0831C31.5236 10.3231 31.3832 10.5245 31.2191 10.6731C31.0524 10.8251 30.8667 10.9352 30.6619 11.0033C30.4571 11.0715 30.2575 11.1056 30.0631 11.1056C29.4314 11.1056 28.9472 10.8933 28.6105 10.4686C28.2738 10.0438 28.1054 9.37528 28.1054 8.46288H27.8972C27.8972 9.48018 28.0794 10.2247 28.4439 10.6967C28.8083 11.1686 29.3481 11.4045 30.0631 11.4045C30.2923 11.4045 30.5231 11.3651 30.7556 11.2865C30.9881 11.2078 31.1964 11.0794 31.3804 10.9011C31.5628 10.7253 31.716 10.4885 31.8282 10.209C31.9428 9.9258 32 9.57978 32 9.17079C32 8.78275 31.9497 8.46817 31.849 8.22694C31.7484 7.98581 31.6165 7.78651 31.4533 7.62921C31.2902 7.47192 31.1062 7.34871 30.9014 7.25959C30.6955 7.16993 30.4889 7.08339 30.2818 6.99995C30.0269 6.89894 29.7718 6.79933 29.5164 6.70114C29.2978 6.6172 29.0947 6.5176 28.9072 6.40222C28.7267 6.28685 28.5827 6.12172 28.4751 5.90675C28.3675 5.69177 28.3137 5.38502 28.3137 4.98651C28.3137 4.91315 28.3276 4.78201 28.3554 4.59328C28.3831 4.40445 28.4491 4.21308 28.5532 4.01906C28.6573 3.82513 28.817 3.65208 29.0322 3.49998C29.2474 3.34797 29.5424 3.27187 29.9174 3.27187C30.1743 3.27187 30.4085 3.31389 30.6203 3.39773C30.832 3.48166 31.0142 3.61535 31.1669 3.79889C31.3197 3.98243 31.4377 4.21572 31.521 4.49886C31.6043 4.7821 31.646 5.12812 31.646 5.53712H31.6459Z" fill="white"/>
</svg>
