<svg width="25" height="25" viewBox="0 0 25 25" fill="none" xmlns="http://www.w3.org/2000/svg">
<path d="M12.5 0C10.8585 0 9.23303 0.331349 7.71646 0.975129C6.19989 1.61891 4.8219 2.56251 3.66117 3.75206C1.31696 6.15447 0 9.41282 0 12.8103C0 18.4725 3.5875 23.2764 8.55 24.9802C9.175 25.0826 9.375 24.6855 9.375 24.3396V22.1747C5.9125 22.9433 5.175 20.4581 5.175 20.4581C4.6 18.9721 3.7875 18.575 3.7875 18.575C2.65 17.7807 3.875 17.8064 3.875 17.8064C5.125 17.896 5.7875 19.1258 5.7875 19.1258C6.875 21.073 8.7125 20.4965 9.425 20.1891C9.5375 19.3564 9.8625 18.7928 10.2125 18.4725C7.4375 18.1522 4.525 17.0506 4.525 12.1698C4.525 10.7479 5 9.60775 5.8125 8.69822C5.6875 8.37796 5.25 7.04569 5.9375 5.31629C5.9375 5.31629 6.9875 4.97041 9.375 6.62294C10.3625 6.34112 11.4375 6.2002 12.5 6.2002C13.5625 6.2002 14.6375 6.34112 15.625 6.62294C18.0125 4.97041 19.0625 5.31629 19.0625 5.31629C19.75 7.04569 19.3125 8.37796 19.1875 8.69822C20 9.60775 20.475 10.7479 20.475 12.1698C20.475 17.0634 17.55 18.1394 14.7625 18.4597C15.2125 18.8568 15.625 19.6382 15.625 20.8296V24.3396C15.625 24.6855 15.825 25.0955 16.4625 24.9802C21.425 23.2636 25 18.4725 25 12.8103C25 11.1281 24.6767 9.46225 24.0485 7.90803C23.4203 6.35381 22.4996 4.94161 21.3388 3.75206C20.1781 2.56251 18.8001 1.61891 17.2835 0.975129C15.767 0.331349 14.1415 0 12.5 0Z" fill="white"/>
</svg>
