<svg width="32" height="32" viewBox="0 0 32 32" fill="none" xmlns="http://www.w3.org/2000/svg">
<path d="M24.5 0H7.5C3.35786 0 0 3.35786 0 7.5V24.5C0 28.6421 3.35786 32 7.5 32H24.5C28.6421 32 32 28.6421 32 24.5V7.5C32 3.35786 28.6421 0 24.5 0Z" fill="#E14E1D"/>
<path d="M6 4.75L7.07625 16.8241H20.915L20.4506 22.0029L15.9949 23.2076L11.5475 22.0046L11.2501 18.6794H7.2425L7.81563 25.0895L15.994 27.361L24.1828 25.0895L25.2806 12.8319H10.728L10.3626 8.74312H25.6424L26 4.75H6Z" fill="white"/>
<path d="M16 4.75H6L7.07625 16.8241H16V12.8319H10.728L10.3626 8.74312H16V4.75ZM16 23.2059L15.9949 23.2076L11.5475 22.0046L11.2501 18.6794H7.2425L7.81563 25.0895L15.994 27.361L16.0001 27.3592V23.2059H16Z" fill="#EBEBEB"/>
</svg>
