<svg width="32" height="32" viewBox="0 0 32 32" fill="none" xmlns="http://www.w3.org/2000/svg">
<path d="M0 0H32V32H0V0Z" fill="#F7DF1E"/>
<path d="M8.414 26.7414L10.8628 25.2594C11.3353 26.097 11.765 26.8058 12.7959 26.8058C13.784 26.8058 14.4071 26.4193 14.4071 24.9158V14.691H17.4143V24.9583C17.4143 28.0729 15.5885 29.4907 12.9248 29.4907C10.5191 29.4907 9.12275 28.2448 8.41388 26.7412M19.0476 26.4192L21.4961 25.0015C22.1408 26.0542 22.9785 26.8274 24.4605 26.8274C25.7066 26.8274 26.5011 26.2044 26.5011 25.3452C26.5011 24.3142 25.6849 23.9489 24.3101 23.3477L23.5585 23.0252C21.3889 22.1018 19.9498 20.9418 19.9498 18.493C19.9498 16.2375 21.6681 14.519 24.3533 14.519C26.265 14.519 27.6398 15.185 28.6278 16.9249L26.2863 18.4287C25.7706 17.505 25.2124 17.1399 24.3531 17.1399C23.4724 17.1399 22.9139 17.6984 22.9139 18.4287C22.9139 19.3308 23.4724 19.6962 24.7611 20.2547L25.5129 20.5768C28.0691 21.6724 29.5083 22.7893 29.5083 25.3023C29.5083 28.009 27.3818 29.491 24.5249 29.491C21.7325 29.491 19.9281 28.1593 19.0475 26.4193" fill="black"/>
</svg>
