<svg width="32" height="32" viewBox="0 0 32 32" fill="none" xmlns="http://www.w3.org/2000/svg">
<path d="M26.9714 21.85C27.1066 21.7602 27.219 21.6308 27.2973 21.4749C27.3756 21.3189 27.4171 21.1419 27.4176 20.9616L27.4336 15.0109C27.4341 14.8305 27.4756 14.6535 27.5539 14.4975C27.6322 14.3416 27.7447 14.2122 27.8799 14.1224L30.6684 12.2695C30.8035 12.1797 30.9567 12.1325 31.1126 12.1328C31.2684 12.1331 31.4215 12.1808 31.5563 12.2711C31.6912 12.3614 31.8032 12.4912 31.8811 12.6473C31.959 12.8035 32 12.9806 32 13.1609V23.9795C32 24.1604 31.9587 24.3381 31.8804 24.4946C31.802 24.6512 31.6894 24.781 31.5537 24.8711L21.03 31.8634C20.8956 31.9527 20.7433 31.9998 20.5882 32C20.4332 32.0002 20.2808 31.9534 20.1462 31.8644L11.8875 26.4001C11.7514 26.3102 11.6383 26.1803 11.5596 26.0236C11.4809 25.8669 11.4394 25.6889 11.4394 25.5076V20.0525C11.4394 20.0464 11.4456 20.0424 11.451 20.0453C11.4554 20.0484 11.4616 20.0453 11.4616 20.038V20.0319C11.4616 20.0279 11.4634 20.0237 11.467 20.0217L18.269 15.5014C18.2752 15.4972 18.2725 15.4859 18.2654 15.4859C18.2635 15.4859 18.2617 15.485 18.2603 15.4835C18.259 15.482 18.2582 15.4799 18.2582 15.4777L18.2716 10.1296C18.2723 9.9487 18.2317 9.77084 18.1539 9.61394C18.0761 9.45704 17.964 9.32664 17.8287 9.2359C17.6935 9.14516 17.5399 9.09729 17.3836 9.09712C17.2273 9.09694 17.0736 9.14448 16.9382 9.23492L11.883 12.6048C11.7481 12.6947 11.5951 12.742 11.4394 12.742C11.2838 12.742 11.1308 12.6947 10.9959 12.6048L5.92463 9.22697C5.78952 9.13696 5.63633 9.08963 5.48042 9.08975C5.32452 9.08987 5.17138 9.13742 5.03638 9.22763C4.90138 9.31785 4.78926 9.44755 4.71129 9.60373C4.63331 9.7599 4.59221 9.93705 4.59213 10.1174V19.7832C4.59224 19.9634 4.55144 20.1404 4.4738 20.2966C4.39616 20.4528 4.28442 20.5826 4.14975 20.6731C4.01509 20.7636 3.86224 20.8116 3.7065 20.8122C3.55076 20.8129 3.39761 20.7662 3.26238 20.6769L0.448001 18.8153C0.311721 18.7252 0.198481 18.5951 0.119792 18.438C0.0411041 18.2809 -0.000226885 18.1025 9.3676e-07 17.921L0.0250009 1.02606C0.0253997 0.846009 0.066662 0.669235 0.14466 0.513422C0.222658 0.35761 0.334658 0.228221 0.469455 0.138199C0.604252 0.0481767 0.75712 0.000678138 0.912768 0.000454322C1.06842 0.000230506 1.22139 0.0472893 1.35638 0.136923L10.9968 6.54177C11.1315 6.63127 11.2841 6.67836 11.4394 6.67836C11.5948 6.67836 11.7474 6.63127 11.8821 6.54177L21.5196 0.136634C21.6548 0.0467887 21.8081 -0.000332099 21.964 1.76183e-06C22.1199 0.000335622 22.2731 0.0481124 22.408 0.138536C22.5429 0.22896 22.6549 0.358849 22.7327 0.515164C22.8105 0.67148 22.8514 0.848721 22.8512 1.0291V17.9279C22.8513 18.1087 22.8102 18.2863 22.7321 18.4428C22.6539 18.5993 22.5414 18.7293 22.406 18.8195L17.3587 22.182C17.2232 22.2724 17.1106 22.4026 17.0325 22.5594C16.9543 22.7162 16.9134 22.8942 16.9137 23.0752C16.9141 23.2562 16.9558 23.4339 17.0345 23.5903C17.1133 23.7468 17.2263 23.8764 17.3622 23.966L20.1464 25.7996C20.2809 25.8881 20.4331 25.9345 20.5879 25.9341C20.7427 25.9338 20.8948 25.8866 21.029 25.7974L26.9715 21.8498L26.9714 21.85ZM27.5554 6.691C27.5555 6.87286 27.5973 7.05143 27.6765 7.2085C27.7558 7.36557 27.8696 7.49552 28.0064 7.5851C28.1432 7.67468 28.2981 7.72068 28.4553 7.71841C28.6125 7.71614 28.7664 7.66568 28.9013 7.57218L31.568 5.72132C31.6996 5.63007 31.8086 5.50096 31.8843 5.34654C31.96 5.19212 31.9999 5.01766 32 4.84014V1.06828C31.9997 0.886509 31.9578 0.708066 31.8785 0.551136C31.7992 0.394206 31.6854 0.264399 31.5486 0.174941C31.4118 0.0854835 31.2569 0.0395722 31.0998 0.0418857C30.9427 0.0441992 30.7889 0.0946547 30.6541 0.188111L27.9875 2.03897C27.8558 2.13021 27.7468 2.25934 27.6711 2.41379C27.5954 2.56824 27.5555 2.74274 27.5554 2.9203V6.69201V6.691Z" fill="#007FFF"/>
</svg>
