<svg width="32" height="32" viewBox="0 0 32 32" fill="none" xmlns="http://www.w3.org/2000/svg">
<rect width="32" height="32" rx="8" fill="white"/>
<path d="M1.3889 18V14.1818H1.95567V14.7784H2.00538C2.08493 14.5746 2.21336 14.4163 2.39068 14.3036C2.568 14.1893 2.78095 14.1321 3.02953 14.1321C3.28142 14.1321 3.49106 14.1893 3.65844 14.3036C3.82747 14.4163 3.95922 14.5746 4.05368 14.7784H4.09345C4.19122 14.5812 4.33789 14.4246 4.53344 14.3086C4.72899 14.1909 4.96348 14.1321 5.23692 14.1321C5.5783 14.1321 5.85754 14.239 6.07463 14.4528C6.29172 14.6649 6.40027 14.9955 6.40027 15.4446V18H5.81362V15.4446C5.81362 15.1629 5.73656 14.9615 5.58244 14.8406C5.42832 14.7196 5.24686 14.6591 5.03805 14.6591C4.76959 14.6591 4.56161 14.7403 4.41412 14.9027C4.26663 15.0634 4.19288 15.2673 4.19288 15.5142V18H3.59629V15.3849C3.59629 15.1679 3.52586 14.993 3.385 14.8604C3.24414 14.7262 3.06267 14.6591 2.84061 14.6591C2.68815 14.6591 2.54563 14.6997 2.41305 14.7809C2.28213 14.8621 2.17607 14.9748 2.09487 15.119C2.01532 15.2615 1.97555 15.4264 1.97555 15.6136V18H1.3889ZM8.39403 18.0795C8.04933 18.0795 7.74689 17.9975 7.48671 17.8335C7.22819 17.6694 7.02601 17.4399 6.88018 17.1449C6.736 16.8499 6.66391 16.5052 6.66391 16.1108C6.66391 15.7131 6.736 15.3659 6.88018 15.0692C7.02601 14.7726 7.22819 14.5423 7.48671 14.3782C7.74689 14.2141 8.04933 14.1321 8.39403 14.1321C8.73872 14.1321 9.04033 14.2141 9.29885 14.3782C9.55903 14.5423 9.76121 14.7726 9.90539 15.0692C10.0512 15.3659 10.1241 15.7131 10.1241 16.1108C10.1241 16.5052 10.0512 16.8499 9.90539 17.1449C9.76121 17.4399 9.55903 17.6694 9.29885 17.8335C9.04033 17.9975 8.73872 18.0795 8.39403 18.0795ZM8.39403 17.5526C8.65586 17.5526 8.8713 17.4854 9.04033 17.3512C9.20937 17.217 9.33448 17.0405 9.41569 16.8217C9.49689 16.603 9.53749 16.366 9.53749 16.1108C9.53749 15.8556 9.49689 15.6178 9.41569 15.3974C9.33448 15.177 9.20937 14.9988 9.04033 14.8629C8.8713 14.727 8.65586 14.6591 8.39403 14.6591C8.13219 14.6591 7.91675 14.727 7.74772 14.8629C7.57868 14.9988 7.45357 15.177 7.37236 15.3974C7.29116 15.6178 7.25056 15.8556 7.25056 16.1108C7.25056 16.366 7.29116 16.603 7.37236 16.8217C7.45357 17.0405 7.57868 17.217 7.74772 17.3512C7.91675 17.4854 8.13219 17.5526 8.39403 17.5526ZM10.9763 15.7031V18H10.3896V14.1818H10.9564V14.7784H11.0061C11.0956 14.5845 11.2315 14.4287 11.4138 14.3111C11.5961 14.1918 11.8314 14.1321 12.1198 14.1321C12.3783 14.1321 12.6045 14.1851 12.7984 14.2912C12.9923 14.3956 13.1431 14.5547 13.2508 14.7685C13.3585 14.9806 13.4124 15.2491 13.4124 15.5739V18H12.8257V15.6136C12.8257 15.3137 12.7478 15.08 12.5921 14.9126C12.4363 14.7436 12.2225 14.6591 11.9507 14.6591C11.7635 14.6591 11.5961 14.6997 11.4486 14.7809C11.3028 14.8621 11.1876 14.9806 11.1031 15.1364C11.0186 15.2921 10.9763 15.4811 10.9763 15.7031ZM15.3956 19.5114C15.1122 19.5114 14.8686 19.4749 14.6647 19.402C14.4609 19.3307 14.291 19.2363 14.1552 19.1186C14.0209 19.0026 13.914 18.8783 13.8345 18.7457L14.3018 18.4176C14.3548 18.4872 14.422 18.5668 14.5032 18.6562C14.5844 18.7474 14.6954 18.8261 14.8363 18.8924C14.9788 18.9603 15.1652 18.9943 15.3956 18.9943C15.7038 18.9943 15.9582 18.9197 16.1587 18.7706C16.3592 18.6214 16.4595 18.3878 16.4595 18.0696V17.294H16.4098C16.3667 17.3636 16.3054 17.4498 16.2258 17.5526C16.1479 17.6536 16.0352 17.744 15.8878 17.8235C15.7419 17.9014 15.5447 17.9403 15.2961 17.9403C14.9879 17.9403 14.7111 17.8674 14.4659 17.7216C14.2223 17.5758 14.0292 17.3636 13.8867 17.0852C13.7458 16.8068 13.6754 16.4687 13.6754 16.071C13.6754 15.6799 13.7442 15.3394 13.8817 15.0494C14.0193 14.7577 14.2107 14.5323 14.4559 14.3732C14.7012 14.2125 14.9846 14.1321 15.3061 14.1321C15.5547 14.1321 15.7519 14.1735 15.8977 14.2564C16.0452 14.3376 16.1579 14.4304 16.2358 14.5348C16.3153 14.6375 16.3766 14.7221 16.4197 14.7884H16.4794V14.1818H17.0461V18.1094C17.0461 18.4375 16.9716 18.7043 16.8224 18.9098C16.6749 19.117 16.4761 19.2686 16.2258 19.3647C15.9772 19.4625 15.7005 19.5114 15.3956 19.5114ZM15.3757 17.4134C15.611 17.4134 15.8099 17.3595 15.9723 17.2518C16.1347 17.1441 16.2581 16.9891 16.3427 16.7869C16.4272 16.5848 16.4694 16.3428 16.4694 16.0611C16.4694 15.786 16.428 15.5432 16.3451 15.3327C16.2623 15.1223 16.1396 14.9574 15.9772 14.8381C15.8148 14.7187 15.6143 14.6591 15.3757 14.6591C15.1271 14.6591 14.92 14.7221 14.7542 14.848C14.5902 14.974 14.4667 15.143 14.3838 15.3551C14.3026 15.5672 14.262 15.8026 14.262 16.0611C14.262 16.3262 14.3035 16.5607 14.3863 16.7646C14.4709 16.9667 14.5951 17.1258 14.7592 17.2418C14.9249 17.3562 15.1304 17.4134 15.3757 17.4134ZM19.0411 18.0795C18.6964 18.0795 18.394 17.9975 18.1338 17.8335C17.8753 17.6694 17.6731 17.4399 17.5273 17.1449C17.3831 16.8499 17.311 16.5052 17.311 16.1108C17.311 15.7131 17.3831 15.3659 17.5273 15.0692C17.6731 14.7726 17.8753 14.5423 18.1338 14.3782C18.394 14.2141 18.6964 14.1321 19.0411 14.1321C19.3858 14.1321 19.6874 14.2141 19.946 14.3782C20.2061 14.5423 20.4083 14.7726 20.5525 15.0692C20.6983 15.3659 20.7712 15.7131 20.7712 16.1108C20.7712 16.5052 20.6983 16.8499 20.5525 17.1449C20.4083 17.4399 20.2061 17.6694 19.946 17.8335C19.6874 17.9975 19.3858 18.0795 19.0411 18.0795ZM19.0411 17.5526C19.303 17.5526 19.5184 17.4854 19.6874 17.3512C19.8565 17.217 19.9816 17.0405 20.0628 16.8217C20.144 16.603 20.1846 16.366 20.1846 16.1108C20.1846 15.8556 20.144 15.6178 20.0628 15.3974C19.9816 15.177 19.8565 14.9988 19.6874 14.8629C19.5184 14.727 19.303 14.6591 19.0411 14.6591C18.7793 14.6591 18.5639 14.727 18.3948 14.8629C18.2258 14.9988 18.1007 15.177 18.0195 15.3974C17.9383 15.6178 17.8977 15.8556 17.8977 16.1108C17.8977 16.366 17.9383 16.603 18.0195 16.8217C18.1007 17.0405 18.2258 17.217 18.3948 17.3512C18.5639 17.4854 18.7793 17.5526 19.0411 17.5526ZM22.5879 18.0795C22.2432 18.0795 21.9408 17.9975 21.6806 17.8335C21.4221 17.6694 21.2199 17.4399 21.074 17.1449C20.9299 16.8499 20.8578 16.5052 20.8578 16.1108C20.8578 15.7131 20.9299 15.3659 21.074 15.0692C21.2199 14.7726 21.4221 14.5423 21.6806 14.3782C21.9408 14.2141 22.2432 14.1321 22.5879 14.1321C22.9326 14.1321 23.2342 14.2141 23.4927 14.3782C23.7529 14.5423 23.9551 14.7726 24.0993 15.0692C24.2451 15.3659 24.318 15.7131 24.318 16.1108C24.318 16.5052 24.2451 16.8499 24.0993 17.1449C23.9551 17.4399 23.7529 17.6694 23.4927 17.8335C23.2342 17.9975 22.9326 18.0795 22.5879 18.0795ZM22.5879 17.5526C22.8497 17.5526 23.0652 17.4854 23.2342 17.3512C23.4032 17.217 23.5284 17.0405 23.6096 16.8217C23.6908 16.603 23.7314 16.366 23.7314 16.1108C23.7314 15.8556 23.6908 15.6178 23.6096 15.3974C23.5284 15.177 23.4032 14.9988 23.2342 14.8629C23.0652 14.727 22.8497 14.6591 22.5879 14.6591C22.3261 14.6591 22.1106 14.727 21.9416 14.8629C21.7726 14.9988 21.6474 15.177 21.5662 15.3974C21.485 15.6178 21.4444 15.8556 21.4444 16.1108C21.4444 16.366 21.485 16.603 21.5662 16.8217C21.6474 17.0405 21.7726 17.217 21.9416 17.3512C22.1106 17.4854 22.3261 17.5526 22.5879 17.5526ZM27.2881 15.0369L26.7611 15.1861C26.7279 15.0982 26.679 15.0129 26.6144 14.93C26.5514 14.8455 26.4653 14.7759 26.3559 14.7212C26.2465 14.6665 26.1065 14.6392 25.9358 14.6392C25.7021 14.6392 25.5074 14.6931 25.3516 14.8008C25.1975 14.9068 25.1204 15.0419 25.1204 15.206C25.1204 15.3518 25.1735 15.467 25.2795 15.5515C25.3856 15.636 25.5513 15.7064 25.7767 15.7628L26.3435 15.902C26.6848 15.9848 26.9392 16.1116 27.1066 16.2823C27.274 16.4513 27.3577 16.6693 27.3577 16.9361C27.3577 17.1548 27.2947 17.3504 27.1687 17.5227C27.0445 17.6951 26.8704 17.831 26.6467 17.9304C26.423 18.0298 26.1628 18.0795 25.8662 18.0795C25.4767 18.0795 25.1544 17.995 24.8992 17.826C24.644 17.657 24.4824 17.41 24.4145 17.0852L24.9713 16.946C25.0243 17.1515 25.1246 17.3056 25.2721 17.4084C25.4212 17.5111 25.6159 17.5625 25.8562 17.5625C26.1297 17.5625 26.3468 17.5045 26.5075 17.3885C26.6699 17.2708 26.7511 17.13 26.7511 16.9659C26.7511 16.8333 26.7047 16.7223 26.6119 16.6328C26.5191 16.5417 26.3766 16.4737 26.1844 16.429L25.548 16.2798C25.1983 16.197 24.9415 16.0685 24.7774 15.8945C24.615 15.7189 24.5338 15.4993 24.5338 15.2358C24.5338 15.0204 24.5943 14.8298 24.7153 14.6641C24.8379 14.4983 25.0044 14.3683 25.2149 14.2738C25.427 14.1793 25.6673 14.1321 25.9358 14.1321C26.3136 14.1321 26.6103 14.215 26.8257 14.3807C27.0428 14.5464 27.1969 14.7652 27.2881 15.0369ZM29.2116 18.0795C28.8437 18.0795 28.5263 17.9983 28.2595 17.8359C27.9944 17.6719 27.7897 17.4432 27.6455 17.1499C27.503 16.8549 27.4318 16.5118 27.4318 16.1207C27.4318 15.7296 27.503 15.3849 27.6455 15.0866C27.7897 14.7867 27.9902 14.553 28.2471 14.3857C28.5056 14.2166 28.8072 14.1321 29.1519 14.1321C29.3508 14.1321 29.5472 14.1652 29.7411 14.2315C29.935 14.2978 30.1115 14.4055 30.2705 14.5547C30.4296 14.7022 30.5564 14.8977 30.6509 15.1413C30.7453 15.3849 30.7926 15.6849 30.7926 16.0412V16.2898H27.8494V15.7827H30.196C30.196 15.5672 30.1529 15.375 30.0667 15.206C29.9822 15.0369 29.8612 14.9035 29.7038 14.8058C29.548 14.708 29.3641 14.6591 29.1519 14.6591C28.9183 14.6591 28.7161 14.7171 28.5454 14.8331C28.3764 14.9474 28.2463 15.0966 28.1551 15.2805C28.064 15.4645 28.0184 15.6617 28.0184 15.8722V16.2102C28.0184 16.4986 28.0681 16.743 28.1676 16.9435C28.2686 17.1424 28.4087 17.294 28.5877 17.3984C28.7666 17.5012 28.9746 17.5526 29.2116 17.5526C29.3657 17.5526 29.5049 17.531 29.6292 17.4879C29.7552 17.4432 29.8637 17.3769 29.9548 17.2891C30.046 17.1996 30.1164 17.0885 30.1661 16.956L30.7329 17.1151C30.6732 17.3073 30.573 17.4763 30.4321 17.6222C30.2913 17.7663 30.1173 17.879 29.9101 17.9602C29.703 18.0398 29.4701 18.0795 29.2116 18.0795Z" fill="#A03333"/>
</svg>
