<svg width="12" height="26" viewBox="0 0 12 26" fill="none" xmlns="http://www.w3.org/2000/svg">
<path d="M11.3966 10.4489C10.0795 4.63875 7.33448 3.092 6.63423 1.99862C6.34545 1.51696 6.08965 1.01627 5.86861 0.5C5.83161 1.01625 5.76361 1.34125 5.32486 1.73275C4.44398 2.51813 0.702732 5.56687 0.387857 12.1685C0.0944818 18.3237 4.91286 22.1191 5.54936 22.5115C6.03886 22.7524 6.63498 22.5166 6.92586 22.2955C9.24848 20.7015 12.422 16.4517 11.3991 10.4489" fill="#10AA50"/>
<path d="M6.06813 19.2339C5.94688 20.7574 5.86 21.6426 5.552 22.5133C5.552 22.5133 5.75413 23.9636 5.89613 25.5H6.3985C6.51833 24.4181 6.70131 23.3441 6.9465 22.2835C6.29613 21.9635 6.09313 20.5708 6.06813 19.2339Z" fill="#B8C4C2"/>
<path d="M6.94573 22.2845C6.28848 21.9809 6.09835 20.5587 6.0691 19.234C6.23159 17.0486 6.27899 14.8562 6.2111 12.6659C6.1766 11.5166 6.22735 2.02111 5.92798 0.630859C6.1328 1.10172 6.36878 1.5584 6.63435 1.99786C7.3346 3.09211 10.0805 4.63886 11.3967 10.449C12.4221 16.4416 9.26585 20.6801 6.94573 22.2845Z" fill="#12924F"/>
</svg>
