<svg width="24" height="24" viewBox="0 0 24 24" fill="none" xmlns="http://www.w3.org/2000/svg">
<mask id="mask0_73_53" style="mask-type:luminance" maskUnits="userSpaceOnUse" x="0" y="0" width="24" height="24">
<path d="M0.75 0.75H23.25V23.25H0.75V0.75Z" fill="white"/>
</mask>
<g mask="url(#mask0_73_53)">
<path fill-rule="evenodd" clip-rule="evenodd" d="M21.475 18.2763C20.2513 18.2423 19.3019 18.3676 18.5063 18.7024C18.2772 18.7944 17.9096 18.7944 17.8793 19.0828C18.0018 19.2038 18.0166 19.4018 18.1239 19.5695C18.3073 19.8739 18.629 20.2839 18.9195 20.4966L19.8988 21.1964C20.4956 21.561 21.1688 21.7741 21.7502 22.1391C22.0869 22.3521 22.4234 22.6259 22.7602 22.8543C22.9317 22.9759 23.0356 23.174 23.2499 23.2496V23.2036C23.1429 23.0673 23.1121 22.8696 23.0054 22.7169L22.5458 22.2761C22.1024 21.6831 21.5512 21.1656 20.9544 20.7403C20.4647 20.4056 19.3939 19.9495 19.1949 19.3871L19.1648 19.353C19.5009 19.319 19.8988 19.2006 20.2204 19.1094C20.7411 18.973 21.215 19.003 21.7502 18.8663L22.4852 18.6533V18.5169C22.2097 18.2433 22.0108 17.8781 21.7203 17.6199C20.9401 16.9508 20.0826 16.2966 19.1949 15.7493C18.7207 15.4453 18.1084 15.2471 17.6035 14.9891C17.4194 14.8978 17.1138 14.8521 17.0068 14.7001C16.7307 14.3661 16.5781 13.9246 16.3792 13.529L15.1245 10.883C14.8492 10.2899 14.6804 9.69677 14.3443 9.14939C12.7679 6.56402 11.0538 4.99789 8.4218 3.46164C7.85593 3.14227 7.18268 3.00489 6.4668 2.83789L5.3193 2.77664C5.07405 2.67027 4.82943 2.38114 4.61518 2.24414C3.74293 1.69664 1.49343 0.510642 0.850176 2.07377C0.437051 3.06214 1.46255 4.03527 1.81068 4.53739C2.0713 4.88714 2.40743 5.28239 2.59155 5.67789C2.69443 5.93627 2.7288 6.21027 2.83618 6.48402C3.08068 7.15302 3.31043 7.89852 3.6318 8.52227C3.8033 8.84164 3.98343 9.17664 4.19768 9.46539C4.32018 9.63577 4.53455 9.70877 4.58018 9.98239C4.3658 10.2868 4.35105 10.7425 4.22855 11.1233C3.67743 12.8418 3.8918 14.9708 4.67205 16.236C4.9173 16.616 5.49518 17.4528 6.2793 17.1331C6.96793 16.8594 6.8143 15.9926 7.01318 15.2321C7.05943 15.0499 7.02868 14.9281 7.12018 14.8061V14.8403L7.7478 16.1024C8.22218 16.8475 9.0488 17.6233 9.73705 18.1406C10.1041 18.4144 10.3949 18.8861 10.8538 19.0531V19.0071H10.8237C10.7317 18.8708 10.5938 18.8094 10.4714 18.703C10.1961 18.4294 9.89005 18.0946 9.67568 17.7906C9.0333 16.9391 8.46743 15.996 7.96218 15.0229C7.71705 14.5515 7.50268 14.0344 7.30443 13.563C7.2118 13.3804 7.2118 13.1063 7.05918 13.0156C6.8293 13.3496 6.4933 13.6394 6.32418 14.0498C6.0333 14.7035 6.00318 15.5096 5.89618 16.3461C5.83443 16.3614 5.8618 16.3461 5.83443 16.3801C5.3453 16.2589 5.17655 15.7564 4.99318 15.331C4.53418 14.2513 4.4573 12.5176 4.85518 11.2705C4.96218 10.9511 5.4218 9.94739 5.2383 9.64327C5.1458 9.35427 4.84043 9.18727 4.67168 8.95889C4.4728 8.66989 4.25918 8.30514 4.1213 7.98577C3.7543 7.13364 3.5708 6.19114 3.17255 5.33952C2.98843 4.94402 2.66743 4.53327 2.40705 4.16864C2.11618 3.75789 1.79555 3.46877 1.5658 2.98239C1.4893 2.81202 1.3823 2.54139 1.50468 2.35864C1.53493 2.23702 1.59655 2.18827 1.71843 2.16102C1.91718 1.99052 2.48393 2.20664 2.6828 2.29727C3.24868 2.52564 3.72305 2.73839 4.19743 3.05739C4.4118 3.20939 4.64155 3.49852 4.91693 3.57489H5.23868C5.72843 3.68114 6.27893 3.60889 6.73743 3.74527C7.54868 4.00427 8.28293 4.38402 8.94143 4.79502C10.9458 6.05727 12.5989 7.85177 13.7156 9.99639C13.8991 10.3461 13.9756 10.6655 14.1443 11.0305C14.4661 11.776 14.8639 12.5361 15.1846 13.2665C15.5063 13.9813 15.8122 14.7118 16.2712 15.3048C16.5009 15.6241 17.4187 15.7911 17.8317 15.9585C18.1379 16.0949 18.6119 16.2176 18.8881 16.3846C19.4079 16.704 19.9283 17.069 20.4177 17.4188C20.6622 17.6008 21.4278 17.9811 21.4733 18.2845L21.475 18.2763ZM5.86968 5.06089C5.65831 5.05903 5.4476 5.08458 5.2428 5.13689V5.17102H5.27293C5.39543 5.41439 5.6098 5.58177 5.76268 5.79477L6.11493 6.52477L6.14518 6.49077C6.35943 6.33877 6.4668 6.09539 6.4668 5.73077C6.37493 5.62439 6.3598 5.51764 6.2833 5.41127C6.19143 5.25927 5.99255 5.18289 5.86968 5.06164V5.06089Z" fill="white"/>
</g>
</svg>
