<svg width="32" height="32" viewBox="0 0 32 32" fill="none" xmlns="http://www.w3.org/2000/svg">
<path d="M24.5 0H7.5C3.35786 0 0 3.35786 0 7.5V24.5C0 28.6421 3.35786 32 7.5 32H24.5C28.6421 32 32 28.6421 32 24.5V7.5C32 3.35786 28.6421 0 24.5 0Z" fill="#242938"/>
<mask id="mask0_73_53" style="mask-type:luminance" maskUnits="userSpaceOnUse" x="4" y="4" width="24" height="24">
<path d="M4.75 4.75H27.25V27.25H4.75V4.75Z" fill="white"/>
</mask>
<g mask="url(#mask0_73_53)">
<path fill-rule="evenodd" clip-rule="evenodd" d="M25.475 22.2763C24.2513 22.2423 23.3019 22.3676 22.5063 22.7024C22.2772 22.7944 21.9096 22.7944 21.8793 23.0828C22.0018 23.2038 22.0166 23.4018 22.1239 23.5695C22.3073 23.8739 22.629 24.2839 22.9195 24.4966L23.8988 25.1964C24.4955 25.561 25.1688 25.7741 25.7502 26.1391C26.0869 26.3521 26.4234 26.6259 26.7602 26.8543C26.9317 26.9759 27.0356 27.174 27.2499 27.2496V27.2036C27.1429 27.0673 27.1121 26.8696 27.0054 26.7169L26.5458 26.2761C26.1024 25.6831 25.5512 25.1656 24.9544 24.7403C24.4647 24.4056 23.3939 23.9495 23.1949 23.3871L23.1648 23.353C23.5009 23.319 23.8988 23.2006 24.2204 23.1094C24.7411 22.973 25.2151 23.003 25.7502 22.8663L26.4852 22.6533V22.5169C26.2097 22.2433 26.0108 21.8781 25.7203 21.6199C24.9401 20.9508 24.0826 20.2966 23.1949 19.7493C22.7207 19.4453 22.1084 19.2471 21.6035 18.9891C21.4194 18.8978 21.1138 18.8521 21.0068 18.7001C20.7307 18.3661 20.5781 17.9246 20.3792 17.529L19.1245 14.883C18.8492 14.2899 18.6804 13.6968 18.3443 13.1494C16.7679 10.564 15.0538 8.99789 12.4218 7.46164C11.8559 7.14227 11.1827 7.00489 10.4668 6.83789L9.3193 6.77664C9.07405 6.67027 8.82943 6.38114 8.61518 6.24414C7.74293 5.69664 5.49343 4.51064 4.85018 6.07377C4.43705 7.06214 5.46255 8.03527 5.81068 8.53739C6.0713 8.88714 6.40743 9.28239 6.59155 9.67789C6.69443 9.93627 6.7288 10.2103 6.83618 10.484C7.08068 11.153 7.31043 11.8985 7.6318 12.5223C7.8033 12.8416 7.98343 13.1766 8.19768 13.4654C8.32018 13.6358 8.53455 13.7088 8.58018 13.9824C8.3658 14.2868 8.35105 14.7425 8.22855 15.1233C7.67743 16.8418 7.8918 18.9708 8.67205 20.236C8.9173 20.616 9.49518 21.4528 10.2793 21.1331C10.9679 20.8594 10.8143 19.9926 11.0132 19.2321C11.0594 19.0499 11.0287 18.9281 11.1202 18.8061V18.8403L11.7478 20.1024C12.2222 20.8475 13.0488 21.6233 13.7371 22.1406C14.1041 22.4144 14.3949 22.8861 14.8538 23.0531V23.0071H14.8237C14.7317 22.8708 14.5938 22.8094 14.4714 22.703C14.1961 22.4294 13.8901 22.0946 13.6757 21.7906C13.0333 20.9391 12.4674 19.996 11.9622 19.0229C11.7171 18.5515 11.5027 18.0344 11.3044 17.563C11.2118 17.3804 11.2118 17.1063 11.0592 17.0156C10.8293 17.3496 10.4933 17.6394 10.3242 18.0498C10.0333 18.7035 10.0032 19.5096 9.89618 20.3461C9.83443 20.3614 9.8618 20.3461 9.83443 20.3801C9.3453 20.2589 9.17655 19.7564 8.99318 19.331C8.53418 18.2513 8.4573 16.5176 8.85518 15.2705C8.96218 14.9511 9.4218 13.9474 9.2383 13.6433C9.1458 13.3543 8.84043 13.1873 8.67168 12.9589C8.4728 12.6699 8.25918 12.3051 8.1213 11.9858C7.7543 11.1336 7.5708 10.1911 7.17255 9.33952C6.98843 8.94402 6.66743 8.53327 6.40705 8.16864C6.11618 7.75789 5.79555 7.46877 5.5658 6.98239C5.4893 6.81202 5.3823 6.54139 5.50468 6.35864C5.53493 6.23702 5.59655 6.18827 5.71843 6.16102C5.91718 5.99052 6.48393 6.20664 6.6828 6.29727C7.24868 6.52564 7.72305 6.73839 8.19743 7.05739C8.4118 7.20939 8.64155 7.49852 8.91693 7.57489H9.23868C9.72843 7.68114 10.2789 7.60889 10.7374 7.74527C11.5487 8.00427 12.2829 8.38402 12.9414 8.79502C14.9458 10.0573 16.5989 11.8518 17.7156 13.9964C17.8991 14.3461 17.9756 14.6655 18.1443 15.0305C18.4661 15.776 18.8639 16.5361 19.1846 17.2665C19.5063 17.9813 19.8122 18.7118 20.2712 19.3048C20.5009 19.6241 21.4187 19.7911 21.8317 19.9585C22.1379 20.0949 22.6119 20.2176 22.8881 20.3846C23.4079 20.704 23.9283 21.069 24.4177 21.4188C24.6622 21.6008 25.4278 21.9811 25.4733 22.2845L25.475 22.2763ZM9.86968 9.06089C9.65831 9.05903 9.4476 9.08458 9.2428 9.13689V9.17102H9.27293C9.39543 9.41439 9.6098 9.58177 9.76268 9.79477L10.1149 10.5248L10.1452 10.4908C10.3594 10.3388 10.4668 10.0954 10.4668 9.73077C10.3749 9.62439 10.3598 9.51764 10.2833 9.41127C10.1914 9.25927 9.99255 9.18289 9.86968 9.06164V9.06089Z" fill="white"/>
</g>
</svg>
