<svg width="32" height="32" viewBox="0 0 32 32" fill="none" xmlns="http://www.w3.org/2000/svg">
<path d="M24.5 0H7.5C3.35786 0 0 3.35786 0 7.5V24.5C0 28.6421 3.35786 32 7.5 32H24.5C28.6421 32 32 28.6421 32 24.5V7.5C32 3.35786 28.6421 0 24.5 0Z" fill="#242938"/>
<path d="M14.9847 3.88952C15.5996 3.53764 16.4003 3.53602 17.0146 3.88952C20.1048 5.63577 23.1961 7.37914 26.2858 9.12639C26.8671 9.45377 27.2557 10.1005 27.2498 10.7701V21.2758C27.2542 21.9731 26.8271 22.6354 26.214 22.9553C23.1338 24.6919 20.0552 26.4305 16.9756 28.1671C16.3482 28.5259 15.5313 28.4983 14.9233 28.11C14 27.5748 13.075 27.042 12.1515 26.5073C11.9627 26.3948 11.75 26.3053 11.6167 26.1223C11.7346 25.9635 11.9452 25.9438 12.1163 25.8744C12.5017 25.7518 12.8558 25.555 13.2098 25.3641C13.2995 25.3029 13.4087 25.3264 13.4946 25.3811C14.2842 25.8339 15.067 26.2999 15.8592 26.7483C16.0282 26.8459 16.1993 26.7163 16.3438 26.6358C19.3663 24.9274 22.3926 23.2256 25.4147 21.5168C25.5267 21.4629 25.5886 21.344 25.5795 21.2214C25.5816 17.7558 25.58 14.2896 25.5806 10.8239C25.5933 10.6849 25.5128 10.5569 25.387 10.4999C22.3176 8.77127 19.2496 7.04014 16.1807 5.31114C16.1276 5.27456 16.0646 5.25492 16 5.25481C15.9355 5.2547 15.8725 5.27412 15.8192 5.31052C12.7502 7.04014 9.68295 8.77302 6.61395 10.5014C6.48858 10.5585 6.40445 10.6844 6.41933 10.8239C6.41995 14.2896 6.41933 17.7558 6.41933 21.2219C6.414 21.2818 6.42716 21.3418 6.45702 21.394C6.48688 21.4462 6.53201 21.4879 6.58633 21.5136C7.4052 21.978 8.2252 22.4391 9.0447 22.902C9.50645 23.1504 10.0732 23.2981 10.5818 23.1078C11.0307 22.9468 11.3453 22.4886 11.3368 22.0121C11.3411 18.5668 11.3347 15.1209 11.34 11.6759C11.3287 11.523 11.4738 11.3966 11.6226 11.4111C12.0161 11.4084 12.4101 11.4058 12.8036 11.4121C12.9678 11.4084 13.0808 11.5731 13.0606 11.7271C13.059 15.1944 13.0648 18.6616 13.058 22.1288C13.059 23.0529 12.6793 24.0584 11.8246 24.5105C10.7717 25.0559 9.4702 24.9403 8.42995 24.4173C7.52945 23.9678 6.66995 23.4373 5.78545 22.9558C5.1707 22.6376 4.7457 21.9728 4.75008 21.2759V10.7701C4.74358 10.0866 5.1477 9.42814 5.74695 9.10552C8.82658 7.36764 11.9057 5.62827 14.9847 3.88952Z" fill="#81CD39"/>
<path d="M17.6716 11.1668C19.0147 11.0803 20.4526 11.1156 21.6612 11.7773C22.5971 12.2843 23.1158 13.3486 23.1323 14.3882C23.1062 14.5283 22.9596 14.6057 22.8257 14.5961C22.4361 14.5956 22.0462 14.6015 21.6566 14.5935C21.4912 14.5998 21.3952 14.4475 21.3745 14.3013C21.2625 13.8038 20.9911 13.3112 20.523 13.0712C19.8042 12.7115 18.971 12.7296 18.1872 12.7371C17.6151 12.7673 16.9998 12.817 16.5151 13.1533C16.143 13.4082 16.03 13.9227 16.1627 14.3371C16.288 14.6346 16.6313 14.7306 16.9125 14.8191C18.5311 15.2425 20.2463 15.2002 21.8341 15.7573C22.4915 15.9845 23.1345 16.4261 23.3595 17.1143C23.6538 18.0368 23.5248 19.1393 22.8685 19.8798C22.3362 20.4892 21.5611 20.821 20.788 21.0011C19.7595 21.2305 18.6921 21.2363 17.6476 21.1345C16.6655 21.0225 15.6433 20.7645 14.8852 20.0953C14.2368 19.5323 13.9202 18.6551 13.9516 17.8086C13.9591 17.6656 14.1015 17.5658 14.2385 17.5776C14.6308 17.5745 15.0233 17.5733 15.4157 17.5782C15.5726 17.567 15.6887 17.7025 15.6968 17.8502C15.7691 18.3241 15.9472 18.8216 16.3606 19.1025C17.1581 19.6171 18.159 19.5818 19.0722 19.5962C19.8288 19.5627 20.6782 19.5526 21.2956 19.0525C21.6213 18.7672 21.7178 18.29 21.6298 17.8795C21.5345 17.5328 21.1718 17.3713 20.8605 17.2657C19.2626 16.7603 17.5281 16.9437 15.9457 16.3721C15.3032 16.1451 14.682 15.7158 14.4352 15.0558C14.0908 14.1217 14.2486 12.9662 14.9737 12.2508C15.6807 11.539 16.7012 11.2648 17.6716 11.1668Z" fill="#81CD39"/>
</svg>
