<svg width="24" height="26" viewBox="0 0 24 26" fill="none" xmlns="http://www.w3.org/2000/svg">
<path d="M10.9847 0.889516C11.5996 0.537641 12.4003 0.536016 13.0146 0.889516C16.1048 2.63577 19.1961 4.37914 22.2858 6.12639C22.8671 6.45377 23.2557 7.10052 23.2498 7.77014V18.2758C23.2542 18.9731 22.8271 19.6354 22.214 19.9553C19.1338 21.6919 16.0552 23.4305 12.9756 25.1671C12.3482 25.5259 11.5313 25.4983 10.9233 25.11C9.99995 24.5748 9.07495 24.042 8.15145 23.5073C7.9627 23.3948 7.74995 23.3053 7.6167 23.1223C7.73458 22.9635 7.9452 22.9438 8.11633 22.8744C8.5017 22.7518 8.85583 22.555 9.20983 22.3641C9.29945 22.3029 9.4087 22.3264 9.49458 22.3811C10.2842 22.8339 11.067 23.2999 11.8592 23.7483C12.0282 23.8459 12.1993 23.7163 12.3438 23.6358C15.3663 21.9274 18.3926 20.2256 21.4147 18.5168C21.5267 18.4629 21.5886 18.344 21.5795 18.2214C21.5816 14.7558 21.58 11.2896 21.5806 7.82389C21.5933 7.68489 21.5128 7.55689 21.387 7.49989C18.3176 5.77127 15.2496 4.04014 12.1807 2.31114C12.1276 2.27456 12.0646 2.25492 12 2.25481C11.9355 2.2547 11.8725 2.27412 11.8192 2.31052C8.7502 4.04014 5.68295 5.77302 2.61395 7.50139C2.48858 7.55852 2.40445 7.68439 2.41933 7.82389C2.41995 11.2896 2.41933 14.7558 2.41933 18.2219C2.414 18.2818 2.42716 18.3418 2.45702 18.394C2.48688 18.4462 2.53201 18.4879 2.58633 18.5136C3.4052 18.978 4.2252 19.4391 5.0447 19.902C5.50645 20.1504 6.0732 20.2981 6.58183 20.1078C7.0307 19.9468 7.34533 19.4886 7.33683 19.0121C7.34108 15.5668 7.3347 12.1209 7.33995 8.67589C7.3287 8.52302 7.47383 8.39664 7.62258 8.41114C8.01608 8.40839 8.41008 8.40577 8.80358 8.41214C8.96783 8.40839 9.08083 8.57314 9.06058 8.72714C9.05895 12.1944 9.06483 15.6616 9.05795 19.1288C9.05895 20.0529 8.67933 21.0584 7.82458 21.5105C6.7717 22.0559 5.4702 21.9403 4.42995 21.4173C3.52945 20.9678 2.66995 20.4373 1.78545 19.9558C1.1707 19.6376 0.745702 18.9728 0.750077 18.2759V7.77014C0.743577 7.08664 1.1477 6.42814 1.74695 6.10552C4.82658 4.36764 7.9057 2.62827 10.9847 0.889516Z" fill="#81CD39"/>
<path d="M13.6716 8.16684C15.0147 8.08034 16.4526 8.11559 17.6612 8.77734C18.5971 9.28434 19.1158 10.3486 19.1323 11.3882C19.1062 11.5283 18.9596 11.6057 18.8257 11.5961C18.4361 11.5956 18.0462 11.6015 17.6566 11.5935C17.4912 11.5998 17.3952 11.4475 17.3745 11.3013C17.2625 10.8038 16.9911 10.3112 16.523 10.0712C15.8042 9.71146 14.971 9.72959 14.1872 9.73709C13.6151 9.76734 12.9998 9.81696 12.5151 10.1533C12.143 10.4082 12.03 10.9227 12.1627 11.3371C12.288 11.6346 12.6313 11.7306 12.9125 11.8191C14.5311 12.2425 16.2463 12.2002 17.8341 12.7573C18.4915 12.9845 19.1345 13.4261 19.3595 14.1143C19.6538 15.0368 19.5248 16.1393 18.8685 16.8798C18.3362 17.4892 17.5611 17.821 16.788 18.0011C15.7595 18.2305 14.6921 18.2363 13.6476 18.1345C12.6655 18.0225 11.6433 17.7645 10.8852 17.0953C10.2368 16.5323 9.92021 15.6551 9.95159 14.8086C9.95909 14.6656 10.1015 14.5658 10.2385 14.5776C10.6308 14.5745 11.0233 14.5733 11.4157 14.5782C11.5726 14.567 11.6887 14.7025 11.6968 14.8502C11.7691 15.3241 11.9472 15.8216 12.3606 16.1025C13.1581 16.6171 14.159 16.5818 15.0722 16.5962C15.8288 16.5627 16.6782 16.5526 17.2956 16.0525C17.6213 15.7672 17.7178 15.29 17.6298 14.8795C17.5345 14.5328 17.1718 14.3713 16.8605 14.2657C15.2626 13.7603 13.5281 13.9437 11.9457 13.3721C11.3032 13.1451 10.682 12.7158 10.4352 12.0558C10.0908 11.1217 10.2486 9.96621 10.9737 9.25084C11.6807 8.53896 12.7012 8.26484 13.6716 8.16684Z" fill="#81CD39"/>
</svg>
