<svg width="25" height="13" viewBox="0 0 25 13" fill="none" xmlns="http://www.w3.org/2000/svg">
<path d="M2.14475 2.53075H5.69575C6.738 2.5395 7.49325 2.84 7.9615 3.43175C8.42975 4.0235 8.58425 4.83175 8.42525 5.8565C8.3635 6.32475 8.2265 6.784 8.0145 7.2345C7.81125 7.685 7.52875 8.09125 7.1665 8.4535C6.72475 8.91275 6.25225 9.20425 5.74875 9.328C5.24525 9.45175 4.724 9.5135 4.18525 9.5135H2.59525L2.09175 12.031H0.25L2.14475 2.53075ZM3.695 4.04125L2.9 8.01625C2.953 8.025 3.006 8.0295 3.059 8.0295H3.2445C4.0925 8.03825 4.79925 7.9545 5.3645 7.77775C5.92975 7.59225 6.30975 6.9475 6.504 5.84325C6.663 4.91575 6.504 4.38125 6.027 4.24C5.55875 4.09875 4.9715 4.0325 4.26475 4.04125C4.15875 4.05 4.05725 4.0545 3.96 4.0545H3.68175L3.695 4.04125ZM10.5232 0H12.3517L11.835 2.53075H13.478C14.379 2.5485 15.0503 2.734 15.492 3.08725C15.9425 3.4405 16.075 4.112 15.8895 5.10125L15.0018 9.5135H13.1467L13.9947 5.3C14.083 4.85825 14.0565 4.54475 13.9153 4.35925C13.774 4.17375 13.4692 4.081 13.001 4.081L11.5302 4.06775L10.4438 9.5135H8.61525L10.5232 0ZM17.853 2.53075H21.404C22.4462 2.5395 23.2015 2.84 23.6698 3.43175C24.138 4.0235 24.2925 4.83175 24.1335 5.8565C24.0717 6.32475 23.9347 6.784 23.7227 7.2345C23.5195 7.685 23.237 8.09125 22.8748 8.4535C22.433 8.91275 21.9605 9.20425 21.457 9.328C20.9535 9.45175 20.4322 9.5135 19.8935 9.5135H18.3035L17.8 12.031H15.9583L17.853 2.53075ZM19.4032 4.04125L18.6082 8.01625C18.6612 8.025 18.7143 8.0295 18.7673 8.0295H18.9527C19.8007 8.03825 20.5075 7.9545 21.0728 7.77775C21.638 7.59225 22.018 6.9475 22.2122 5.84325C22.3713 4.91575 22.2122 4.38125 21.7353 4.24C21.267 4.09875 20.6798 4.0325 19.973 4.04125C19.867 4.05 19.7655 4.0545 19.6682 4.0545H19.39L19.4032 4.04125Z" fill="white"/>
</svg>
