<svg width="32" height="32" viewBox="0 0 32 32" fill="none" xmlns="http://www.w3.org/2000/svg">
<path d="M24.5 0H7.5C3.35786 0 0 3.35786 0 7.5V24.5C0 28.6421 3.35786 32 7.5 32H24.5C28.6421 32 32 28.6421 32 24.5V7.5C32 3.35786 28.6421 0 24.5 0Z" fill="#242938"/>
<path d="M6.14475 12.5308H9.69575C10.738 12.5395 11.4933 12.84 11.9615 13.4318C12.4298 14.0235 12.5843 14.8317 12.4253 15.8565C12.3635 16.3247 12.2265 16.784 12.0145 17.2345C11.8112 17.685 11.5288 18.0913 11.1665 18.4535C10.7248 18.9128 10.2522 19.2042 9.74875 19.328C9.24525 19.4517 8.724 19.5135 8.18525 19.5135H6.59525L6.09175 22.031H4.25L6.14475 12.5308ZM7.695 14.0413L6.9 18.0163C6.953 18.025 7.006 18.0295 7.059 18.0295H7.2445C8.0925 18.0382 8.79925 17.9545 9.3645 17.7778C9.92975 17.5923 10.3097 16.9475 10.504 15.8433C10.663 14.9158 10.504 14.3812 10.027 14.24C9.55875 14.0987 8.9715 14.0325 8.26475 14.0413C8.15875 14.05 8.05725 14.0545 7.96 14.0545H7.68175L7.695 14.0413ZM14.5232 10H16.3517L15.835 12.5308H17.478C18.379 12.5485 19.0503 12.734 19.492 13.0872C19.9425 13.4405 20.075 14.112 19.8895 15.1012L19.0018 19.5135H17.1467L17.9947 15.3C18.083 14.8583 18.0565 14.5448 17.9153 14.3593C17.774 14.1738 17.4692 14.081 17.001 14.081L15.5302 14.0677L14.4438 19.5135H12.6152L14.5232 10ZM21.853 12.5308H25.404C26.4462 12.5395 27.2015 12.84 27.6698 13.4318C28.138 14.0235 28.2925 14.8317 28.1335 15.8565C28.0717 16.3247 27.9347 16.784 27.7227 17.2345C27.5195 17.685 27.237 18.0913 26.8748 18.4535C26.433 18.9128 25.9605 19.2042 25.457 19.328C24.9535 19.4517 24.4322 19.5135 23.8935 19.5135H22.3035L21.8 22.031H19.9583L21.853 12.5308ZM23.4032 14.0413L22.6082 18.0163C22.6612 18.025 22.7143 18.0295 22.7673 18.0295H22.9527C23.8007 18.0382 24.5075 17.9545 25.0728 17.7778C25.638 17.5923 26.018 16.9475 26.2122 15.8433C26.3712 14.9158 26.2123 14.3812 25.7353 14.24C25.267 14.0987 24.6797 14.0325 23.973 14.0413C23.867 14.05 23.7655 14.0545 23.6682 14.0545H23.39L23.4032 14.0413Z" fill="white"/>
</svg>
