<svg width="34" height="28" viewBox="0 0 34 28" fill="none" xmlns="http://www.w3.org/2000/svg">
<path d="M27.9548 9.07537C27.5929 8.96046 27.228 8.854 26.8604 8.75611C26.9222 8.52254 26.979 8.29179 27.0295 8.0651C27.858 4.34258 27.3163 1.34363 25.4664 0.356238C23.6927 -0.590344 20.7919 0.396683 17.8624 2.75662C17.5736 2.98962 17.2913 3.22933 17.0157 3.47553C16.8311 3.31182 16.6434 3.15128 16.4524 2.99401C13.3821 0.470688 10.3045 -0.592803 8.45657 0.39742C6.68445 1.34695 6.15971 4.16617 6.90559 7.69409C6.97979 8.0435 7.06358 8.3911 7.15687 8.73656C6.72124 8.85114 6.30089 8.97308 5.8986 9.1029C2.29885 10.2646 0 12.0851 0 13.9735C0 15.9238 2.46792 17.8801 6.21722 19.0662C6.52118 19.162 6.82767 19.2507 7.13641 19.3324C7.03614 19.7045 6.94712 20.0791 6.86946 20.4557C6.15838 23.9224 6.71367 26.675 8.48101 27.6185C10.3064 28.5929 13.3701 27.5915 16.3532 25.1777C16.5951 24.9815 16.8317 24.7797 17.0627 24.5725C17.3612 24.8391 17.6677 25.0979 17.9818 25.3487C20.8715 27.6503 23.7254 28.5796 25.491 27.6335C27.3146 26.6563 27.9074 23.6993 27.1378 20.1017C27.0772 19.8198 27.0092 19.5394 26.934 19.2606C27.1491 19.2016 27.3603 19.1409 27.5662 19.0777C31.4639 17.8824 34 15.9499 34 13.9735C34 12.0782 31.6269 10.2454 27.9548 9.07537ZM27.1094 17.8016C26.9235 17.8585 26.7328 17.9135 26.5383 17.967C26.108 16.706 25.5274 15.3653 24.8167 13.98C25.4948 12.6278 26.0532 11.3041 26.4714 10.0515C26.8192 10.1446 27.1567 10.2429 27.4821 10.3465C30.6284 11.3491 32.5476 12.8313 32.5476 13.9735C32.5476 15.19 30.4749 16.7694 27.1094 17.8016ZM25.713 20.3628C26.0533 21.9536 26.1018 23.3919 25.8764 24.5163C25.674 25.5267 25.2668 26.2003 24.7632 26.4701C23.6918 27.0442 21.4003 26.298 18.9291 24.3296C18.637 24.0964 18.3519 23.8558 18.0742 23.608C19.0323 22.6382 19.9897 21.5108 20.9242 20.2586C22.5679 20.1236 24.1207 19.9028 25.529 19.6015C25.5968 19.8539 25.6582 20.1077 25.713 20.3628ZM11.5913 26.3709C10.5445 26.713 9.71072 26.7229 9.2067 26.4539C8.13423 25.8814 7.68838 23.6712 8.29653 20.7065C8.36882 20.3562 8.4516 20.0078 8.54476 19.6617C9.93743 19.9469 11.479 20.152 13.1265 20.2756C14.0674 21.5009 15.0524 22.6271 16.0452 23.6133C15.8342 23.8022 15.6183 23.9864 15.3975 24.1655C14.0783 25.2328 12.7564 25.99 11.5913 26.3709ZM6.68711 17.7941C5.02921 17.2696 3.66005 16.5879 2.72159 15.844C1.87823 15.1757 1.45257 14.5119 1.45257 13.9735C1.45257 12.8275 3.29827 11.3658 6.37673 10.3724C6.75033 10.252 7.14133 10.1382 7.54707 10.0315C7.9726 11.3125 8.53068 12.6518 9.20417 14.0062C8.52191 15.3806 7.95587 16.7413 7.52622 18.0374C7.2444 17.9627 6.96462 17.8816 6.68711 17.7941ZM8.33106 7.43581C7.6921 4.41326 8.11644 2.13323 9.18438 1.56098C10.3218 0.951478 12.837 1.82049 15.4881 3.99935C15.6609 4.14175 15.831 4.28704 15.9982 4.43515C15.0103 5.41701 14.0343 6.53484 13.1018 7.75285C11.5028 7.89005 9.97209 8.11034 8.56481 8.4055C8.47811 8.08418 8.40017 7.76077 8.33106 7.43581ZM22.9971 10.7879C22.6648 10.2565 22.32 9.73174 21.9632 9.21403C23.048 9.34102 24.0874 9.50956 25.0634 9.7156C24.7705 10.585 24.4052 11.4938 23.9753 12.4257C23.6611 11.8738 23.3349 11.3278 22.9971 10.7879ZM17.0163 5.39599C17.6862 6.06782 18.3572 6.81783 19.0172 7.63164C17.6784 7.57312 16.3374 7.57287 14.9986 7.63091C15.6593 6.82459 16.3359 6.07556 17.0163 5.39599ZM10.9971 10.7972C10.6636 11.3326 10.3435 11.8752 10.0373 12.4245C9.61443 11.496 9.25252 10.583 8.95701 9.70134C9.92707 9.50047 10.9615 9.33623 12.0395 9.21157C11.6787 9.73244 11.3311 10.2612 10.9971 10.7972ZM12.0704 18.8311C10.9568 18.716 9.90675 18.5602 8.93695 18.3648C9.23711 17.4674 9.60699 16.5349 10.039 15.5865C10.3465 16.1362 10.6678 16.6791 11.0029 17.2149C11.3474 17.7656 11.7041 18.305 12.0704 18.8311ZM17.0564 22.6457C16.3679 21.9582 15.6813 21.1976 15.0107 20.3796C15.6618 20.4032 16.3254 20.4153 17 20.4153C17.693 20.4153 18.3781 20.4009 19.0524 20.3731C18.3903 21.2059 17.7218 21.9676 17.0564 22.6457ZM23.989 15.5381C24.4435 16.4969 24.8265 17.4245 25.1306 18.3065C24.1449 18.5148 23.0806 18.6824 21.9591 18.807C22.3184 18.2797 22.6664 17.7458 23.0029 17.2056C23.3449 16.6566 23.6737 16.1006 23.989 15.5381ZM21.7447 16.5339C21.2297 17.3621 20.6857 18.1745 20.1137 18.9699C19.0774 19.0378 18.0389 19.0715 17 19.071C15.9419 19.071 14.9127 19.0405 13.9217 18.981C13.3347 18.1875 12.7803 17.3737 12.2598 16.5413C11.7417 15.7134 11.2579 14.8675 10.8092 14.0056C11.2568 13.1434 11.7392 12.2972 12.2555 11.4686L12.2554 11.4687C12.7715 10.64 13.3214 9.82961 13.904 9.03947C14.9151 8.96866 15.952 8.93178 16.9999 8.93178C18.0525 8.93178 19.0909 8.96903 20.1017 9.04033C20.6784 9.82929 21.2248 10.6368 21.7399 11.4615C22.258 12.2882 22.7468 13.1304 23.2057 13.9865C22.7515 14.8514 22.2642 15.7011 21.7447 16.5339ZM24.741 1.5209C25.8794 2.12868 26.3222 4.57959 25.6069 7.79367C25.5612 7.99872 25.51 8.20758 25.4542 8.4194C24.0434 8.11796 22.5117 7.89386 20.908 7.75458C19.9738 6.52316 19.0057 5.40361 18.0339 4.43441C18.2886 4.20717 18.5494 3.98582 18.8159 3.77057C21.3261 1.7487 23.6721 0.950372 24.741 1.5209ZM17 11.1633C18.6768 11.1633 20.0361 12.4215 20.0361 13.9735C20.0361 15.5255 18.6768 16.7837 17 16.7837C15.3232 16.7837 13.9639 15.5255 13.9639 13.9735C13.9639 12.4215 15.3232 11.1633 17 11.1633Z" fill="#00D8FF"/>
</svg>
