<svg width="32" height="20" viewBox="0 0 32 20" fill="none" xmlns="http://www.w3.org/2000/svg">
<path d="M9.75825 13.2802C11.3605 13.2802 12.6594 11.7898 12.6594 9.95113C12.6594 8.11274 11.3605 6.62231 9.75813 6.62231C8.156 6.62231 6.85712 8.11259 6.85712 9.95127C6.85712 11.7898 8.156 13.2802 9.75825 13.2802ZM2.90112 19.938C4.50337 19.938 5.80225 18.4477 5.80225 16.609C5.80225 14.7707 4.50338 13.2802 2.901 13.2802C1.299 13.2802 0 14.7705 0 16.609C0 18.4476 1.29875 19.938 2.90112 19.938ZM29.0989 19.938C30.7011 19.938 32 18.4477 32 16.609C32 14.7707 30.7013 13.2802 29.0989 13.2802C27.4966 13.2802 26.1978 14.7705 26.1978 16.609C26.1978 18.4476 27.4966 19.9381 29.099 19.9381L29.0989 19.938Z" fill="black"/>
<path d="M19.5706 10.0916C19.4779 8.9794 19.4306 8.05367 18.6881 7.40306C17.7479 6.57917 16.6826 7.11375 15.3706 6.57028C14.0812 6.21241 13.125 4.89899 13.125 3.33341C13.125 1.49243 14.4473 0 16.0783 0C17.2864 0 18.325 0.818578 18.7825 1.99129C19.4826 3.51743 19.0275 5.07039 19.9072 5.85268C20.9489 6.77898 22.3532 6.10068 23.9202 6.97835C24.4204 7.24172 24.8464 7.66028 25.1502 8.18678C25.4604 8.72444 25.6256 9.35513 25.625 9.99993C25.625 11.5655 24.6687 12.8791 23.3795 13.2369C22.0674 13.7804 21.0021 13.2458 20.0619 14.0697C19.0044 14.9963 19.5705 16.5464 18.7086 18.1837C18.2195 19.262 17.2253 20 16.0783 20C14.4473 20 13.125 18.5076 13.125 16.6666C13.125 15.3294 13.8228 14.176 14.8298 13.645C16.3968 12.7672 17.801 13.4456 18.8428 12.5193C19.4436 11.9849 19.5706 11.1606 19.5706 10.0916Z" fill="#D0021B"/>
</svg>
