<svg width="26" height="24" viewBox="0 0 26 24" fill="none" xmlns="http://www.w3.org/2000/svg">
<path d="M13.0001 14.3688C14.2881 14.3688 15.3321 13.3247 15.3321 12.0368C15.3321 10.749 14.2881 9.70483 13.0001 9.70483C11.7122 9.70483 10.6681 10.749 10.6681 12.0368C10.6681 13.3247 11.7122 14.3688 13.0001 14.3688Z" fill="#00D8FF"/>
<path d="M13.0002 7.29565C16.1312 7.29565 19.0399 7.7449 21.233 8.50003C23.8754 9.40965 25.5 10.7885 25.5 12.0372C25.5 13.3383 23.7782 14.8032 20.9406 15.7433C18.7954 16.454 15.9724 16.825 13.0002 16.825C9.953 16.825 7.06737 16.4768 4.89787 15.7354C2.15312 14.7973 0.5 13.3135 0.5 12.0372C0.5 10.7987 2.05125 9.4304 4.6565 8.52215C6.85775 7.75465 9.83813 7.29565 12.9998 7.29565H13.0002Z" stroke="#00D8FF"/>
<path d="M8.87262 9.67975C10.4369 6.9675 12.279 4.67225 14.0287 3.14975C16.1367 1.31512 18.143 0.596623 19.2245 1.22025C20.3516 1.87025 20.7605 4.09375 20.1574 7.0215C19.7017 9.23487 18.6125 11.8656 17.1276 14.4404C15.6052 17.0801 13.8621 19.4059 12.1362 20.9144C9.95237 22.8234 7.841 23.5142 6.73537 22.8766C5.6625 22.2584 5.25225 20.2307 5.767 17.5201C6.20187 15.2297 7.29325 12.4186 8.87212 9.67975H8.87262Z" stroke="#00D8FF"/>
<path d="M8.87649 14.4471C7.30787 11.7378 6.23987 8.99508 5.79412 6.71883C5.25749 3.9762 5.63687 1.87933 6.71749 1.25383C7.84362 0.601827 9.97399 1.35808 12.2092 3.34283C13.8992 4.84333 15.6346 7.10045 17.1237 9.6727C18.6505 12.31 19.7947 14.9818 20.2399 17.2303C20.8031 20.0758 20.3472 22.25 19.2426 22.8893C18.1709 23.5098 16.2095 22.853 14.1181 21.0532C12.3511 19.5327 10.4606 17.1833 8.87649 14.4471Z" stroke="#00D8FF"/>
</svg>
