<svg width="32" height="32" viewBox="0 0 32 32" fill="none" xmlns="http://www.w3.org/2000/svg">
<path d="M24.5 0H7.5C3.35786 0 0 3.35786 0 7.5V24.5C0 28.6421 3.35786 32 7.5 32H24.5C28.6421 32 32 28.6421 32 24.5V7.5C32 3.35786 28.6421 0 24.5 0Z" fill="#242938"/>
<path d="M16.0001 18.3688C17.2881 18.3688 18.3321 17.3247 18.3321 16.0368C18.3321 14.749 17.2881 13.7048 16.0001 13.7048C14.7122 13.7048 13.6681 14.749 13.6681 16.0368C13.6681 17.3247 14.7122 18.3688 16.0001 18.3688Z" fill="#00D8FF"/>
<path d="M16.0002 11.2957C19.1312 11.2957 22.0399 11.7449 24.233 12.5C26.8754 13.4097 28.5 14.7885 28.5 16.0372C28.5 17.3383 26.7782 18.8032 23.9406 19.7433C21.7954 20.454 18.9724 20.825 16.0002 20.825C12.953 20.825 10.0674 20.4768 7.89787 19.7354C5.15312 18.7973 3.5 17.3135 3.5 16.0372C3.5 14.7987 5.05125 13.4304 7.6565 12.5222C9.85775 11.7547 12.8381 11.2957 15.9998 11.2957H16.0002Z" stroke="#00D8FF"/>
<path d="M11.8726 13.6797C13.4369 10.9675 15.279 8.67225 17.0287 7.14975C19.1367 5.31512 21.143 4.59662 22.2245 5.22025C23.3516 5.87025 23.7605 8.09375 23.1574 11.0215C22.7017 13.2349 21.6125 15.8656 20.1276 18.4404C18.6052 21.0801 16.8621 23.4059 15.1362 24.9144C12.9524 26.8234 10.841 27.5142 9.73537 26.8766C8.6625 26.2584 8.25225 24.2307 8.767 21.5201C9.20187 19.2297 10.2932 16.4186 11.8721 13.6797H11.8726Z" stroke="#00D8FF"/>
<path d="M11.8765 18.4471C10.3079 15.7378 9.23987 12.9951 8.79412 10.7188C8.25749 7.9762 8.63687 5.87933 9.71749 5.25383C10.8436 4.60183 12.974 5.35808 15.2092 7.34283C16.8992 8.84333 18.6346 11.1005 20.1237 13.6727C21.6505 16.31 22.7947 18.9818 23.2399 21.2303C23.8031 24.0758 23.3472 26.25 22.2426 26.8893C21.1709 27.5098 19.2095 26.853 17.1181 25.0532C15.3511 23.5327 13.4606 21.1833 11.8765 18.4471Z" stroke="#00D8FF"/>
</svg>
