<svg width="32" height="32" viewBox="0 0 32 32" fill="none" xmlns="http://www.w3.org/2000/svg">
<path d="M24.5 0H7.5C3.35786 0 0 3.35786 0 7.5V24.5C0 28.6421 3.35786 32 7.5 32H24.5C28.6421 32 32 28.6421 32 24.5V7.5C32 3.35786 28.6421 0 24.5 0Z" fill="#764ABC"/>
<path d="M20.8224 20.6999C21.745 20.6044 22.4449 19.8091 22.413 18.8547C22.3813 17.9003 21.5859 17.1368 20.6315 17.1368H20.5679C19.5816 17.1686 18.8181 17.9957 18.8499 18.9819C18.8818 19.4592 19.0726 19.8727 19.3589 20.1591C18.2773 22.2906 16.623 23.8494 14.1415 25.1538C12.4554 26.0446 10.7056 26.3627 8.95589 26.1401C7.52426 25.9492 6.41089 25.3128 5.71089 24.2631C4.69289 22.7042 4.59751 21.0181 5.45639 19.3319C6.06089 18.1229 7.01526 17.2322 7.61976 16.7868C7.49251 16.3733 7.30164 15.6733 7.20614 15.1643C2.59326 18.5048 3.07039 23.0223 4.47014 25.1538C5.52014 26.7444 7.65151 27.7307 10.0058 27.7307C10.642 27.7307 11.2783 27.6671 11.9145 27.5079C15.9868 26.7127 19.0726 24.2948 20.8224 20.6999Z" fill="white"/>
<path d="M26.4215 16.7549C24.0038 13.9234 20.4406 12.3647 16.3685 12.3647H15.8595C15.5731 11.7919 14.9686 11.4102 14.3006 11.4102H14.237C13.2508 11.442 12.4873 12.2692 12.519 13.2554C12.5509 14.2098 13.3461 14.9733 14.3006 14.9733H14.3643C15.0641 14.9415 15.6686 14.4962 15.9231 13.8917H16.4958C18.9135 13.8917 21.2041 14.5915 23.272 15.9595C24.8626 17.0094 26.008 18.3774 26.6443 20.0317C27.1851 21.3678 27.1533 22.6722 26.5806 23.7857C25.6899 25.4718 24.1946 26.3944 22.2221 26.3944C20.9496 26.3944 19.7408 26.0127 19.1044 25.7263C18.7545 26.0444 18.1183 26.5534 17.6729 26.8715C19.0408 27.5078 20.4406 27.8578 21.7768 27.8578C24.8309 27.8578 27.0896 26.1717 27.9486 24.4855C28.8713 22.6404 28.8076 19.459 26.4215 16.7549Z" fill="white"/>
<path d="M10.2602 21.2407C10.2921 22.1951 11.0873 22.9586 12.0418 22.9586H12.1055C13.0916 22.9268 13.8552 22.0996 13.8233 21.1134C13.7916 20.159 12.9962 19.3955 12.0418 19.3955H11.9781C11.9146 19.3955 11.8191 19.3955 11.7556 19.4274C10.4511 17.264 9.91034 14.9097 10.1012 12.3647C10.2285 10.456 10.8647 8.80162 11.9782 7.4335C12.9007 6.2565 14.6823 5.68387 15.8912 5.652C19.2635 5.58837 20.6951 9.78775 20.7905 11.4739C21.2041 11.5694 21.904 11.7921 22.3812 11.9511C21.9995 6.7975 18.8181 4.125 15.764 4.125C12.9007 4.125 10.2602 6.19287 9.21034 9.247C7.74697 13.3191 8.70134 17.2321 10.4828 20.3181C10.3238 20.5407 10.2283 20.8907 10.2602 21.2407Z" fill="white"/>
</svg>
