<svg width="276" height="18" viewBox="0 0 276 18" fill="none" xmlns="http://www.w3.org/2000/svg">
<g filter="url(#filter0_d_28_8)">
<rect x="6.99997" y="6" width="225" height="6" rx="3" fill="#3CC4FF"/>
</g>
<path d="M229.5 5C229.5 4.17157 230.172 3.5 231 3.5H270.5C273.261 3.5 275.5 5.73858 275.5 8.5C275.5 11.2614 273.261 13.5 270.5 13.5H231C230.172 13.5 229.5 12.8284 229.5 12V5Z" fill="white" stroke="#040A0E"/>
<path d="M234.5 3.5V13.5M258.5 13V3.5M260 3.5V13M261.5 13V3.5H263V13M264.5 13V3.5M266 3.5V13M267.5 13V3.5M253.5 3.5V13.5H257V3.5H253.5Z" stroke="#040A0E"/>
<defs>
<filter id="filter0_d_28_8" x="-3.05176e-05" y="0" width="237" height="18" filterUnits="userSpaceOnUse" color-interpolation-filters="sRGB">
<feFlood flood-opacity="0" result="BackgroundImageFix"/>
<feColorMatrix in="SourceAlpha" type="matrix" values="0 0 0 0 0 0 0 0 0 0 0 0 0 0 0 0 0 0 127 0" result="hardAlpha"/>
<feOffset dx="-1"/>
<feGaussianBlur stdDeviation="3"/>
<feComposite in2="hardAlpha" operator="out"/>
<feColorMatrix type="matrix" values="0 0 0 0 1 0 0 0 0 1 0 0 0 0 1 0 0 0 0.75 0"/>
<feBlend mode="normal" in2="BackgroundImageFix" result="effect1_dropShadow_28_8"/>
<feBlend mode="normal" in="SourceGraphic" in2="effect1_dropShadow_28_8" result="shape"/>
</filter>
</defs>
</svg>
