<svg width="32" height="32" viewBox="0 0 32 32" fill="none" xmlns="http://www.w3.org/2000/svg">
<path d="M24.5 0H7.5C3.35786 0 0 3.35786 0 7.5V24.5C0 28.6421 3.35786 32 7.5 32H24.5C28.6421 32 32 28.6421 32 24.5V7.5C32 3.35786 28.6421 0 24.5 0Z" fill="#CD6799"/>
<mask id="mask0_73_26" style="mask-type:luminance" maskUnits="userSpaceOnUse" x="3" y="6" width="26" height="20">
<path d="M3.5 6.625H28.5V25.3636H3.5V6.625Z" fill="white"/>
</mask>
<g mask="url(#mask0_73_26)">
<path d="M25.0133 17.3954C24.1416 17.3999 23.3841 17.6099 22.7497 17.9201C22.5169 17.4593 22.2842 17.0485 22.2431 16.7473C22.1974 16.3959 22.1427 16.1814 22.1974 15.7615C22.2522 15.3416 22.4987 14.7439 22.4941 14.6983C22.4896 14.6525 22.4393 14.4381 21.9373 14.4335C21.4353 14.429 21.0018 14.5294 20.9516 14.6618C20.9013 14.794 20.8056 15.0953 20.7417 15.4056C20.6549 15.862 19.7376 17.4913 19.2128 18.3446C19.0439 18.0115 18.8979 17.7194 18.8659 17.4866C18.8203 17.1353 18.7656 16.9208 18.8203 16.5009C18.8751 16.081 19.1216 15.4831 19.1169 15.4375C19.1124 15.3919 19.0622 15.1774 18.5602 15.1729C18.0582 15.1683 17.6246 15.2686 17.5744 15.401C17.5242 15.5334 17.4694 15.8438 17.3644 16.1449C17.2596 16.4461 16.0411 19.1661 15.7216 19.8689C15.5925 20.1533 15.4571 20.4348 15.3154 20.7131C15.3154 20.7131 15.3108 20.7269 15.2972 20.7496C15.2526 20.8369 15.207 20.9236 15.1602 21.0098V21.0144C15.0918 21.1376 15.0187 21.2516 14.9822 21.2516C14.9548 21.2516 14.9047 20.9231 14.9913 20.4759C15.1739 19.5311 15.6074 18.0616 15.6029 18.0115C15.6029 17.9841 15.6851 17.7285 15.3199 17.5961C14.9639 17.4638 14.8362 17.6829 14.8042 17.6829C14.7723 17.6829 14.7494 17.7605 14.7494 17.7605C14.7494 17.7605 15.1466 16.1084 13.9919 16.1084C13.2708 16.1084 12.2759 16.8979 11.7832 17.6099C11.2228 17.9148 10.663 18.2205 10.1036 18.5271C9.83443 18.6778 9.55606 18.8284 9.29581 18.9699C9.27756 18.9516 9.25931 18.9288 9.24106 18.9105C7.84456 17.4181 5.26156 16.364 5.37106 14.3605C5.41218 13.6303 5.66318 11.7135 10.3318 9.38601C14.1744 7.49213 17.2322 8.01688 17.7616 9.18063C18.5191 10.8419 16.1232 13.9269 12.1528 14.3741C10.6376 14.543 9.84356 13.9589 9.64281 13.7399C9.43281 13.5116 9.40081 13.498 9.32318 13.5436C9.19543 13.612 9.27756 13.8174 9.32318 13.936C9.44193 14.2464 9.93018 14.794 10.7562 15.0633C11.4864 15.3006 13.2617 15.433 15.4112 14.6024C17.8163 13.6714 19.6966 11.0836 19.1443 8.91601C18.5922 6.71626 14.9412 5.99063 11.4864 7.21826C9.43268 7.94851 7.20568 9.09851 5.60381 10.5954C3.70068 12.3754 3.39956 13.9224 3.52281 14.5704C3.96543 16.8705 7.13718 18.3674 8.40593 19.4764C8.34206 19.5129 8.28268 19.5449 8.23256 19.5723C7.59818 19.8871 5.17943 21.1513 4.57693 22.4885C3.89243 24.0036 4.68656 25.0898 5.21131 25.2358C6.84056 25.6876 8.51543 24.8753 9.41456 23.5335C10.3136 22.1918 10.2041 20.4485 9.78868 19.6499C9.78423 19.6398 9.77806 19.6305 9.77043 19.6225C9.93481 19.5266 10.1036 19.4263 10.2679 19.3304C10.5699 19.1519 10.8758 18.98 11.1852 18.8146C11.0301 19.2391 10.9159 19.7456 10.8612 20.4759C10.7928 21.3339 11.1442 22.4474 11.6051 22.8855C11.8104 23.0771 12.0523 23.0818 12.2076 23.0818C12.7461 23.0818 12.9879 22.6345 13.2572 22.1051C13.5857 21.457 13.8824 20.704 13.8824 20.704C13.8824 20.704 13.5127 22.7395 14.5167 22.7395C14.8818 22.7395 15.2514 22.2649 15.4158 22.023V22.0275C15.4158 22.0275 15.4249 22.0139 15.4432 21.9819C15.4797 21.9225 15.5024 21.886 15.5024 21.886V21.8769C15.6486 21.6214 15.9771 21.0418 16.4654 20.0788C17.0952 18.8375 17.7022 17.2859 17.7022 17.2859C17.7022 17.2859 17.7569 17.6646 17.9441 18.2944C18.0536 18.6641 18.2818 19.0703 18.4643 19.4628C18.3183 19.6681 18.2271 19.7821 18.2271 19.7821L18.2316 19.7868C18.1129 19.9419 17.9852 20.1108 17.8437 20.275C17.3462 20.8684 16.7529 21.5484 16.6708 21.7446C16.5749 21.9774 16.5978 22.1461 16.7803 22.2831C16.9127 22.3835 17.1499 22.3971 17.3918 22.3835C17.8391 22.3515 18.1541 22.242 18.3092 22.1735C18.5511 22.0869 18.8341 21.9545 19.0987 21.7583C19.5871 21.3978 19.8837 20.882 19.8563 20.202C19.8426 19.8278 19.7193 19.4536 19.5688 19.1021C19.6144 19.0383 19.6554 18.9744 19.7011 18.9105C20.4724 17.7833 21.0702 16.5465 21.0702 16.5465C21.0702 16.5465 21.1249 16.9253 21.3121 17.5551C21.4033 17.8745 21.5904 18.2214 21.7548 18.5591C21.0292 19.1479 20.5819 19.8324 20.4222 20.2796C20.1347 21.1103 20.3583 21.4844 20.7827 21.5711C20.9744 21.6123 21.2482 21.521 21.4491 21.4343C21.7046 21.3521 22.0058 21.2106 22.2933 21.0006C22.7816 20.6401 23.2517 20.1381 23.2243 19.4581C23.2106 19.1479 23.1284 18.842 23.0143 18.5454C23.6304 18.2899 24.4246 18.1484 25.4377 18.267C27.6101 18.5226 28.0391 19.878 27.9568 20.4485C27.8747 21.0189 27.4183 21.3293 27.2677 21.4251C27.1172 21.521 27.0669 21.5529 27.0807 21.6214C27.0989 21.7218 27.1719 21.7171 27.2997 21.6989C27.4777 21.667 28.4406 21.238 28.4817 20.1884C28.5502 18.8466 27.2723 17.3816 25.0133 17.3954ZM8.25531 23.0453C7.53431 23.8301 6.53031 24.1269 6.09668 23.8759C5.63118 23.6065 5.81368 22.4474 6.69918 21.6168C7.23756 21.1103 7.93131 20.6401 8.39218 20.3526C8.49718 20.2888 8.65231 20.1975 8.83943 20.0834C8.87143 20.0651 8.88968 20.056 8.88968 20.056L8.99918 19.9875C9.32318 21.1741 9.01281 22.2193 8.25531 23.0453ZM13.5036 19.4764C13.2526 20.088 12.7278 21.6533 12.4083 21.5666C12.1346 21.4935 11.9657 20.307 12.3536 19.1341C12.5498 18.5454 12.9651 17.8426 13.2069 17.5688C13.5994 17.1306 14.0329 16.9846 14.1379 17.1626C14.2703 17.3954 13.6588 19.093 13.5036 19.4764ZM17.8346 21.5484C17.7296 21.6031 17.6292 21.6396 17.5836 21.6123C17.5516 21.594 17.6292 21.521 17.6292 21.521C17.6292 21.521 18.1723 20.9368 18.3868 20.6721C18.5099 20.5169 18.6561 20.3344 18.8112 20.129V20.1884C18.8112 20.8866 18.1358 21.3566 17.8346 21.5484ZM21.1752 20.7861C21.0976 20.7314 21.1113 20.5489 21.3714 19.9784C21.4718 19.7548 21.7092 19.3806 22.1153 19.02C22.1609 19.1661 22.1929 19.3075 22.1883 19.4399C22.1838 20.3208 21.5539 20.6493 21.1752 20.7861Z" fill="white"/>
</g>
</svg>
