<svg width="26" height="20" viewBox="0 0 26 20" fill="none" xmlns="http://www.w3.org/2000/svg">
<mask id="mask0_73_26" style="mask-type:luminance" maskUnits="userSpaceOnUse" x="0" y="0" width="26" height="20">
<path d="M0.5 0.625H25.5V19.3636H0.5V0.625Z" fill="white"/>
</mask>
<g mask="url(#mask0_73_26)">
<path d="M22.0133 11.3954C21.1416 11.3999 20.3841 11.6099 19.7497 11.9201C19.5169 11.4593 19.2842 11.0485 19.2431 10.7473C19.1974 10.3959 19.1427 10.1814 19.1974 9.76151C19.2522 9.34163 19.4987 8.74388 19.4941 8.69826C19.4896 8.65251 19.4393 8.43813 18.9373 8.43351C18.4353 8.42901 18.0018 8.52938 17.9516 8.66176C17.9013 8.79401 17.8056 9.09526 17.7417 9.40563C17.6549 9.86201 16.7376 11.4913 16.2128 12.3446C16.0439 12.0115 15.8979 11.7194 15.8659 11.4866C15.8203 11.1353 15.7656 10.9208 15.8203 10.5009C15.8751 10.081 16.1216 9.48313 16.1169 9.43751C16.1124 9.39188 16.0622 9.17738 15.5602 9.17288C15.0582 9.16826 14.6246 9.26863 14.5744 9.40101C14.5242 9.53338 14.4694 9.84376 14.3644 10.1449C14.2596 10.4461 13.0411 13.1661 12.7216 13.8689C12.5925 14.1533 12.4571 14.4348 12.3154 14.7131C12.3154 14.7131 12.3108 14.7269 12.2972 14.7496C12.2526 14.8369 12.207 14.9236 12.1602 15.0098V15.0144C12.0918 15.1376 12.0187 15.2516 11.9822 15.2516C11.9548 15.2516 11.9047 14.9231 11.9913 14.4759C12.1739 13.5311 12.6074 12.0616 12.6029 12.0115C12.6029 11.9841 12.6851 11.7285 12.3199 11.5961C11.9639 11.4638 11.8362 11.6829 11.8042 11.6829C11.7723 11.6829 11.7494 11.7605 11.7494 11.7605C11.7494 11.7605 12.1466 10.1084 10.9919 10.1084C10.2708 10.1084 9.27593 10.8979 8.78318 11.6099C8.22284 11.9148 7.66296 12.2205 7.10356 12.5271C6.83443 12.6778 6.55606 12.8284 6.29581 12.9699C6.27756 12.9516 6.25931 12.9288 6.24106 12.9105C4.84456 11.4181 2.26156 10.364 2.37106 8.36051C2.41218 7.63026 2.66318 5.71351 7.33181 3.38601C11.1744 1.49213 14.2322 2.01688 14.7616 3.18063C15.5191 4.84188 13.1232 7.92688 9.15281 8.37413C7.63756 8.54301 6.84356 7.95888 6.64281 7.73988C6.43281 7.51163 6.40081 7.49801 6.32318 7.54363C6.19543 7.61201 6.27756 7.81738 6.32318 7.93601C6.44193 8.24638 6.93018 8.79401 7.75618 9.06326C8.48643 9.30063 10.2617 9.43301 12.4112 8.60238C14.8163 7.67138 16.6966 5.08363 16.1443 2.91601C15.5922 0.716257 11.9412 -0.00936913 8.48643 1.21826C6.43268 1.94851 4.20568 3.09851 2.60381 4.59538C0.700682 6.37538 0.399557 7.92238 0.522807 8.57038C0.965432 10.8705 4.13718 12.3674 5.40593 13.4764C5.34206 13.5129 5.28268 13.5449 5.23256 13.5723C4.59818 13.8871 2.17943 15.1513 1.57693 16.4885C0.892433 18.0036 1.68656 19.0898 2.21131 19.2358C3.84056 19.6876 5.51543 18.8753 6.41456 17.5335C7.31356 16.1918 7.20406 14.4485 6.78868 13.6499C6.78423 13.6398 6.77806 13.6305 6.77043 13.6225C6.93481 13.5266 7.10356 13.4263 7.26793 13.3304C7.56995 13.1519 7.87577 12.98 8.18518 12.8146C8.03006 13.2391 7.91593 13.7456 7.86118 14.4759C7.79281 15.3339 8.14418 16.4474 8.60506 16.8855C8.81043 17.0771 9.05231 17.0818 9.20756 17.0818C9.74606 17.0818 9.98793 16.6345 10.2572 16.1051C10.5857 15.457 10.8824 14.704 10.8824 14.704C10.8824 14.704 10.5127 16.7395 11.5167 16.7395C11.8818 16.7395 12.2514 16.2649 12.4158 16.023V16.0275C12.4158 16.0275 12.4249 16.0139 12.4432 15.9819C12.4797 15.9225 12.5024 15.886 12.5024 15.886V15.8769C12.6486 15.6214 12.9771 15.0418 13.4654 14.0788C14.0952 12.8375 14.7022 11.2859 14.7022 11.2859C14.7022 11.2859 14.7569 11.6646 14.9441 12.2944C15.0536 12.6641 15.2818 13.0703 15.4643 13.4628C15.3183 13.6681 15.2271 13.7821 15.2271 13.7821L15.2316 13.7868C15.1129 13.9419 14.9852 14.1108 14.8437 14.275C14.3462 14.8684 13.7529 15.5484 13.6708 15.7446C13.5749 15.9774 13.5978 16.1461 13.7803 16.2831C13.9127 16.3835 14.1499 16.3971 14.3918 16.3835C14.8391 16.3515 15.1541 16.242 15.3092 16.1735C15.5511 16.0869 15.8341 15.9545 16.0987 15.7583C16.5871 15.3978 16.8837 14.882 16.8563 14.202C16.8426 13.8278 16.7193 13.4536 16.5688 13.1021C16.6144 13.0383 16.6554 12.9744 16.7011 12.9105C17.4724 11.7833 18.0702 10.5465 18.0702 10.5465C18.0702 10.5465 18.1249 10.9253 18.3121 11.5551C18.4033 11.8745 18.5904 12.2214 18.7548 12.5591C18.0292 13.1479 17.5819 13.8324 17.4222 14.2796C17.1347 15.1103 17.3583 15.4844 17.7827 15.5711C17.9744 15.6123 18.2482 15.521 18.4491 15.4343C18.7046 15.3521 19.0058 15.2106 19.2933 15.0006C19.7816 14.6401 20.2517 14.1381 20.2243 13.4581C20.2106 13.1479 20.1284 12.842 20.0143 12.5454C20.6304 12.2899 21.4246 12.1484 22.4377 12.267C24.6101 12.5226 25.0391 13.878 24.9568 14.4485C24.8747 15.0189 24.4183 15.3293 24.2677 15.4251C24.1172 15.521 24.0669 15.5529 24.0807 15.6214C24.0989 15.7218 24.1719 15.7171 24.2997 15.6989C24.4777 15.667 25.4406 15.238 25.4817 14.1884C25.5502 12.8466 24.2723 11.3816 22.0133 11.3954ZM5.25531 17.0453C4.53431 17.8301 3.53031 18.1269 3.09668 17.8759C2.63118 17.6065 2.81368 16.4474 3.69918 15.6168C4.23756 15.1103 4.93131 14.6401 5.39218 14.3526C5.49718 14.2888 5.65231 14.1975 5.83943 14.0834C5.87143 14.0651 5.88968 14.056 5.88968 14.056L5.99918 13.9875C6.32318 15.1741 6.01281 16.2193 5.25531 17.0453ZM10.5036 13.4764C10.2526 14.088 9.72781 15.6533 9.40831 15.5666C9.13456 15.4935 8.96568 14.307 9.35356 13.1341C9.54981 12.5454 9.96506 11.8426 10.2069 11.5688C10.5994 11.1306 11.0329 10.9846 11.1379 11.1626C11.2703 11.3954 10.6588 13.093 10.5036 13.4764ZM14.8346 15.5484C14.7296 15.6031 14.6292 15.6396 14.5836 15.6123C14.5516 15.594 14.6292 15.521 14.6292 15.521C14.6292 15.521 15.1723 14.9368 15.3868 14.6721C15.5099 14.5169 15.6561 14.3344 15.8112 14.129V14.1884C15.8112 14.8866 15.1358 15.3566 14.8346 15.5484ZM18.1752 14.7861C18.0976 14.7314 18.1113 14.5489 18.3714 13.9784C18.4718 13.7548 18.7092 13.3806 19.1153 13.02C19.1609 13.1661 19.1929 13.3075 19.1883 13.4399C19.1838 14.3208 18.5539 14.6493 18.1752 14.7861Z" fill="white"/>
</g>
</svg>
