<svg width="32" height="32" viewBox="0 0 32 32" fill="none" xmlns="http://www.w3.org/2000/svg">
<path d="M5.38227 3.34015C5.38227 3.34015 5.26552 3.50948 5.37643 3.76014C5.44356 3.91481 5.64786 4.10147 5.8726 4.2988C5.8726 4.2988 8.22937 6.4001 8.51832 6.70409C9.82439 8.0814 10.3921 9.43738 10.4446 11.308C10.4767 12.508 10.2242 13.564 9.60842 14.7919C8.50518 16.9906 6.17905 19.4159 2.58916 22.1118L3.11451 21.9518C3.45453 21.7212 3.91421 21.4732 4.99993 20.9305C7.49972 19.6825 10.306 18.5332 13.7543 17.3492C18.7145 15.6466 26.8735 13.648 31.517 12.9986L32 12.9306L31.927 12.824C31.5009 12.2213 31.212 11.8493 30.8617 11.4547C29.8446 10.304 28.6115 9.36538 27.1011 8.59339C25.026 7.53074 22.3336 6.70543 18.929 6.08677C17.8663 5.90418 16.8004 5.7375 15.7317 5.58678C13.82 5.31891 11.9111 5.03446 10.0053 4.73346C9.38514 4.63346 8.45848 4.49213 7.84412 4.3708C7.37034 4.27883 6.90222 4.164 6.44172 4.02681C6.05063 3.88681 5.50047 3.75081 5.38227 3.34015ZM6.74818 4.55213C6.75256 4.54946 6.84011 4.5748 6.9481 4.60813C7.14657 4.66946 7.40924 4.74146 7.7157 4.82013C7.92876 4.87346 8.1637 4.93212 8.41471 4.98946C8.73283 5.06412 8.99697 5.12812 8.99989 5.13212C9.03491 5.16812 9.57047 6.72943 9.75289 7.32808C9.82293 7.55741 9.87547 7.74807 9.87109 7.75207C9.82023 7.69426 9.77621 7.63169 9.73975 7.56541C9.12101 6.57076 8.1389 5.55878 7.00502 4.74413C6.91687 4.68302 6.8312 4.61897 6.74818 4.55213ZM9.36033 5.21079C9.45633 5.21916 9.55147 5.23432 9.6449 5.25612C10.5482 5.43745 12.1622 5.72278 13.1983 5.88277C13.372 5.90944 13.5135 5.93611 13.5135 5.94544C13.4712 5.98011 13.4229 6.00805 13.3705 6.0281C13.1968 6.1081 12.492 6.49343 12.2571 6.63743C11.7204 6.95946 11.2172 7.32588 10.754 7.73207C10.6605 7.81962 10.5647 7.90498 10.4665 7.98807C10.4414 7.92868 10.4214 7.86761 10.4067 7.80541C10.1588 6.99331 9.84169 6.20022 9.45811 5.43345C9.41959 5.36174 9.38501 5.28831 9.3545 5.21345C9.3545 5.21212 9.3545 5.21079 9.36033 5.21079ZM13.9528 6.00811C13.982 6.01744 14.0403 6.18144 14.141 6.54676C14.3736 7.40821 14.449 8.29882 14.3643 9.18272L14.3468 9.23338L14.0739 9.15338C13.318 8.93702 12.5581 8.73255 11.7945 8.54006C11.5185 8.47554 11.2459 8.39991 10.9772 8.3134C10.9772 8.28406 11.6325 7.68541 11.9141 7.45741C12.4526 7.02275 13.9017 5.99344 13.9528 6.00811ZM14.3176 6.0561C14.3336 6.04277 16.5124 6.38677 17.5018 6.5601C18.2402 6.68943 19.307 6.89342 19.3712 6.91876C19.4033 6.92942 19.2924 6.98542 18.9378 7.13209C17.5368 7.70807 16.4978 8.2254 15.4646 8.85605C15.1932 9.02139 14.967 9.15738 14.9626 9.15738C14.9568 9.15738 14.9539 9.01872 14.9539 8.85072C14.9539 7.93074 14.751 7.00142 14.3833 6.2161C14.356 6.16475 14.334 6.11119 14.3176 6.0561ZM19.9505 7.07475C19.9666 7.08942 19.8951 7.48275 19.8338 7.71474C19.6411 8.43473 19.1304 9.50671 18.5 10.5134C18.4338 10.6269 18.3597 10.7365 18.2781 10.8414C18.1672 10.7984 18.0603 10.7471 17.9586 10.688C17.3427 10.3587 16.6452 10.048 15.8791 9.7587C15.7419 9.70947 15.6066 9.6561 15.4734 9.59871C15.4383 9.56937 17.1414 8.53873 18.0447 8.04407C18.767 7.64808 19.9301 7.05609 19.9505 7.07475ZM20.3533 7.13209C20.4014 7.13209 21.3675 7.37208 21.8666 7.50941C23.1114 7.84941 24.5473 8.32806 25.4784 8.71472L25.8651 8.87472L25.5922 8.93205C23.3142 9.41204 21.3602 9.9627 19.4806 10.66C19.3245 10.7187 19.1888 10.7667 19.1785 10.7667C19.205 10.6811 19.2417 10.5983 19.288 10.52C19.8542 9.42271 20.219 8.27073 20.3139 7.29342C20.3226 7.20408 20.3401 7.13209 20.3533 7.13209ZM10.7511 9.14805C10.7656 9.13472 11.5011 9.29205 11.9024 9.39471C12.5051 9.54938 13.7879 9.94137 13.7879 9.97203C13.7879 9.97737 13.6463 10.0907 13.4741 10.2227C12.729 10.7951 12.0071 11.3924 11.31 12.0133C11.1657 12.1454 11.0158 12.2722 10.8605 12.3933C10.8503 12.3933 10.8459 12.3627 10.8517 12.3267C10.9729 11.512 10.9466 10.4667 10.7788 9.40271C10.7622 9.31904 10.7525 9.23437 10.7496 9.14938L10.7511 9.14805ZM26.2343 9.16138C26.2445 9.17205 25.8928 9.67471 25.6739 9.96137C25.3529 10.38 24.8903 10.9293 23.8337 12.144L22.4415 13.7466C22.3144 13.8973 22.1835 14.0454 22.049 14.1906C22.0446 14.1906 21.976 14.1026 21.8987 13.996C21.3022 13.1827 20.5796 12.4529 19.7535 11.8293C19.6241 11.7303 19.4927 11.6334 19.3595 11.5387C19.3201 11.5145 19.2839 11.4863 19.2515 11.4547C19.2515 11.4413 20.1519 11.0893 20.8392 10.8334C22.1708 10.3443 23.5232 9.904 24.8932 9.51338C25.5382 9.33338 26.2241 9.15338 26.2343 9.16138ZM26.64 9.25871C26.7463 9.29157 26.8478 9.33636 26.942 9.39205C28.2287 10.0656 29.4189 10.8825 30.4852 11.824C30.7683 12.0773 31.4586 12.7347 31.4484 12.74L30.9187 12.7787C28.6859 12.932 25.8315 13.3653 23.0822 13.9693C22.8954 14.0093 22.7349 14.044 22.7232 14.044C22.713 14.044 22.9173 13.8573 23.177 13.628C24.7925 12.2107 25.528 11.316 26.3948 9.71604C26.5232 9.47871 26.6327 9.27205 26.6371 9.26005H26.64V9.25871ZM14.8371 10.3654C14.9115 10.3787 15.6003 10.672 16.1198 10.9094C16.5941 11.1267 17.3135 11.4773 17.35 11.508C17.3544 11.512 17.1019 11.632 16.7867 11.776C15.8516 12.2002 14.9372 12.6615 14.0462 13.1586C13.7908 13.3013 13.5792 13.4173 13.5719 13.4173C13.55 13.4173 13.5573 13.4 13.7003 13.1626C14.1931 12.3228 14.5556 11.4245 14.7773 10.4934C14.7977 10.4107 14.8211 10.36 14.8371 10.364V10.3654ZM14.1439 10.4774C14.1585 10.4907 13.9805 11.0907 13.8667 11.4107C13.5583 12.2526 13.1497 13.0609 12.6481 13.8213L12.5168 14.0173L12.2206 13.7546C11.9323 13.4862 11.5994 13.2612 11.2341 13.088C11.1437 13.0507 11.0576 13.0051 10.9772 12.952C10.9772 12.912 11.882 12.1613 12.5796 11.6213C13.0801 11.2347 14.1323 10.4654 14.1439 10.4774ZM18.3584 12.0613L18.6167 12.2147C19.2106 12.5667 19.9126 13.04 20.4481 13.4466C20.7488 13.676 21.331 14.1533 21.4507 14.268L21.5149 14.3306L21.0859 14.44C18.8921 14.9866 16.7255 15.6201 14.5919 16.3386C14.4379 16.3925 14.2822 16.4423 14.125 16.4879C14.0943 16.4879 14.0637 16.5133 14.6109 16.0533C16.0118 14.8759 17.2479 13.5786 18.1716 12.3173L18.3584 12.0613ZM17.2508 12.3147C17.2639 12.3267 16.5328 13.2613 16.0994 13.7893C15.5799 14.42 14.6547 15.4759 14.0184 16.1626C13.856 16.3436 13.6876 16.5201 13.5135 16.6919C13.4989 16.6959 13.4916 16.6252 13.4902 16.5146C13.4902 15.9279 13.3267 15.3013 13.0407 14.7706C12.9196 14.5466 12.8992 14.4933 12.924 14.472C13.0232 14.3893 14.5686 13.584 15.542 13.108C16.2118 12.78 17.2391 12.3027 17.2508 12.3147ZM10.5526 13.8146C10.9767 14.0003 11.3745 14.2322 11.7375 14.5053C11.7492 14.512 11.6106 14.616 11.4311 14.7346C10.9276 15.0666 10.1615 15.5933 9.71932 15.9159C9.25235 16.2559 9.23629 16.2666 9.28883 16.1919C9.63906 15.7026 9.81418 15.4266 9.99805 15.0719C10.163 14.7573 10.3249 14.384 10.4417 14.0586C10.4658 13.9727 10.5022 13.8905 10.5526 13.8146ZM12.3373 15.0946C12.3621 15.0906 12.3957 15.1319 12.5402 15.3279C12.8422 15.7413 13.0743 16.2906 13.1341 16.7386L13.1458 16.8359L12.4205 17.0919C11.3064 17.4832 10.2038 17.9011 9.11371 18.3452C8.88752 18.4412 8.48913 18.6145 8.22791 18.7345C7.9667 18.8545 7.75364 18.9479 7.75364 18.9425C7.75364 18.9372 7.91708 18.8239 8.11847 18.6919C9.70473 17.6386 11.0736 16.4866 12.1053 15.3333C12.2147 15.2106 12.3154 15.1039 12.3286 15.0959C12.3313 15.0945 12.3342 15.0936 12.3373 15.0933V15.0946ZM11.5143 15.2813C11.5362 15.2999 10.9291 15.9266 10.5205 16.3079C9.53337 17.2347 8.42806 18.0498 7.22829 18.7359C7.07068 18.8279 6.92767 18.9092 6.90724 18.9199C6.87368 18.9385 6.91892 18.8905 7.47054 18.3412C7.81785 17.9959 8.08344 17.7092 8.38698 17.3506C8.5269 17.1656 8.70665 17.0086 8.91525 16.8892C9.69889 16.3719 11.4938 15.2613 11.5143 15.2799V15.2813ZM12.9721 0.000211471C12.8554 -0.0131216 10.9714 0.606867 9.76164 1.05486C8.12284 1.66418 6.84887 2.24684 6.06376 2.75083C5.7719 2.93749 5.40416 3.27482 5.35162 3.40415C5.33092 3.45674 5.32055 3.51226 5.32098 3.56815L6.03312 4.18147L7.72299 4.6748L11.7492 5.33345L16.3504 6.0561L16.3971 5.69611L16.3562 5.68944L15.7506 5.60145L15.6266 5.40412C15.0012 4.39599 14.428 3.36153 13.909 2.30417C13.6061 1.66871 13.3478 1.01629 13.1356 0.350872C13.0363 0.0268777 13.0261 0.00687802 12.9721 0.000211471ZM12.8831 0.248207H12.8904C12.8948 0.252207 12.9152 0.388205 12.9371 0.548202C13.0276 1.22552 13.1939 1.88151 13.4537 2.58817C13.6492 3.12149 13.6522 3.09082 13.4187 3.03082C12.8787 2.89349 10.4534 2.5135 8.69927 2.29084C8.5251 2.27054 8.35141 2.24698 8.1783 2.22017C8.15641 2.20017 9.44352 1.58418 10.0141 1.34019C10.7452 1.03086 12.7386 0.27354 12.8831 0.248207ZM7.77261 2.41884L7.97837 2.48283C9.10496 2.83216 11.9273 3.32549 13.4872 3.44282C13.6624 3.45615 13.8112 3.47082 13.8156 3.47482C13.82 3.47882 13.6697 3.55215 13.4829 3.63748C12.7313 3.98147 11.9024 4.40147 11.3289 4.72946C11.1611 4.82546 11.0079 4.90279 10.986 4.90146C10.9031 4.89079 10.8204 4.87879 10.7379 4.86546L10.5278 4.83479L9.99513 4.36147C9.05972 3.53482 8.33007 2.89483 8.04696 2.65483L7.77261 2.41884ZM7.56393 2.57083L8.30964 3.42148C8.72116 3.88814 9.13268 4.35347 9.22316 4.45347C9.3151 4.55346 9.38514 4.63746 9.38077 4.64013C9.36034 4.6548 8.30088 4.4668 7.73905 4.34813C7.34365 4.27135 6.95258 4.17702 6.56722 4.06547L6.27536 3.98014L6.27682 3.91481C6.2812 3.58815 6.73213 3.10549 7.4968 2.6135L7.56393 2.57083ZM13.9148 3.72948C13.9367 3.73081 13.9615 3.77214 14.0272 3.90414C14.2081 4.2668 14.7714 5.24812 14.9072 5.43745C14.9509 5.50011 15.0239 5.50411 14.2753 5.39345C12.4803 5.12945 11.8981 5.04012 11.8981 5.02946C11.9346 5.00047 11.9754 4.97624 12.0192 4.95746C12.5918 4.66391 13.1327 4.3215 13.6346 3.93481L13.89 3.73881C13.8988 3.73214 13.9075 3.72815 13.9148 3.72948ZM20.203 14.9399L13.1866 17.0306L7.08674 19.4919L5.37935 19.9052C4.47463 20.6867 3.53603 21.4349 2.56581 22.1478C2.06174 22.5288 1.59629 22.9505 1.17509 23.4078C0.690602 23.9598 0.311183 24.5464 0.14774 24.9984C-0.144121 25.8118 -0.00256786 26.6357 0.563643 27.3957C1.286 28.3664 2.72341 29.353 4.39432 30.025C5.24801 30.3663 6.68543 30.809 7.76531 31.057C9.56464 31.473 13.0392 31.9236 14.9539 31.9903C15.342 32.0036 15.8586 32.0036 15.8834 31.9876C15.9243 31.9623 16.2234 31.4477 16.5693 30.801C17.7455 28.6064 18.5963 26.5477 19.0545 24.7904C19.3318 23.7251 19.5477 22.3065 19.6878 20.6238C19.7309 19.7649 19.7387 18.9047 19.7112 18.0452C19.6748 17.2826 19.5856 16.5229 19.4441 15.7706C19.4256 15.7054 19.4197 15.6377 19.4266 15.5706C19.4471 15.5573 19.5127 15.5373 20.3752 15.3079L20.203 14.9399ZM18.5977 15.7999C18.6634 15.7999 18.8312 17.2852 18.8765 18.2266C18.8852 18.4279 18.8838 18.5559 18.8706 18.5559C18.8298 18.5559 17.9732 18.0959 17.3646 17.7479C16.7903 17.4174 16.2249 17.0742 15.6689 16.7186C15.6178 16.6812 15.6237 16.6799 16.0571 16.5439C16.794 16.3119 18.5437 15.7999 18.5992 15.7999H18.5977ZM15.0254 16.8706C15.0691 16.8706 15.1932 16.9332 15.485 17.0999C16.5795 17.7266 18.0622 18.4799 18.6955 18.7332C18.894 18.8132 18.9159 18.7812 18.462 19.0625C17.496 19.6625 16.2935 20.2519 14.8181 20.8518C14.6588 20.9184 14.4977 20.9816 14.3351 21.0412C14.3459 20.9505 14.3669 20.8612 14.3979 20.7745C14.7554 19.5679 14.9568 18.3479 14.9626 17.3692C14.9655 16.8866 14.9655 16.8839 15.0166 16.8719H15.0254V16.8706ZM14.2899 17.1279C14.3205 17.1572 14.2986 18.2399 14.2607 18.5359C14.1496 19.3692 13.9452 20.1899 13.6507 20.9852C13.6303 21.0078 12.905 20.3612 12.6642 20.1052C12.2829 19.7101 11.9551 19.2746 11.6879 18.8079C11.5683 18.5919 11.3756 18.1626 11.3931 18.1506C11.4749 18.0972 14.2694 17.1106 14.2899 17.1279ZM10.824 18.3759C10.8299 18.3759 10.8357 18.3772 10.8386 18.3812C10.871 18.4373 10.8983 18.4957 10.9203 18.5559C11.1454 19.0678 11.4406 19.5517 11.7988 19.9959C12.231 20.5186 12.7291 20.993 13.2829 21.4092C13.3165 21.4358 13.3267 21.4305 12.4628 21.7292C11.3569 22.1102 10.2406 22.4658 9.11517 22.7958C8.63798 22.9371 8.23375 23.0558 8.2177 23.0625C8.16954 23.0771 8.18413 23.0505 8.32423 22.8518C8.94735 21.9638 9.89006 20.2252 10.4183 18.9959C10.5088 18.7825 10.5964 18.5692 10.6124 18.5212C10.6343 18.4519 10.6577 18.4279 10.7292 18.3986C10.7585 18.3845 10.7909 18.3767 10.824 18.3759ZM9.76164 18.7759C9.77624 18.7879 9.50772 19.3065 9.24213 19.7772C8.67913 20.772 8.06905 21.7441 7.41362 22.6905L7.14803 23.0745C7.12176 23.1105 7.11009 23.0985 7.02837 22.9491C6.83758 22.5934 6.70014 22.2158 6.61976 21.8265C6.54472 21.3468 6.55457 20.8593 6.64895 20.3825C6.71753 20.0799 6.71461 20.0865 6.87076 20.0145C7.54496 19.6985 9.73975 18.7585 9.76164 18.7759ZM18.9086 19.1159V19.3212C18.8935 20.6576 18.7691 21.991 18.5364 23.3105C17.5742 23.0567 16.6453 22.7071 15.7667 22.2678C15.2501 22.0092 14.5044 21.5918 14.5263 21.5718C14.5307 21.5665 14.751 21.4612 15.0137 21.3358C16.0556 20.8425 17.0494 20.3092 17.9148 19.7812C18.2387 19.5839 18.7247 19.2625 18.8327 19.1759L18.9086 19.1159ZM5.75731 20.5465C5.7792 20.5465 5.77336 20.5838 5.7398 20.7612C5.71087 20.9335 5.6909 21.1071 5.67997 21.2812C5.63619 21.9905 5.76315 22.5131 6.14695 23.2278C6.25493 23.4278 6.33957 23.5931 6.3352 23.5958C6.29579 23.6265 2.78908 24.5638 1.68585 24.8398L1.05105 24.9998C1.01165 25.0104 1.00873 25.0024 1.02186 24.9198C1.14299 24.2091 1.73692 23.2771 2.56581 22.4931C3.11743 21.9732 3.55814 21.6638 4.30968 21.2732C4.78731 21.0229 5.26993 20.7806 5.75731 20.5465ZM14.0301 21.8998C14.033 21.8972 14.1629 21.9598 14.3176 22.0425C15.4515 22.6411 17.0319 23.2025 18.3788 23.4838L18.5014 23.5105L18.3336 23.5945C17.6302 23.9518 15.3114 24.8331 12.9429 25.6438C12.693 25.7291 12.4435 25.8153 12.1943 25.9024C12.1564 25.9194 12.1162 25.9315 12.0746 25.9384C12.0746 25.9331 12.1724 25.7624 12.2921 25.5571C12.9575 24.4211 13.62 23.0411 13.9615 22.0838C13.9951 21.9865 14.0257 21.9038 14.0301 21.8998ZM13.1866 22.1532C13.1614 22.23 13.1306 22.3053 13.0947 22.3785C12.5564 23.5401 11.9419 24.671 11.2545 25.7651C11.1378 25.9606 11.0152 26.1531 10.8868 26.3424C10.8795 26.3424 10.7204 26.2544 10.5307 26.1491C9.40703 25.5198 8.41179 24.7464 7.75802 23.9931L7.66462 23.8865L8.14911 23.7651C9.73724 23.377 11.2929 22.8855 12.8043 22.2945C13.0115 22.2145 13.1837 22.1492 13.1866 22.1532ZM18.4255 23.8238C18.427 23.8238 18.4285 23.8251 18.4285 23.8278C18.4285 23.9345 18.1614 24.9318 17.9381 25.6544C17.7513 26.2584 17.5937 26.7317 17.3033 27.5704C17.2293 27.7967 17.1475 28.0208 17.0582 28.2424C15.5602 28.0084 14.093 27.6326 12.6803 27.1211C12.3635 27.0078 12.0524 26.8819 11.7478 26.7437C11.739 26.7344 12.0586 26.5971 12.457 26.4371C14.8721 25.4758 17.3734 24.3798 18.2285 23.9091C18.2883 23.8704 18.3549 23.8416 18.4255 23.8238ZM6.33228 24.2011C6.34541 24.2131 5.66975 25.0958 4.72704 26.3024L3.87043 27.3997C3.72888 27.5851 3.5129 27.877 3.39032 28.0504L3.16704 28.365L2.93064 28.1824C2.5767 27.8986 2.24647 27.5911 1.94269 27.2624C1.48738 26.7437 1.17947 26.1984 1.05689 25.6971C1.00143 25.4651 0.998515 25.3478 1.05251 25.3331C1.99202 25.126 2.9328 24.9238 3.87481 24.7264L5.7719 24.3198C6.0769 24.2531 6.32936 24.1998 6.33228 24.2011ZM7.01085 24.4384L7.18159 24.6131C7.89468 25.3528 8.7357 25.9807 9.67117 26.4717C9.77316 26.518 9.8687 26.5753 9.95573 26.6424C7.85556 27.3381 5.74923 28.0181 3.63694 28.6824C3.60076 28.6627 3.56569 28.6413 3.53187 28.6184L3.4341 28.5544L3.58732 28.3517C4.08349 27.6944 4.70807 26.9717 6.07544 25.4691L7.01085 24.4384ZM11.2428 27.2024C11.2472 27.1984 11.4836 27.2744 11.7711 27.3731C12.4614 27.6091 13.0028 27.7624 13.7368 27.9304C14.6372 28.137 15.9403 28.3437 16.7109 28.4024C16.8276 28.4104 16.8889 28.4237 16.8714 28.4344C16.8349 28.4557 16.0542 28.693 15.4807 28.8584C13.2318 29.4834 10.9766 30.0892 8.71532 30.6757C8.66425 30.685 8.48621 30.6423 8.48621 30.6223C8.48621 30.6103 8.61317 30.4637 8.76786 30.2943C9.53948 29.4501 10.2586 28.567 10.9218 27.6491C11.0282 27.4998 11.1352 27.3509 11.2428 27.2024ZM10.306 27.2264C10.3133 27.2331 9.93676 27.7837 9.2757 28.7357C8.99551 29.137 8.67884 29.5957 8.57085 29.7517C8.4614 29.909 8.30234 30.149 8.2177 30.285L8.06155 30.5317L7.98275 30.513C7.79304 30.4663 6.45194 30.033 6.09879 29.905C5.67725 29.7528 5.26511 29.5796 4.86422 29.3864C4.44248 29.1784 3.90837 28.869 3.94923 28.857L5.56176 28.4544C7.88498 27.8757 9.17063 27.5437 10.0126 27.3024C10.1717 27.2584 10.3045 27.2237 10.306 27.2264ZM16.9064 28.641H16.9152C16.937 28.6917 16.0761 30.8677 15.7623 31.5583C15.6908 31.713 15.666 31.7516 15.6281 31.749C14.9298 31.6684 14.2326 31.5795 13.5369 31.4823C12.2147 31.2983 10.001 30.945 9.44206 30.829L9.31218 30.8023L10.1046 30.6397C11.8032 30.2903 12.619 30.1023 13.4464 29.8703C14.5129 29.5705 15.5554 29.2034 16.5664 28.7717C16.677 28.7225 16.7905 28.6789 16.9064 28.641Z" fill="#D81616"/>
</svg>
