<svg width="24" height="14" viewBox="0 0 24 14" fill="none" xmlns="http://www.w3.org/2000/svg">
<path fill-rule="evenodd" clip-rule="evenodd" d="M6.375 4.75C7.125 1.75 9.00012 0.25 12 0.25C16.5 0.25 17.0625 3.625 19.3125 4.1875C20.8126 4.56262 22.125 4.00013 23.25 2.5C22.5001 5.49988 20.6249 7 17.625 7C13.125 7 12.5625 3.625 10.3125 3.0625C8.81237 2.6875 7.5 3.25 6.375 4.75ZM0.75 11.5C1.5 8.50012 3.375 7 6.375 7C10.875 7 11.4375 10.375 13.6875 10.9375C15.1876 11.3126 16.5 10.7501 17.625 9.25C16.8751 12.2499 14.9999 13.75 12 13.75C7.5 13.75 6.9375 10.375 4.6875 9.8125C3.1875 9.43738 1.875 9.99987 0.75 11.5Z" fill="url(#paint0_linear_73_22)"/>
<defs>
<linearGradient id="paint0_linear_73_22" x1="6.8125" y1="0.25" x2="16.4375" y2="14.1875" gradientUnits="userSpaceOnUse">
<stop stop-color="#32B1C1"/>
<stop offset="1" stop-color="#14C6B7"/>
</linearGradient>
</defs>
</svg>
