<svg width="32" height="32" viewBox="0 0 32 32" fill="none" xmlns="http://www.w3.org/2000/svg">
<path d="M30.5006 0H1.49943C0.671317 0 0 0.671317 0 1.49943V30.5006C0 31.3287 0.671317 32 1.49943 32H30.5006C31.3287 32 32 31.3287 32 30.5006V1.49943C32 0.671317 31.3287 0 30.5006 0Z" fill="#3178C6"/>
<path fill-rule="evenodd" clip-rule="evenodd" d="M18.5657 24.8674V28.3737C19.2028 28.6882 19.8817 28.9095 20.5817 29.0309C21.3906 29.1802 22.2117 29.2537 23.0343 29.2503C23.836 29.2541 24.6358 29.1733 25.4205 29.0092C26.1251 28.8668 26.7973 28.5956 27.4034 28.2092C27.9661 27.8459 28.4298 27.3488 28.7531 26.7623C29.3321 25.5478 29.4085 24.1539 28.9657 22.8834C28.7788 22.4083 28.5004 21.9746 28.1463 21.6069C27.7661 21.2158 27.3343 20.8786 26.8628 20.6046C26.32 20.2867 25.756 20.0064 25.1748 19.7657C24.7177 19.576 24.3063 19.3916 23.9405 19.2126C23.6157 19.0571 23.3049 18.8739 23.0114 18.6652C22.7816 18.504 22.5819 18.3036 22.4217 18.0732C22.2832 17.8639 22.2112 17.6177 22.2148 17.3669C22.2118 17.136 22.2761 16.9092 22.4 16.7143C22.5345 16.5103 22.7139 16.3399 22.9245 16.216C23.182 16.0644 23.4621 15.9552 23.7543 15.8926C24.1129 15.8129 24.4795 15.7746 24.8468 15.7783C25.1558 15.7794 25.4643 15.8015 25.7703 15.8446C26.1007 15.8892 26.4275 15.9568 26.7485 16.0469C27.0751 16.1374 27.3944 16.252 27.704 16.3897C28.0044 16.5236 28.2917 16.6851 28.5623 16.872V13.6C27.999 13.3869 27.4148 13.2337 26.8194 13.1429C26.1004 13.0382 25.3745 12.989 24.648 12.9954C23.8538 12.9912 23.062 13.0813 22.2891 13.264C21.5905 13.4236 20.9263 13.7074 20.328 14.1017C19.7722 14.472 19.3133 14.9701 18.9897 15.5543C18.6468 16.2031 18.4771 16.9293 18.4971 17.6629C18.4718 18.6329 18.7913 19.5805 19.3988 20.3372C20.1442 21.1761 21.0841 21.8193 22.136 22.2103C22.616 22.4084 23.0636 22.6023 23.4788 22.792C23.8535 22.9587 24.2136 23.1563 24.5554 23.3829C24.8311 23.5622 25.0732 23.7885 25.2708 24.0514C25.4446 24.2899 25.5367 24.5781 25.5337 24.8732C25.5353 25.0943 25.4785 25.3119 25.3691 25.504C25.2476 25.7105 25.0768 25.8837 24.872 26.008C24.6157 26.1642 24.3353 26.277 24.0423 26.3417C23.6605 26.4271 23.27 26.4674 22.8788 26.4617C22.1112 26.4603 21.3497 26.325 20.6285 26.0617C19.8752 25.7899 19.1766 25.3854 18.5657 24.8674ZM12.6754 16.1383H17.2468V13.2503H4.50055V16.1383H9.05141V29H12.6754V16.1383Z" fill="white"/>
</svg>
