<svg width="222" height="253" viewBox="0 0 222 253" fill="none" xmlns="http://www.w3.org/2000/svg">
<path d="M0 2L44.1004 36.252L50.8577 38.3071L46.8216 42.051L37.6987 48.5827L60.5905 83.3012L60.6165 83.3389C63.1223 86.7858 66.9971 89 71.3353 89C78.866 89 85 82.321 85 74.1212C85 67.5339 81.0418 61.9281 75.5812 59.9777L66.8619 56.1181L54.3948 63.311L44.1004 49.9528L50.8577 46.8701L57.2594 43.4449L64.8696 40.0197L0 2Z" fill="#00B2FF"/>
<path d="M162.713 32.3484L108.896 47.2397L101.865 46.5686L104.173 51.5668L110.123 61.0788L75.7414 84.473L75.703 84.498C72.074 86.7319 67.6481 87.3048 63.6363 85.6538C56.6723 82.7879 53.5417 74.277 56.6623 66.6943C59.1692 60.6026 64.963 56.925 70.755 57.1995L80.287 56.9486L89.0785 68.3449L103.682 59.9095L98.6064 54.4872L93.9899 48.8835L88.2559 42.8198L162.713 32.3484Z" fill="#00B2FF"/>
<path d="M59.5 80L82 74.5L97.9998 163L87.9998 171.5L59.5 80Z" fill="#1A1A1A"/>
<path d="M83 69C83.9159 73.6042 78.3473 81.7652 71.5764 83.1122C64.8056 84.4591 58.5742 81.8186 57.6582 77.2144C56.7423 72.6102 61.2291 65.347 68 64C74.7709 62.653 82.0841 64.3958 83 69Z" fill="#232323"/>
<ellipse cx="78.7699" cy="71.8227" rx="9.7985" ry="4.56056" transform="rotate(-29.7596 78.7699 71.8227)" fill="#232323"/>
<ellipse cx="73.653" cy="67.3243" rx="9.7985" ry="3.29432" transform="rotate(-68.5237 73.653 67.3243)" fill="#232323"/>
<ellipse cx="68.653" cy="67.3243" rx="9.7985" ry="3.29432" transform="rotate(-103.391 68.653 67.3243)" fill="#232323"/>
<ellipse cx="63.1097" cy="71.3972" rx="9.7985" ry="3.29432" transform="rotate(-133.209 63.1097 71.3972)" fill="#232323"/>
<path d="M54.5 56.5C55.7398 55.9534 57.2594 57.0142 59.4423 61.9659C61.6253 66.9177 62.3899 71.3749 61.1501 71.9214C59.9103 72.468 57.1356 68.8969 54.9527 63.9452C52.7697 58.9934 53.2602 57.0465 54.5 56.5Z" fill="#232323"/>
<path d="M63 46.5C64.3837 46.1706 66.0269 48.2677 67.2802 53.5321C68.5335 58.7965 69.8837 63.6706 68.5 64C67.1163 64.3294 63.5226 59.9894 62.2693 54.725C61.016 49.4606 61.6163 46.8294 63 46.5Z" fill="#232323"/>
<path d="M74.4999 46.5C75.7319 46.2517 77.3255 48.3004 78.3949 53.6053C79.4643 58.9101 78.2319 62.7516 77 63C75.768 63.2483 74.5 60 73.9999 54.5C72.9305 49.1951 73.268 46.7483 74.4999 46.5Z" fill="#232323"/>
<path d="M85 55C86.5541 54.9269 87.7835 56.3821 88.0376 61.7877C88.2917 67.1933 87.2378 71.6346 85.6836 71.7076C84.1295 71.7807 82.6637 67.4578 82.4096 62.0522C82.1555 56.6466 83.4459 55.073 85 55Z" fill="#232323"/>
<ellipse cx="69.7107" cy="72.2976" rx="9" ry="4.74653" transform="rotate(-10.4315 69.7107 72.2976)" fill="#1F1F1F"/>
<path d="M162.604 198.955L172.216 185.533L109.099 150.48L100.244 154.773L162.604 198.955Z" fill="#1A1A1A"/>
<path d="M175.631 185.817C172.768 184.169 165.832 185.953 163.173 190.077C160.514 194.201 160.679 198.881 163.542 200.529C166.405 202.178 172.457 200.897 175.116 196.773C177.775 192.649 178.494 187.466 175.631 185.817Z" fill="#232323"/>
<g filter="url(#filter0_d_104_123)">
<rect x="209.049" y="118.849" width="72.9709" height="6" rx="3" transform="rotate(114.442 209.049 118.849)" fill="#EB294C"/>
</g>
<path d="M179.904 184.042L169.289 207.397C168.509 209.113 166.485 209.872 164.769 209.092C163.053 208.312 162.294 206.289 163.074 204.573L173.689 181.218C174.032 180.464 174.921 180.13 175.675 180.473L179.159 182.056C179.913 182.399 180.246 183.288 179.904 184.042Z" fill="#252525" stroke="#061015"/>
<path d="M178.743 188.347L171.869 185.223M167.197 196.414L173.728 199.382M173.414 200.072L166.884 197.104M166.57 197.794L173.101 200.762L172.787 201.452L166.257 198.484M165.943 199.173L172.474 202.141M172.16 202.831L165.63 199.863M165.316 200.553L171.847 203.521M174.773 197.083L167.898 193.959L167.167 195.568L174.041 198.693L174.773 197.083Z" stroke="#061015"/>
<path d="M174.301 200.969C174.892 200.187 174.448 199.1 171.493 197.286C168.537 195.471 165.662 194.634 165.071 195.416C164.479 196.199 166.396 198.304 169.351 200.118C172.306 201.933 173.709 201.752 174.301 200.969Z" fill="#272727"/>
<path d="M177.963 197.107C178.533 196.066 177.382 194.496 173.812 192.808C170.242 191.12 166.982 189.408 166.412 190.449C165.842 191.49 168.179 194.89 171.749 196.578C175.319 198.266 177.394 198.148 177.963 197.107Z" fill="#272727"/>
<path d="M179.271 193.708C179.894 192.748 179.056 191.046 175.768 189.142C172.479 187.239 169.363 187.503 168.74 188.463C168.117 189.423 169.907 191.091 173.539 192.566C176.827 194.47 178.648 194.668 179.271 193.708Z" fill="#272727"/>
<path d="M167.737 189.972C166.789 189.415 165.545 189.94 163.624 193.308C161.703 196.675 161.547 198.229 162.496 198.786C163.444 199.343 165.139 198.691 167.06 195.324C168.981 191.957 168.686 190.529 167.737 189.972Z" fill="#272727"/>
<rect x="87.3538" y="149.991" width="57.1468" height="71.0935" rx="10" transform="rotate(0.719416 87.3538 149.991)" fill="#1F1F1F"/>
<rect x="103" y="172" width="27" height="17" rx="2" fill="#474747"/>
<rect x="104" y="173" width="12" height="3" fill="#D9D9D9"/>
<rect x="104" y="177" width="12" height="3" fill="#D9D9D9"/>
<rect x="104" y="181" width="12" height="3" fill="#D9D9D9"/>
<rect x="104" y="185" width="5" height="3" fill="#D9D9D9"/>
<rect x="111" y="185" width="5" height="3" fill="#D9D9D9"/>
<rect x="118" y="185" width="5" height="3" fill="#FF3535"/>
<rect x="124" y="185" width="5" height="3" fill="#FF3535"/>
<rect x="118" y="181" width="11" height="3" fill="#FF3535"/>
<rect x="118" y="177" width="11" height="3" fill="#404040"/>
<rect x="118" y="173" width="11" height="3" fill="#404040"/>
<rect x="111" y="197" width="11" height="5" rx="2" fill="#D9D9D9"/>
<rect x="113" y="198" width="1" height="4" fill="#5E5E5E"/>
<rect x="115" y="198" width="1" height="4" fill="#5E5E5E"/>
<rect x="117" y="198" width="1" height="4" fill="#5E5E5E"/>
<rect x="117" y="198" width="1" height="4" fill="#5E5E5E"/>
<rect x="119" y="198" width="1" height="4" fill="#5E5E5E"/>
<ellipse cx="104.5" cy="222" rx="10.5" ry="5" fill="#1F1F1F"/>
<ellipse cx="125.5" cy="222" rx="10.5" ry="5" fill="#1F1F1F"/>
<path d="M119.964 164.481L138.117 158.963L167.702 223.389L161.33 217.403L153.378 219.206L146.062 224.931L135.763 222.779L123.414 226.036L126 199.5L124.5 178L119.964 164.481Z" fill="#1A1A1A"/>
<path d="M109.36 160.37L84.111 155.313L80.4583 190.382L69.3775 224.32L75.0703 223.018L79.6351 223.059L82.5598 225.589L92.934 223.18L105.32 226.566L109.36 160.37Z" fill="#1A1A1A"/>
<path d="M92.7167 85.6016L166.063 105.508L175.729 155.796L159.033 165.771L139.173 170.225L82.7157 154.902L70.7278 141.804L59.9185 124.364L92.7167 85.6016Z" fill="#1A1A1A"/>
<rect x="98.0652" y="48.7147" width="86" height="97" rx="33" transform="rotate(15.1846 98.0652 48.7147)" fill="#1A1A1A"/>
<path d="M96.2737 89.6756L161.417 107.356L155.882 135.385L136.009 164.703L88.7198 151.868L86.8785 116.657L96.2737 89.6756Z" fill="#232323"/>
<path d="M95.7496 91.6057L160.41 109.155L160.16 129.811L86.1684 109.729L95.7496 91.6057Z" fill="#1A1A1A"/>
<path d="M124.11 116.918L137.84 168.826L86.0208 154.762L124.11 116.918Z" fill="#1A1A1A" stroke="#3A3A3A" stroke-width="2"/>
<path d="M97.5217 106.075C95.2051 110.157 101.586 114.083 98.2251 112.176C94.8645 110.269 94.0182 105.413 96.3348 101.331C98.6513 97.2486 103.254 95.4851 106.614 97.392C109.975 99.299 99.8382 101.993 97.5217 106.075Z" fill="#D9D9D9"/>
<path d="M133.962 114.979C131.759 118.861 137.958 122.969 134.779 121.165C131.601 119.362 130.811 114.752 133.014 110.869C135.217 106.986 139.58 105.301 142.758 107.104C145.937 108.908 136.165 111.096 133.962 114.979Z" fill="#D9D9D9"/>
<rect x="82.9292" y="150.297" width="8" height="6" rx="2" transform="rotate(15.1846 82.9292 150.297)" fill="#CFCFCF"/>
<rect x="135.044" y="164.441" width="8" height="6" rx="2" transform="rotate(15.1846 135.044 164.441)" fill="#CFCFCF"/>
<path d="M101.596 138.784L105.408 136.192L99.2531 158.872L96.3578 158.086L101.596 138.784Z" fill="#3A3A3A"/>
<path d="M111.364 129.519L115.307 126.445L106.14 160.223L103.245 159.437L111.364 129.519Z" fill="#3A3A3A"/>
<path d="M122.662 116.525L125.558 117.311L113.86 162.318L110.965 161.532L122.662 116.525Z" fill="#3A3A3A"/>
<rect x="120.773" y="113.94" width="8" height="6" rx="2" transform="rotate(15.1846 120.773 113.94)" fill="#CFCFCF"/>
<path d="M126.757 130.07L128.343 135.682L120.616 164.152L117.721 163.366L126.757 130.07Z" fill="#3A3A3A"/>
<path d="M130.37 143.485L132.479 147.166L127.372 165.985L124.476 165.199L130.37 143.485Z" fill="#3A3A3A"/>
<path d="M95.3983 77.0128C98.4265 70.6322 105.589 67.3357 112.405 69.1856L156.108 81.0468C163.512 83.0564 168.189 90.3495 166.926 97.9169L165.979 103.596C165.412 106.992 162.614 109.57 159.184 109.858V109.858L136.67 108.783C133.158 108.615 129.674 108.066 126.28 107.145L126.123 107.103C122.789 106.198 119.561 104.939 116.494 103.348L95.9704 92.7018V92.7018C92.4322 90.5649 91.0878 86.0953 92.86 82.3611L95.3983 77.0128Z" fill="#1A1A1A"/>
<path d="M91.0186 84.1046L99.48 90.9193L59.994 124.086L59.0289 123.824L91.0186 84.1046Z" fill="#1A1A1A"/>
<path d="M169.394 106.412L158.648 108.014L175.948 156.593L176.913 156.855L169.394 106.412Z" fill="#1A1A1A"/>
<path d="M102.154 85.9702C102.647 83.4915 102.939 82.8134 103.52 80.7473C104.101 78.6812 105.107 76.4532 106.025 74.3609C106.943 72.2686 106.637 72.9661 107.555 70.8738C108.59 68.5161 112.883 64.8947 112.169 64.5813C111.455 64.268 106.086 68.5658 104.697 69.6197C103.799 70.3014 100.641 73.3299 99.4825 74.5978C98.324 75.8658 97.1474 77.4583 96.0201 79.2846C94.8928 81.1108 93.8368 83.135 92.9124 85.2415L97.6581 85.6606L102.154 85.9702Z" fill="#4D4D4D"/>
<path d="M87.6857 100.857C81.8346 105.478 76.8139 108.872 76.4716 108.439C76.1293 108.006 80.595 103.908 86.4461 99.2871C92.2971 94.666 96.7243 92.0478 97.0666 92.4812C97.4089 92.9146 93.5367 96.2355 87.6857 100.857Z" fill="#4D4D4D"/>
<path d="M107.324 98.6399C100.728 95.1627 96.8089 92.9698 97.0665 92.4812C97.324 91.9927 101.661 93.3935 108.257 96.8708C114.852 100.348 119.99 103.563 119.732 104.051C119.475 104.54 113.919 102.117 107.324 98.6399Z" fill="#4D4D4D"/>
<ellipse cx="133.147" cy="83.6224" rx="8" ry="24.5" transform="rotate(15.1846 133.147 83.6224)" fill="#1F1F1F"/>
<path d="M82.7059 127.088C83.7732 134.747 89.5662 141.807 87.2169 142.135C84.8675 142.462 75.2651 135.932 74.1978 128.274C73.1306 120.616 78.2904 107.52 80.6398 107.192C82.9891 106.865 81.6387 119.43 82.7059 127.088Z" fill="#1A1A1A"/>
<path d="M154.072 147.415C149.279 153.483 140.711 156.646 142.573 158.116C144.434 159.586 156.02 158.807 160.813 152.739C165.605 146.672 167.775 132.764 165.913 131.293C164.052 129.823 158.864 141.347 154.072 147.415Z" fill="#1A1A1A"/>
<ellipse cx="71" cy="68.5" rx="23" ry="21.5" fill="#00B2FF" fill-opacity="0.22"/>
<defs>
<filter id="filter0_d_104_123" x="167.365" y="111.338" width="45.7122" height="78.9705" filterUnits="userSpaceOnUse" color-interpolation-filters="sRGB">
<feFlood flood-opacity="0" result="BackgroundImageFix"/>
<feColorMatrix in="SourceAlpha" type="matrix" values="0 0 0 0 0 0 0 0 0 0 0 0 0 0 0 0 0 0 127 0" result="hardAlpha"/>
<feOffset dx="-1"/>
<feGaussianBlur stdDeviation="3"/>
<feComposite in2="hardAlpha" operator="out"/>
<feColorMatrix type="matrix" values="0 0 0 0 1 0 0 0 0 0.0291666 0 0 0 0 0.0291666 0 0 0 0.75 0"/>
<feBlend mode="normal" in2="BackgroundImageFix" result="effect1_dropShadow_104_123"/>
<feBlend mode="normal" in="SourceGraphic" in2="effect1_dropShadow_104_123" result="shape"/>
</filter>
</defs>
</svg>
