<svg width="27" height="30" viewBox="0 0 27 30" fill="none" xmlns="http://www.w3.org/2000/svg">
<path d="M13.5 0L27 7.41555V22.2514L13.5 29.667L0 22.2514V7.41555L13.5 0Z" fill="white"/>
<path d="M24.5904 21.737L13.9483 27.5891V23.038L20.5812 19.4911L24.5904 21.737ZM25.3188 21.0988V8.86994L21.4268 11.0514V18.9171L25.3188 21.0988ZM2.36883 21.7369L13.0109 27.5843V23.0331L6.37812 19.4911L2.36883 21.737V21.7369ZM1.64035 21.0988V8.86994L5.53247 11.0514V18.9171L1.64035 21.0988ZM2.09387 8.07845L13.0109 2.08262V6.48555L6.01646 10.2204L5.96035 10.2501L2.09387 8.07845ZM24.8604 8.07845L13.9483 2.08252V6.48545L20.9378 10.2252L20.9938 10.2549L24.8604 8.07825V8.07845Z" fill="#8ED6FB"/>
<path d="M13.0109 21.9994L6.46977 18.5018V11.581L13.0109 15.2468V21.9994ZM13.9484 21.9994L20.4895 18.5068V11.581L13.9484 15.2468V21.9994ZM6.90789 10.7796L13.4796 7.27222L20.0461 10.7796L13.4796 14.4602L6.90789 10.7796Z" fill="#1C78C0"/>
</svg>
