<svg width="199" height="196" viewBox="0 0 199 196" fill="none" xmlns="http://www.w3.org/2000/svg">
<rect x="56" y="174" width="86" height="22" rx="11" fill="black" fill-opacity="0.62"/>
<rect width="18.2157" height="8.35717" rx="4.17858" transform="matrix(0.999829 -0.0184984 0.0188244 0.999823 69.1984 180.3)" fill="#206949"/>
<rect width="18.2157" height="8.35717" rx="4.17858" transform="matrix(0.999829 -0.0184984 0.0188244 0.999823 110.977 180.458)" fill="#206949"/>
<path d="M56.6722 104.175C54.736 90.9017 65.0276 79 78.4418 79H120.963C134.237 79 144.487 90.6655 142.781 103.829L139.597 128.38C139.358 130.23 139.354 132.102 139.586 133.952L142.891 160.258C144.542 173.393 134.302 185 121.063 185H78.3282C64.9533 185 54.6729 173.164 56.5447 159.921L60.167 134.294C60.4602 132.219 60.4555 130.113 60.1531 128.039L56.6722 104.175Z" fill="#332E22"/>
<path d="M91 119.257L88.8519 91.2471C69.949 91.2471 71.6674 81.2132 67.3713 82.0495C61.2214 83.2467 59.6382 95.8454 59.6382 98.3541L64.364 128.454V132.217L60.4975 161.063C59.495 163.571 57.2324 169.507 56.2013 173.186C54.9125 177.785 60.0678 179.457 64.364 181.966C68.6601 184.474 71.2378 182.384 71.6674 184.892C72.0111 186.899 79.2572 185.728 82.8373 184.892L91 141.832V119.257Z" fill="#4A463C"/>
<path d="M86 119.257L83.9133 91.2471C65.5504 91.2471 67.2198 81.2132 63.0464 82.0495C57.0722 83.2467 55.5343 95.8454 55.5343 98.3541L60.125 128.454V132.217L56.369 161.063C55.3952 163.571 53.1972 169.507 52.1956 173.186C50.9436 177.785 55.9516 179.457 60.125 181.966C64.2984 184.474 66.8024 182.384 67.2198 184.892C67.5536 186.899 74.5927 185.728 78.0706 184.892L86 141.832V119.257Z" fill="#70654A"/>
<path d="M113 119.318L115.087 91.3343C133.452 90.894 131.959 80.6716 135.954 82.1451C142.634 84.6095 143.466 95.9284 143.466 98.4347L139.295 127.763L138.875 132.266L142.631 161.086C143.605 163.592 145.803 169.523 146.804 173.198C148.056 177.793 143.048 179.463 138.875 181.969C134.702 184.475 132.198 182.387 131.78 184.893C131.446 186.898 124.407 185.728 120.929 184.893L113 141.873V119.318Z" fill="#70654A"/>
<path d="M74.2114 92.8824H81C77.6057 88.4132 69.2896 80.0614 63.1799 82.4077C57.0701 84.754 55.5426 94.279 55.5426 98.7482L60.2098 128.915V132.686C58.937 142.183 56.3913 159.92 55.9669 162.434C55.655 164.282 53.4212 168.719 52.1483 173.747C51.3007 177.095 54.2698 179.473 56.3912 180.451C57.3812 181.009 59.8704 182.294 61.907 182.964C64.4527 183.802 60.2098 169.557 61.907 168.3C63.6041 167.043 66.9984 130.591 66.9984 128.915C66.9984 127.239 62.7555 111.737 62.7555 109.642C62.7555 107.547 64.0284 98.3292 62.7555 95.3963C61.7373 93.05 65.1599 90.7875 66.9984 89.9495L74.2114 92.8824Z" fill="#4A463C"/>
<path d="M38.7095 47.4466C38.7095 25.6923 54.4769 7.14428 75.9474 3.64179L88.7637 1.55108C95.0617 0.523681 101.484 0.513367 107.785 1.52053L121.769 3.75567C143.255 7.18983 159.062 25.7246 159.062 47.483V47.483C159.062 70.765 141.034 90.0708 117.806 91.6619L98.2719 93L79.9979 91.7224C56.7434 90.0966 38.7095 70.7579 38.7095 47.4466V47.4466Z" fill="#41B883"/>
<path d="M38.0954 29.1493C40.5516 29.1493 43.0079 36.0891 44.236 34.701V36.7831L41.7798 45.8055L49.7624 50.6637C47.9203 51.5891 43.7448 53.7174 41.7798 54.8279C39.3236 56.2159 38.7095 57.6044 34.4112 56.9104C30.1128 56.2164 17.8319 49.9701 14.1476 49.9701C10.4634 49.9701 -0.589449 24.291 0.0245973 23.5969C0.638643 22.9029 22.7443 24.9851 25.8145 27.0672C28.8847 29.1493 35.0252 29.1493 38.0954 29.1493Z" fill="#206949"/>
<path d="M160.905 29.2313C158.448 29.2313 155.992 36.1049 154.764 34.7301V36.7923L157.22 45.7287L149.238 50.5405C151.08 51.4571 155.255 53.5652 157.22 54.665C159.676 56.0398 160.291 57.4151 164.589 56.7277C168.887 56.0403 181.168 49.8535 184.852 49.8535C188.537 49.8535 199.589 24.4193 198.975 23.7319C198.361 23.0445 176.256 25.1068 173.186 27.169C170.115 29.2313 163.975 29.2313 160.905 29.2313Z" fill="#41B883"/>
<path d="M98.8859 44.418L106.331 63.1568H91.441L98.8859 44.418Z" fill="#206949"/>
<path d="M13.5336 32.6195L40.5516 37.4777L36.8673 52.0524L20.2881 45.1121L13.5336 32.6195Z" fill="#0C2B1D"/>
<path d="M182.968 33.8414L155.95 38.6997L159.634 53.2743L176.214 46.334L182.968 33.8414Z" fill="#206949"/>
<path d="M60.8151 41.7515C61.6938 46.7485 68.1787 54.9481 87.0888 47.77" stroke="#302F2F"/>
<path d="M137.656 42.1837C136.709 47.1649 130.113 55.2508 111.303 47.7447" stroke="#302F2F"/>
<rect x="93.9736" y="77.7313" width="9.82473" height="1.38806" fill="#363636"/>
<path d="M65.7275 13.1864C66.2187 10.4103 76.985 5.08943 82.3067 2.776L68.7977 4.85809L62.6573 6.94018L57.7449 9.7163L50.9904 15.2685L47.3061 20.1267L44.2359 24.985L41.1657 31.9253L39.3235 56.2163L41.1657 63.1566L42.3938 66.6267L44.2359 70.0969C44.85 72.873 52.0293 81.041 54.6747 83.2835C57.1309 85.3656 58.359 86.7536 64.4994 88.8357C63.6807 88.373 66.4644 88.5581 64.4994 87.4476C62.0432 86.0596 55.2887 74.2611 52.8326 72.179C50.3764 70.0969 49.1483 54.8282 47.3061 52.0521C45.464 49.276 55.2887 36.7835 54.0606 31.9253C52.8325 27.067 65.1135 16.6566 65.7275 13.1864Z" fill="#206949"/>
<path d="M91.4431 62.5241C85.169 79.2351 86.4722 84.3136 87.908 84.764M106.18 62.3977C113.165 78.4397 111.572 84.0507 109.325 84.764" stroke="#302F2F"/>
<rect width="15.1624" height="8.36412" rx="4.18206" transform="matrix(0.952193 0.305496 -0.310366 0.950617 98.3976 116.607)" fill="#41B883"/>
<rect x="92" y="125" width="14" height="6" fill="#171510"/>
<path d="M96.7553 138.857C96.7553 135.88 96.1806 132.378 95.8932 131H101.928C101.066 131 100.204 135.549 100.635 137.203C101.066 138.857 98.9105 145.474 99.3416 148.368C99.7726 151.263 95.0311 156.226 95.8932 158.707C96.7553 161.188 93.738 166.15 93.738 169.045C93.738 171.94 95.8932 172.353 95.8932 177.316C95.8932 182.278 96.7553 182.692 97.6174 183.519C98.3071 184.18 97.33 185.449 96.7553 186C96.1806 185.035 94.7725 182.444 93.738 179.797C92.4448 176.489 92.0138 172.767 91.1517 169.045C90.2896 165.323 93.3069 157.466 95.0311 151.677C96.7553 145.887 96.7553 142.579 96.7553 138.857Z" fill="#171510"/>
<rect width="15.173" height="8.35821" rx="4.1791" transform="matrix(0.992877 -0.119147 0.121217 0.992626 85.2336 120.048)" fill="#41B883"/>
<path d="M100.017 117.862L119.829 96.9679L130.376 108.411L111.398 124.964L100.017 117.862Z" fill="#70654A"/>
<path d="M86.5282 122.875L67.4765 107.663L75.9901 93.625L98.3308 119.114L86.5282 122.875Z" fill="#70654A"/>
</svg>
