<?xml version="1.0" standalone="no"?>
<!DOCTYPE svg PUBLIC "-//W3C//DTD SVG 20010904//EN"
 "http://www.w3.org/TR/2001/REC-SVG-20010904/DTD/svg10.dtd">
<svg version="1.0" xmlns="http://www.w3.org/2000/svg"
 width="700.000000pt" height="700.000000pt" viewBox="0 0 700.000000 700.000000"
 preserveAspectRatio="xMidYMid meet">
<metadata>
Created by potrace 1.14, written by Peter Selinger 2001-2017
</metadata>
<g transform="translate(0.000000,700.000000) scale(0.100000,-0.100000)"
fill="#000000" stroke="none">
<path d="M3185 6989 c-918 -85 -1787 -540 -2369 -1241 -141 -170 -377 -491
-366 -498 6 -4 -20 -65 -64 -151 -426 -825 -504 -1798 -216 -2684 345 -1058
1187 -1900 2245 -2245 519 -169 1089 -214 1630 -129 1455 228 2617 1353 2894
2801 54 281 74 651 52 934 -126 1572 -1280 2862 -2831 3163 -210 41 -330 52
-605 56 -148 2 -315 -1 -370 -6z m777 -198 c369 -55 672 -148 993 -306 355
-175 605 -352 883 -628 377 -374 651 -814 817 -1312 98 -296 165 -683 165
-952 l0 -93 -3320 0 -3320 0 0 85 0 85 1047 2 1048 3 3 88 3 87 -1042 0 -1042
0 7 71 c4 39 10 77 13 85 4 12 115 14 682 16 l676 3 3 88 3 87 -666 0 c-366 0
-665 1 -665 3 1 16 76 285 97 348 l28 84 1083 3 1082 2 0 175 0 175 -1005 0
-1005 0 21 43 c11 23 44 81 72 130 l51 87 1063 0 1063 0 0 175 0 175 -935 0
-936 0 11 20 c20 38 331 349 432 432 489 406 1079 663 1698 742 191 24 187 24
480 21 213 -3 306 -8 412 -24z m2853 -3533 c-3 -35 -10 -101 -16 -148 -128
-1106 -810 -2077 -1813 -2582 -460 -232 -957 -348 -1486 -348 -430 0 -833 76
-1225 231 l-60 24 208 3 207 2 -2 393 -3 392 -777 3 -776 2 -73 83 -73 82 677
3 678 2 -3 88 -3 87 -745 3 -745 2 -50 77 c-27 42 -51 80 -53 84 -2 5 278 9
623 9 l626 0 -3 88 -3 87 -677 3 -678 2 -40 80 c-22 44 -40 82 -40 85 0 3 245
5 545 5 l546 0 -3 88 -3 87 -585 5 -584 5 -28 75 c-15 41 -28 78 -28 83 0 4
236 7 525 7 l525 0 0 265 0 265 -589 0 c-553 0 -590 1 -595 18 -5 17 -19 140
-31 260 l-6 62 3321 0 3321 0 -6 -62z"/>
<path d="M4925 5936 c-139 -32 -242 -91 -351 -201 -135 -136 -197 -289 -197
-485 0 -127 18 -203 75 -320 33 -68 59 -102 127 -171 71 -71 102 -94 181 -133
52 -25 127 -53 165 -61 363 -76 717 135 823 490 35 114 35 276 0 390 -66 221
-236 397 -453 471 -98 33 -273 42 -370 20z"/>
</g>
</svg>
