<svg width="56" height="38" viewBox="0 0 56 38" fill="none" xmlns="http://www.w3.org/2000/svg">
<rect x="38.0732" y="13.947" width="14.3415" height="4.25" rx="2.125" fill="#B5B5B5"/>
<rect x="35" y="16.7805" width="5.63415" height="1.41667" rx="0.708333" fill="#B5B5B5"/>
<rect x="50.3659" y="16.7805" width="5.63415" height="1.41667" rx="0.708333" fill="#B5B5B5"/>
<rect x="39.6098" y="12.0583" width="11.2683" height="2.83333" rx="1.41667" fill="#B5B5B5"/>
<rect x="42.6829" y="4.50269" width="5.12195" height="3.77778" rx="1.88889" fill="#B5B5B5"/>
<rect x="39" y="1.11035" width="1.53659" height="5.36684" rx="0.768293" transform="rotate(-36.4556 39 1.11035)" fill="#B5B5B5"/>
<rect x="42.9115" y="1.11768" width="1.53659" height="3.77778" rx="0.768293" transform="rotate(-35.4101 42.9115 1.11768)" fill="#B5B5B5"/>
<path d="M43.0128 7.7717L44.9103 7.71624L41.9995 13.084L40.3284 12.2633L43.0128 7.7717Z" fill="#B5B5B5"/>
<path d="M45.8134 7.60797L47.5373 7.60797L50.239 12.2299L48.5678 13.0507L45.8134 7.60797Z" fill="#B5B5B5"/>
<rect x="6" y="28.1973" width="28" height="9" rx="4" fill="white"/>
<rect y="34.1973" width="11" height="3" rx="1.5" fill="white"/>
<rect x="30" y="34.1973" width="11" height="3" rx="1.5" fill="white"/>
<rect x="9" y="24.1973" width="22" height="6" rx="3" fill="white"/>
<rect x="15" y="8.19727" width="10" height="8" rx="4" fill="white"/>
<rect x="21.1263" y="0.0234375" width="3" height="7.11936" rx="1.5" transform="rotate(35.4211 21.1263 0.0234375)" fill="white"/>
<rect x="28.1117" width="3" height="8.98399" rx="1.5" transform="rotate(32.8354 28.1117 0)" fill="white"/>
<path d="M15.644 15.1201L19.3486 15.0027L13.6658 26.3697L10.403 24.6317L15.644 15.1201Z" fill="white"/>
<path d="M21.1119 14.7733L24.4776 14.7733L29.7522 24.5609L26.4896 26.2991L21.1119 14.7733Z" fill="white"/>
</svg>
