<svg width="230" height="76" viewBox="0 0 230 76" fill="none" xmlns="http://www.w3.org/2000/svg">
<path d="M7.52426 41.5C7.38048 44.0489 6.30979 45.7958 10.1058 57.3509C14.8508 71.7948 20.4585 67.1218 32.1053 72.2197C43.7521 77.3175 57.5557 65.4225 58.8498 59.8998C59.8851 55.4817 58.1751 53.1205 60.4757 42.5" stroke="url(#paint0_linear_6_121)" stroke-width="5"/>
<path d="M0.184464 34.0777C0.184464 15.2571 15.4416 0 34.2621 0C53.0827 0 68.3398 15.2571 68.3398 34.0777V45.0311L46.7864 40.3632H24.3592L0.184464 45.0311V34.0777Z" fill="white"/>
<rect x="94.5534" y="43.2661" width="35.4999" height="6.42202" rx="3.21101" fill="url(#paint1_linear_6_121)"/>
<rect width="29.7844" height="6.09727" rx="3.04864" transform="matrix(0.720404 0.693555 -0.591409 0.806372 108.747 24)" fill="url(#paint2_linear_6_121)"/>
<rect width="29.7844" height="6.09727" rx="3.04864" transform="matrix(0.720403 -0.693555 0.591409 0.806372 105.141 63.9232)" fill="url(#paint3_linear_6_121)"/>
<rect x="162.709" y="14" width="60.8155" height="52" rx="9" fill="white"/>
<rect x="156.417" y="63" width="73.3981" height="6" rx="3" fill="url(#paint4_linear_6_121)"/>
<rect x="165.209" y="16.5" width="55.8155" height="47" rx="6.5" stroke="url(#paint5_linear_6_121)" stroke-width="5"/>
<defs>
<linearGradient id="paint0_linear_6_121" x1="6.6005" y1="66.2461" x2="17.947" y2="86.2589" gradientUnits="userSpaceOnUse">
<stop stop-color="#FFC83C"/>
<stop offset="1" stop-color="#EB294C"/>
</linearGradient>
<linearGradient id="paint1_linear_6_121" x1="95.4837" y1="46.4852" x2="128.353" y2="46.4852" gradientUnits="userSpaceOnUse">
<stop stop-color="#FFC83C"/>
<stop offset="1" stop-color="#EB294C"/>
</linearGradient>
<linearGradient id="paint2_linear_6_121" x1="0.78049" y1="3.05641" x2="28.3578" y2="3.0564" gradientUnits="userSpaceOnUse">
<stop stop-color="#FFC83C"/>
<stop offset="1" stop-color="#EB294C"/>
</linearGradient>
<linearGradient id="paint3_linear_6_121" x1="0.78049" y1="3.05641" x2="28.3578" y2="3.0564" gradientUnits="userSpaceOnUse">
<stop stop-color="#FFC83C"/>
<stop offset="1" stop-color="#EB294C"/>
</linearGradient>
<linearGradient id="paint4_linear_6_121" x1="156.417" y1="66" x2="229.816" y2="66" gradientUnits="userSpaceOnUse">
<stop stop-color="#FFC83C"/>
<stop offset="1" stop-color="#EB294C"/>
</linearGradient>
<linearGradient id="paint5_linear_6_121" x1="162.709" y1="40" x2="223.524" y2="40" gradientUnits="userSpaceOnUse">
<stop stop-color="#FFC83C"/>
<stop offset="1" stop-color="#EB294C"/>
</linearGradient>
</defs>
</svg>
