<svg width="318" height="103" viewBox="0 0 318 103" fill="none" xmlns="http://www.w3.org/2000/svg">
<g filter="url(#filter0_d_35_14)">
<rect width="106.981" height="3.77581" rx="1.8879" transform="matrix(-0.713339 0.700819 -0.582519 -0.812817 312.9 8.64087)" fill="#3CFF5B"/>
</g>
<path d="M237.182 82.8747C237.665 83.548 237.577 84.5646 236.986 85.1451L224.941 96.9791C223.774 98.1252 222.056 97.9767 221.103 96.6475C220.151 95.3182 220.324 93.3115 221.491 92.1654L233.536 80.3314C234.127 79.7508 234.997 79.826 235.48 80.4994L237.182 82.8747Z" fill="white" stroke="#040A0E"/>
<path d="M236.655 85.7268L232.99 80.6117M225.033 88.8647L228.515 93.724M228.006 94.2239L224.524 89.3646M224.015 89.8644L227.498 94.7237L226.989 95.2235L223.506 90.3642M222.998 90.864L226.48 95.7234M225.971 96.2232L222.489 91.3639M221.98 91.8637L225.463 96.723M230.211 92.058L226.545 86.9429L225.358 88.1092L229.024 93.2242L230.211 92.058Z" stroke="#040A0E"/>
<g filter="url(#filter1_d_35_14)">
<rect width="106.981" height="3.7758" rx="1.8879" transform="matrix(0.713339 0.700819 -0.582519 0.812817 221.663 6.08331)" fill="#3CC4FF"/>
</g>
<path d="M297.251 80.4994C297.733 79.826 298.603 79.7508 299.194 80.3314L311.24 92.1653C312.406 93.3115 312.58 95.3182 311.627 96.6475C310.675 97.9767 308.957 98.1252 307.79 96.9791L295.745 85.1451C295.154 84.5645 295.066 83.548 295.548 82.8747L297.251 80.4994Z" fill="white" stroke="#040A0E"/>
<path d="M299.741 80.6118L296.075 85.7269M304.399 93.4684L307.881 88.6091M308.39 89.1089L304.907 93.9682M305.416 94.468L308.899 89.6087L309.408 90.1085L305.925 94.9679M306.434 95.4677L309.916 90.6084M310.425 91.1082L306.943 95.9675M307.451 96.4673L310.934 91.608M306.185 86.943L302.52 92.058L303.707 93.2243L307.372 88.1092L306.185 86.943Z" stroke="#040A0E"/>
<rect x="237.181" y="15.5306" width="58.5157" height="59.6989" rx="9" fill="white"/>
<rect x="231.128" y="71.7853" width="70.6223" height="6.88834" rx="3.44417" fill="#EB294C"/>
<rect x="239.681" y="18.0306" width="53.5157" height="54.6989" rx="6.5" stroke="#EB294C" stroke-width="5"/>
<ellipse cx="11.5596" cy="13.5278" rx="11.5596" ry="13.5278" transform="matrix(0.998948 -0.0458477 0.03324 0.999447 253.838 32.6058)" fill="#FFC83B"/>
<ellipse cx="3.26789" cy="5.19174" rx="3.26789" ry="5.19174" transform="matrix(0.932975 -0.35994 0.270904 0.962606 256.588 37.1589)" fill="white"/>
<ellipse cx="3.24362" cy="5.22148" rx="3.24362" ry="5.22148" transform="matrix(0.961254 0.275664 -0.204761 0.978812 267.961 34.9688)" fill="white"/>
<path d="M271.876 34.0372C272.798 34.3706 274.001 39.9582 272.743 40.768C271.795 41.3494 269.407 35.8363 268.668 34.184C267.929 32.5317 266.978 31.7903 267.926 31.2089C268.874 30.6275 271.44 32.1759 271.876 34.0372Z" fill="white"/>
<path d="M262.278 35.2289C261.55 36.6538 258.596 41.8696 257.988 41.4433C257.379 41.0171 257.862 37.6876 259.07 35.3756C260.413 32.805 263.469 30.9587 264.077 31.385C264.102 32.1361 263.006 33.8039 262.278 35.2289Z" fill="white"/>
<path d="M167.203 58.4202L140.777 68.5764L143.688 59.0328L143.71 58.9615L143.71 58.887L143.71 52.3096L143.71 45.7322L143.71 45.6576L143.688 45.5863L140.777 36.0427L167.203 46.1989L168.937 46.8652L167.772 45.4186L159.549 35.2083L166.323 26.7972L176.527 39.4684L186.868 52.3096L166.323 77.8219L159.549 69.4108L167.772 59.2006L168.937 57.7539L167.203 58.4202Z" fill="#EB294C" stroke="#040A0E"/>
<ellipse cx="54.582" cy="48.6055" rx="38.5213" ry="45.1021" fill="#EB294C"/>
<rect x="41.7416" y="33.5715" width="25.6808" height="30.0681" rx="12.8404" fill="#040A0E"/>
<path d="M48.1618 15.5306H61.0022L57.1501 34.3232H52.0139L48.1618 15.5306Z" fill="#040A0E"/>
<path d="M30.1852 30.6715L39.2648 20.0408L47.8904 36.5184L44.2585 40.7706L30.1852 30.6715Z" fill="#040A0E"/>
<path d="M69.7836 20.0408L78.8632 30.6715L64.7898 40.7706L61.158 36.5184L69.7836 20.0408Z" fill="#040A0E"/>
<path d="M60.7943 81.7045L47.9542 81.5981L51.9198 62.838L57.0558 62.8805L60.7943 81.7045Z" fill="#040A0E"/>
<path d="M78.8619 66.7128L69.7184 77.268L61.1926 60.7195L64.85 56.4974L78.8619 66.7128Z" fill="#040A0E"/>
<path d="M39.2003 77.0153L30.1852 66.3097L44.3192 56.3274L47.9252 60.6096L39.2003 77.0153Z" fill="#040A0E"/>
<path d="M82.1889 41.0885V56.1225L66.1384 51.6123V45.5987L82.1889 41.0885Z" fill="#040A0E"/>
<path d="M26.3331 56.1226L26.3331 41.0885L42.3836 45.5987V51.6123L26.3331 56.1226Z" fill="#040A0E"/>
<path d="M29.9865 17.4324L40.5386 8.35367L53.2613 4.72511L53.8039 6.08765L41.0812 9.71622L30.5292 18.795L29.9865 17.4324Z" fill="#040A0E"/>
<path d="M34.8354 14.7851L41.0812 9.71624L47.9907 7.60269L48.5334 8.96524L41.7416 12.5238L35.3781 16.1476L34.8354 14.7851Z" fill="#040A0E"/>
<path d="M56.4087 4.72509L69.1314 8.35366L79.6835 17.4324L79.1408 18.795L68.5888 9.71621L55.8661 6.08764L56.4087 4.72509Z" fill="#040A0E"/>
<path d="M61.2576 7.3725L68.5888 9.71625L74.4129 14.5549L73.8703 15.9174L67.4225 12.5238L60.715 8.73504L61.2576 7.3725Z" fill="#040A0E"/>
<path d="M81.4695 19.5659L88.2744 32.6649L90.2529 47.8206L89.0463 48.3348L87.0678 33.1791L80.2629 20.0801L81.4695 19.5659Z" fill="#040A0E"/>
<path d="M83.2993 25.4522L87.0678 33.179L88.2639 41.4223L87.0573 41.9365L84.757 33.5715L82.0927 25.9664L83.2993 25.4522Z" fill="#040A0E"/>
<path d="M90.8874 50.7378L87.8489 65.6511L80.1451 78.0489L78.9788 77.4201L86.6826 65.0222L89.7211 50.1089L90.8874 50.7378Z" fill="#040A0E"/>
<path d="M88.6494 56.4276L86.6826 65.0223L82.5777 71.8644L81.4114 71.2355L84.805 63.3972L87.4831 55.7988L88.6494 56.4276Z" fill="#040A0E"/>
<path d="M29.1367 78.0485L21.4325 65.6511L18.3933 50.738L19.5596 50.1091L22.5987 65.0222L30.303 77.4196L29.1367 78.0485Z" fill="#040A0E"/>
<path d="M26.8985 72.3589L22.5987 65.0222L20.8262 56.9225L21.9924 56.2935L24.874 64.408L28.0648 71.7299L26.8985 72.3589Z" fill="#040A0E"/>
<path d="M53.2613 92.7435L40.5386 89.1149L29.9865 80.0361L30.5292 78.6736L41.0812 87.7524L53.8039 91.3809L53.2613 92.7435Z" fill="#040A0E"/>
<path d="M48.4124 90.0961L41.0812 87.7523L35.2571 82.9137L35.7997 81.5511L42.4781 85.5617L48.955 88.7335L48.4124 90.0961Z" fill="#040A0E"/>
<path d="M78.3994 80.0363L67.8474 89.115L55.1247 92.7436L54.582 91.381L67.3047 87.7525L77.8568 78.6737L78.3994 80.0363Z" fill="#040A0E"/>
<path d="M73.5505 82.6837L67.3047 87.7525L60.3952 89.8661L59.8526 88.5035L66.7694 85.0915L73.0079 81.3211L73.5505 82.6837Z" fill="#040A0E"/>
<path d="M18.474 47.8206L20.4524 32.6648L27.2573 19.5658L28.4639 20.08L21.6591 33.179L19.6806 48.3348L18.474 47.8206Z" fill="#040A0E"/>
<path d="M20.3038 41.9341L21.6591 33.179L25.2684 25.964L26.475 26.4782L23.765 33.5715L21.5105 42.4483L20.3038 41.9341Z" fill="#040A0E"/>
<path d="M92.5646 52.8928L95.6473 49.2509L98.2266 52.8499L94.628 55.772L92.5646 52.8928Z" fill="white"/>
<path d="M95.9052 49.6108L98.277 48.5072L99.3087 49.9468L97.9687 52.49L95.9052 49.6108Z" fill="white"/>
<rect width="18.7324" height="6.1989" transform="matrix(0.713339 -0.700819 0.582519 0.812817 70.0672 76.2219)" fill="white"/>
<path d="M64.7069 86.3945L72.8729 78.3718L73.6781 81.2605L73.2251 84.1588L67.2862 89.9935L64.7069 86.3945Z" fill="white"/>
<rect width="5.20345" height="0.885558" transform="matrix(0.713339 -0.700819 0.582519 0.812817 66.6447 82.0377)" fill="white"/>
<rect width="7.28483" height="0.885558" transform="matrix(0.713339 -0.700819 0.582519 0.812817 74.0303 87.0475)" fill="white"/>
<rect width="7.56791" height="0.980583" transform="matrix(-0.0798267 1.0713 -0.918637 0.104911 80.1919 74.7437)" fill="white"/>
<path d="M73.3366 81.1443L78.4078 81.6819L76.4073 82.4208L72.9287 81.98L73.3366 81.1443Z" fill="white"/>
<path d="M66.2545 88.5539L73.2251 84.1588L78.0753 95.3395L72.5076 100.81L66.2545 88.5539Z" fill="white"/>
<path d="M58.9317 87.162L64.8706 81.3274L68.4816 86.3659L61.253 90.4011L58.9317 87.162Z" fill="white"/>
<rect width="2.08138" height="7.97002" transform="matrix(0.713339 -0.700819 0.582519 0.812817 72.1686 66.7979)" fill="white"/>
<path d="M61.1968 72.6707L72.3951 65.3487L80.4983 53.708L84.1093 58.7466L73.1689 66.4284L64.8078 77.7093L61.1968 72.6707Z" fill="white"/>
<rect width="8.32552" height="1.77112" transform="matrix(0.713339 -0.700819 0.582519 0.812817 84.0084 67.4317)" fill="white"/>
<rect width="13.529" height="1.77112" transform="matrix(0.713339 -0.700819 0.582519 0.812817 83.4297 63.0939)" fill="white"/>
<path d="M17.0612 52.8954L13.9785 49.2535L11.3992 52.8524L14.9977 55.7746L17.0612 52.8954Z" fill="white"/>
<path d="M13.7205 49.6134L11.3488 48.5098L10.3171 49.9494L11.6571 52.4925L13.7205 49.6134Z" fill="white"/>
<rect width="18.7324" height="6.1989" transform="matrix(-0.713339 -0.700819 -0.582519 0.812817 39.5586 76.2244)" fill="white"/>
<path d="M44.9188 86.397L36.7528 78.3743L35.9476 81.2631L36.4006 84.1613L42.3396 89.996L44.9188 86.397Z" fill="white"/>
<rect width="5.20345" height="0.885558" transform="matrix(-0.713339 -0.700819 -0.582519 0.812817 42.9811 82.04)" fill="white"/>
<rect width="7.28483" height="0.885558" transform="matrix(-0.713339 -0.700819 -0.582519 0.812817 35.5954 87.05)" fill="white"/>
<rect width="7.56791" height="0.980583" transform="matrix(0.0798266 1.07129 0.918636 0.104911 29.4338 74.7463)" fill="white"/>
<path d="M36.2892 81.1468L31.2179 81.6844L33.2185 82.4233L36.6971 81.9825L36.2892 81.1468Z" fill="white"/>
<path d="M43.3713 88.5565L36.4007 84.1614L31.5505 95.3421L37.1182 100.812L43.3713 88.5565Z" fill="white"/>
<path d="M50.6941 87.1646L44.7552 81.3299L41.1442 86.3685L48.3728 90.4037L50.6941 87.1646Z" fill="white"/>
<rect width="2.08138" height="7.97002" transform="matrix(-0.713339 -0.700819 -0.582519 0.812817 37.4572 66.8005)" fill="white"/>
<path d="M48.4289 72.6732L37.2306 65.3512L29.1274 53.7105L25.5164 58.7491L36.4568 66.4309L44.8179 77.7118L48.4289 72.6732Z" fill="white"/>
<rect width="8.32552" height="1.77112" transform="matrix(-0.713339 -0.700819 -0.582519 0.812817 25.6174 67.4341)" fill="white"/>
<rect width="13.529" height="1.77112" transform="matrix(-0.713339 -0.700819 -0.582519 0.812817 26.196 63.0966)" fill="white"/>
<path d="M26.3331 49.8244C29.5432 57.3414 34.0374 50.576 35.3214 46.0658H73.2007V29.5284C73.2007 24.2665 70.6326 22.0114 64.2124 18.2529C59.0762 15.2461 49.2319 18.5034 44.9517 20.508C41.9556 21.2597 35.0646 24.1161 31.4693 29.5284C26.9751 36.2937 28.2592 34.0386 26.3331 49.8244Z" fill="white"/>
<path d="M39.8156 38.5488C39.8156 38.5488 36.5418 44.585 35.3214 46.0658M35.3214 46.0658C34.0374 50.576 29.5432 57.3414 26.3331 49.8244C28.2592 34.0386 26.9751 36.2937 31.4693 29.5284C35.0646 24.1161 41.9556 21.2597 44.9517 20.508C49.2319 18.5034 59.0762 15.2461 64.2124 18.2529C70.6326 22.0114 73.2007 24.2665 73.2007 29.5284C73.2007 33.7379 73.2007 44.813 73.2007 46.0658H35.3214ZM35.3214 46.0658C34.0374 49.0726 35.9634 43.8107 35.3214 46.0658Z" stroke="black"/>
<rect x="67.2804" y="30.78" width="6.70426" height="12.5306" rx="3.35213" fill="#FFC83C" stroke="#FFC83C"/>
<path d="M53.7092 48.8796L39.0315 56.5175V45.8141H68.8485V56.5175L54.1708 48.8796L53.94 48.7595L53.7092 48.8796Z" fill="#FFC83C" stroke="#040A0E"/>
<defs>
<filter id="filter0_d_35_14" x="228.095" y="0.403259" width="89.0976" height="88.3803" filterUnits="userSpaceOnUse" color-interpolation-filters="sRGB">
<feFlood flood-opacity="0" result="BackgroundImageFix"/>
<feColorMatrix in="SourceAlpha" type="matrix" values="0 0 0 0 0 0 0 0 0 0 0 0 0 0 0 0 0 0 127 0" result="hardAlpha"/>
<feOffset dx="-1"/>
<feGaussianBlur stdDeviation="3"/>
<feComposite in2="hardAlpha" operator="out"/>
<feColorMatrix type="matrix" values="0 0 0 0 1 0 0 0 0 1 0 0 0 0 1 0 0 0 0.75 0"/>
<feBlend mode="normal" in2="BackgroundImageFix" result="effect1_dropShadow_35_14"/>
<feBlend mode="normal" in="SourceGraphic" in2="effect1_dropShadow_35_14" result="shape"/>
</filter>
<filter id="filter1_d_35_14" x="213.171" y="0.914734" width="89.0976" height="88.3803" filterUnits="userSpaceOnUse" color-interpolation-filters="sRGB">
<feFlood flood-opacity="0" result="BackgroundImageFix"/>
<feColorMatrix in="SourceAlpha" type="matrix" values="0 0 0 0 0 0 0 0 0 0 0 0 0 0 0 0 0 0 127 0" result="hardAlpha"/>
<feOffset dx="-1"/>
<feGaussianBlur stdDeviation="3"/>
<feComposite in2="hardAlpha" operator="out"/>
<feColorMatrix type="matrix" values="0 0 0 0 1 0 0 0 0 1 0 0 0 0 1 0 0 0 0.75 0"/>
<feBlend mode="normal" in2="BackgroundImageFix" result="effect1_dropShadow_35_14"/>
<feBlend mode="normal" in="SourceGraphic" in2="effect1_dropShadow_35_14" result="shape"/>
</filter>
</defs>
</svg>
