<svg width="20" height="31" viewBox="0 0 20 31" fill="none" xmlns="http://www.w3.org/2000/svg">
<path d="M0.0714111 24.3438L0.232482 24.0907L7.83126 7.83993L7.84737 7.66796L4.49803 0.575475C4.43672 0.445778 4.34078 0.341099 4.22379 0.276249C4.1068 0.211399 3.97468 0.189661 3.84613 0.21411C3.71758 0.238559 3.59911 0.307957 3.50747 0.412486C3.41582 0.517015 3.35566 0.651384 3.33548 0.796581L0.0714111 24.3438Z" fill="#FFC24A"/>
<path d="M0.166149 24.1517L0.287426 23.8847L7.80757 7.80267L4.46676 0.682409C4.41166 0.558581 4.32246 0.458212 4.21252 0.396338C4.10258 0.334463 3.97781 0.314415 3.85691 0.339196C3.73601 0.363977 3.62549 0.432253 3.5419 0.533796C3.45832 0.635339 3.40617 0.764682 3.39326 0.902447L0.166149 24.1517Z" fill="#FFA712"/>
<path d="M10.289 13.0322L12.7828 10.1482L10.2881 4.78501C10.2332 4.66959 10.1515 4.57311 10.0518 4.50585C9.95214 4.4386 9.83814 4.40308 9.72196 4.40308C9.60578 4.40308 9.49177 4.4386 9.39208 4.50585C9.29239 4.57311 9.21075 4.66959 9.15584 4.78501L7.82273 7.64978V7.89438L10.289 13.0322Z" fill="#F4BD62"/>
<path d="M10.2445 12.9149L12.6691 10.1164L10.2445 4.90383C10.2048 4.791 10.137 4.69352 10.0493 4.62315C9.96158 4.55277 9.85768 4.5125 9.75012 4.50719C9.64256 4.50189 9.53593 4.53177 9.44309 4.59324C9.35026 4.65471 9.27518 4.74514 9.2269 4.85363L7.88716 7.7686L7.84737 7.91707L10.2445 12.9149Z" fill="#FFA50E"/>
<path d="M0.0733032 24.3452L0.146259 24.2619L0.410606 24.1412L10.1317 13.2226L10.2549 12.8444L7.83031 7.63403L0.0733032 24.3452Z" fill="#F6820C"/>
<path d="M10.5998 29.8514L19.4 24.3194L16.8854 6.87555C16.8673 6.75258 16.8196 6.63759 16.7474 6.5432C16.6752 6.44881 16.5813 6.37867 16.4761 6.34048C16.3709 6.30229 16.2583 6.29754 16.1508 6.32673C16.0434 6.35592 15.9451 6.41794 15.8668 6.50597L0.0714111 24.344L8.81948 29.8503C9.09145 30.0214 9.39772 30.1112 9.70917 30.1112C10.0206 30.1112 10.3269 30.0214 10.5988 29.8503" fill="#FDE068"/>
<path d="M19.3194 24.2732L16.8257 6.96074C16.8213 6.84312 16.786 6.72962 16.7244 6.6346C16.6627 6.53958 16.5775 6.46731 16.4794 6.42694C16.3813 6.38657 16.2748 6.37992 16.1733 6.40782C16.0719 6.43572 15.98 6.49692 15.9095 6.58368L0.166149 24.3106L8.81758 29.7582C9.08739 29.9279 9.3912 30.0169 9.70016 30.0169C10.0091 30.0169 10.3129 29.9279 10.5827 29.7582L19.3194 24.2732Z" fill="#FCCA3F"/>
<path d="M10.5998 29.6848C10.3278 29.8558 10.0216 29.9457 9.71011 29.9457C9.39867 29.9457 9.0924 29.8558 8.82043 29.6848L0.143419 24.2607L0.0714111 24.344L8.81948 29.8503C9.09145 30.0214 9.39772 30.1112 9.70917 30.1112C10.0206 30.1112 10.3269 30.0214 10.5988 29.8503L19.4 24.3195L19.3782 24.1699L10.5998 29.6848Z" fill="#EEAB37"/>
</svg>
