<svg width="24" height="29" viewBox="0 0 24 29" fill="none" xmlns="http://www.w3.org/2000/svg">
<path d="M12 0C13.5759 0 15.1363 0.375054 16.5922 1.10375C18.0481 1.83244 19.371 2.9005 20.4853 4.24695C21.5996 5.5934 22.4835 7.19187 23.0866 8.95109C23.6896 10.7103 24 12.5958 24 14.5C24 18.3456 22.7357 22.0338 20.4853 24.753C18.2348 27.4723 15.1826 29 12 29C10.4241 29 8.86371 28.6249 7.4078 27.8963C5.95189 27.1676 4.62902 26.0995 3.51472 24.753C1.26428 22.0338 0 18.3456 0 14.5C0 10.6544 1.26428 6.96623 3.51472 4.24695C5.76516 1.52767 8.8174 0 12 0ZM17.7 18.0525C19.98 15.2975 19.896 10.7155 17.508 7.8445C15.12 4.9735 11.34 4.8575 9.06 7.6125C4.944 12.586 6.264 21.431 6.264 21.431C6.264 21.431 13.596 23.0115 17.7 18.0525ZM13.38 8.497L14.556 11.4115L16.968 12.8325L14.556 14.2535L13.38 17.168L12.204 14.2535L9.792 12.8325L12.204 11.4115L13.38 8.497Z" fill="url(#paint0_linear_8_77)"/>
<defs>
<linearGradient id="paint0_linear_8_77" x1="12" y1="0" x2="12" y2="29" gradientUnits="userSpaceOnUse">
<stop stop-color="#FFC83C"/>
<stop offset="1" stop-color="#EB294C"/>
</linearGradient>
</defs>
</svg>
