<svg width="27" height="25" viewBox="0 0 27 25" fill="none" xmlns="http://www.w3.org/2000/svg">
<path d="M27 2.94118C26.0062 3.45588 24.935 3.79412 23.825 3.95588C24.9608 3.17647 25.8384 1.94118 26.2514 0.455882C25.1802 1.19118 23.9928 1.70588 22.7409 2C21.7213 0.735294 20.2887 0 18.6625 0C15.6295 0 13.1515 2.82353 13.1515 6.30882C13.1515 6.80882 13.2032 7.29412 13.2935 7.75C8.69885 7.48529 4.60755 4.97059 1.88432 1.16176C1.40679 2.08824 1.13576 3.17647 1.13576 4.32353C1.13576 6.51471 2.10373 8.45588 3.60086 9.55882C2.68451 9.55882 1.8327 9.26471 1.08413 8.82353V8.86765C1.08413 11.9265 2.99426 14.4853 5.5239 15.0588C4.71174 15.3121 3.85911 15.3473 3.03298 15.1618C3.38353 16.4154 4.07005 17.5124 4.99605 18.2984C5.92206 19.0845 7.04097 19.5201 8.19551 19.5441C6.23843 21.3095 3.81252 22.2637 1.31644 22.25C0.877629 22.25 0.438815 22.2206 0 22.1618C2.4522 23.9559 5.36903 25 8.49235 25C18.6625 25 24.251 15.3824 24.251 7.04412C24.251 6.76471 24.251 6.5 24.2381 6.22059C25.3222 5.33823 26.2514 4.22059 27 2.94118Z" fill="#237BFF"/>
</svg>
