<svg width="25" height="25" viewBox="0 0 25 25" fill="none" xmlns="http://www.w3.org/2000/svg">
<path d="M25 2.94118C24.0798 3.45588 23.088 3.79412 22.0602 3.95588C23.1119 3.17647 23.9245 1.94118 24.3069 0.455882C23.315 1.19118 22.2156 1.70588 21.0564 2C20.1123 0.735294 18.7859 0 17.2801 0C14.4718 0 12.1773 2.82353 12.1773 6.30882C12.1773 6.80882 12.2251 7.29412 12.3088 7.75C8.05449 7.48529 4.26625 4.97059 1.74474 1.16176C1.30258 2.08824 1.05163 3.17647 1.05163 4.32353C1.05163 6.51471 1.9479 8.45588 3.33413 9.55882C2.48566 9.55882 1.69694 9.26471 1.00382 8.82353V8.86765C1.00382 11.9265 2.77247 14.4853 5.11472 15.0588C4.36272 15.3121 3.57325 15.3473 2.80832 15.1618C3.1329 16.4154 3.76857 17.5124 4.62598 18.2984C5.48339 19.0845 6.51942 19.5201 7.58843 19.5441C5.77633 21.3095 3.53011 22.2637 1.21893 22.25C0.81262 22.25 0.40631 22.2206 0 22.1618C2.27055 23.9559 4.97132 25 7.86329 25C17.2801 25 22.4546 15.3824 22.4546 7.04412C22.4546 6.76471 22.4546 6.5 22.4426 6.22059C23.4465 5.33823 24.3069 4.22059 25 2.94118Z" fill="url(#paint0_linear_10_211)"/>
<defs>
<linearGradient id="paint0_linear_10_211" x1="12.5" y1="0" x2="12.5" y2="25" gradientUnits="userSpaceOnUse">
<stop stop-color="#FFC83C"/>
<stop offset="1" stop-color="#EB294C"/>
</linearGradient>
</defs>
</svg>
