<svg width="21" height="23" viewBox="0 0 21 23" fill="none" xmlns="http://www.w3.org/2000/svg">
<path d="M20.016 0H0.984C0.440552 0 0 0.482509 0 1.07771V21.9223C0 22.5175 0.440552 23 0.984 23H20.016C20.5594 23 21 22.5175 21 21.9223V1.07771C21 0.482509 20.5594 0 20.016 0Z" fill="#3178C6"/>
<path fill-rule="evenodd" clip-rule="evenodd" d="M12.1838 17.8735V20.3936C12.6018 20.6196 13.0474 20.7787 13.5068 20.866C14.0376 20.9733 14.5764 21.0261 15.1163 21.0237C15.6424 21.0264 16.1673 20.9683 16.6823 20.8504C17.1446 20.748 17.5858 20.5531 17.9835 20.2754C18.3528 20.0143 18.6571 19.657 18.8693 19.2354C19.2492 18.3625 19.2993 17.3607 19.0088 16.4475C18.8861 16.106 18.7034 15.7943 18.471 15.53C18.2215 15.2489 17.9382 15.0065 17.6288 14.8096C17.2725 14.5811 16.9024 14.3796 16.521 14.2066C16.221 14.0703 15.951 13.9378 15.711 13.8091C15.4978 13.6973 15.2938 13.5656 15.1013 13.4156C14.9504 13.2998 14.8194 13.1557 14.7143 12.9901C14.6234 12.8397 14.5761 12.6628 14.5785 12.4825C14.5765 12.3165 14.6187 12.1535 14.7 12.0134C14.7883 11.8668 14.906 11.7443 15.0443 11.6553C15.2132 11.5463 15.3971 11.4678 15.5888 11.4228C15.8241 11.3656 16.0647 11.338 16.3058 11.3407C16.5085 11.3414 16.711 11.3574 16.9118 11.3883C17.1286 11.4204 17.3431 11.469 17.5538 11.5337C17.768 11.5988 17.9776 11.6811 18.1808 11.7801C18.3779 11.8764 18.5664 11.9924 18.744 12.1268V9.77503C18.3743 9.62185 17.991 9.51172 17.6003 9.44646C17.1284 9.37126 16.652 9.33584 16.1753 9.34049C15.6541 9.33742 15.1344 9.40222 14.6273 9.53353C14.1688 9.64826 13.7329 9.8522 13.3403 10.1356C12.9755 10.4018 12.6743 10.7598 12.462 11.1797C12.237 11.646 12.1256 12.168 12.1388 12.6952C12.1221 13.3924 12.3318 14.0735 12.7305 14.6174C13.2196 15.2203 13.8364 15.6826 14.5268 15.9637C14.8418 16.1061 15.1355 16.2454 15.408 16.3818C15.6539 16.5016 15.8902 16.6436 16.1145 16.8065C16.2954 16.9354 16.4543 17.098 16.584 17.287C16.698 17.4584 16.7585 17.6655 16.7565 17.8776C16.7575 18.0365 16.7203 18.1929 16.6485 18.331C16.5687 18.4794 16.4567 18.6039 16.3223 18.6933C16.1541 18.8056 15.9701 18.8866 15.7778 18.9331C15.5272 18.9945 15.271 19.0234 15.0143 19.0194C14.5105 19.0184 14.0107 18.9211 13.5375 18.7319C13.0431 18.5365 12.5846 18.2458 12.1838 17.8735ZM8.31826 11.5994H11.3183V9.52367H2.95351V11.5994H5.94001V20.8438H8.31826V11.5994Z" fill="white"/>
</svg>
