<svg width="26" height="31" viewBox="0 0 26 31" fill="none" xmlns="http://www.w3.org/2000/svg">
<path d="M25.9189 4.45766L14.127 29.7192C14.0717 29.838 13.9909 29.9371 13.8931 30.0062C13.7953 30.0753 13.6838 30.112 13.5703 30.1125C13.4567 30.1131 13.345 30.0775 13.2467 30.0093C13.1484 29.9411 13.067 29.8428 13.0108 29.7246L0.985657 4.45981C0.925198 4.33304 0.896174 4.18825 0.901991 4.04241C0.907807 3.89658 0.948222 3.75576 1.01849 3.63647C1.08876 3.51719 1.18598 3.42439 1.29872 3.36897C1.41147 3.31355 1.53507 3.2978 1.65502 3.32358L13.4595 5.85188C13.5345 5.86807 13.6114 5.86807 13.6865 5.85188L25.2442 3.32788C25.3637 3.30172 25.4869 3.3168 25.5995 3.37135C25.7121 3.42591 25.8095 3.51769 25.8802 3.636C25.9509 3.75431 25.9921 3.89427 25.999 4.03956C26.0058 4.18485 25.9781 4.33055 25.9189 4.45766Z" fill="url(#paint0_linear_8_142)"/>
<path d="M19.0818 0.0083591L10.3567 2.05616C10.2869 2.0725 10.2236 2.11623 10.1768 2.18047C10.13 2.2447 10.1024 2.32578 10.0983 2.41089L9.56175 13.2723C9.55879 13.3319 9.56747 13.3915 9.5871 13.4463C9.60674 13.5012 9.63678 13.5498 9.67485 13.5883C9.71292 13.6268 9.75796 13.6542 9.80639 13.6682C9.85483 13.6822 9.90532 13.6824 9.95386 13.6689L12.3828 12.9971C12.4351 12.9826 12.4896 12.9841 12.5413 13.0015C12.593 13.0188 12.6403 13.0515 12.6787 13.0965C12.7171 13.1414 12.7455 13.1972 12.7612 13.2588C12.7769 13.3203 12.7794 13.3856 12.7686 13.4486L12.0472 17.6828C12.0361 17.748 12.0393 17.8156 12.0565 17.8788C12.0737 17.9421 12.1044 17.9989 12.1455 18.0436C12.1865 18.0884 12.2366 18.1196 12.2908 18.1342C12.345 18.1488 12.4014 18.1462 12.4545 18.1268L13.9548 17.5807C14.008 17.5612 14.0645 17.5586 14.1188 17.5733C14.1731 17.5879 14.2232 17.6192 14.2643 17.6641C14.3055 17.709 14.3361 17.766 14.3532 17.8294C14.3704 17.8928 14.3735 17.9605 14.3621 18.0257L13.2145 24.6765C13.1427 25.0925 13.6048 25.3193 13.7978 24.9635L13.9261 24.7249L21.0369 7.72442C21.0636 7.66036 21.0748 7.58863 21.0693 7.51735C21.0637 7.44606 21.0416 7.37806 21.0055 7.32103C20.9694 7.26399 20.9206 7.2202 20.8648 7.19461C20.809 7.16901 20.7483 7.16263 20.6897 7.17619L18.189 7.75344C18.1352 7.76578 18.0796 7.76137 18.0276 7.74063C17.9756 7.71989 17.9289 7.68351 17.892 7.63498C17.8551 7.58644 17.8292 7.52738 17.8168 7.46342C17.8044 7.39947 17.8058 7.33277 17.8211 7.26971L19.4523 0.491016C19.4677 0.427747 19.4692 0.360803 19.4567 0.296629C19.4442 0.232456 19.4182 0.173216 19.381 0.124615C19.3439 0.0760138 19.2969 0.0396891 19.2447 0.0191392C19.1924 -0.00141076 19.1366 -0.00549344 19.0827 0.00728422L19.0818 0.0083591Z" fill="url(#paint1_linear_8_142)"/>
<defs>
<linearGradient id="paint0_linear_8_142" x1="0.691819" y1="2.42046" x2="18.9591" y2="23.1281" gradientUnits="userSpaceOnUse">
<stop stop-color="#41D1FF"/>
<stop offset="1" stop-color="#BD34FE"/>
</linearGradient>
<linearGradient id="paint1_linear_8_142" x1="12.7811" y1="0.563878" x2="16.5571" y2="22.1849" gradientUnits="userSpaceOnUse">
<stop stop-color="#FFEA83"/>
<stop offset="0.083" stop-color="#FFDD35"/>
<stop offset="1" stop-color="#FFA800"/>
</linearGradient>
</defs>
</svg>
