<svg width="40" height="75" viewBox="0 0 40 75" fill="none" xmlns="http://www.w3.org/2000/svg">
<path d="M0.5 20C0.5 9.23045 9.23045 0.5 20 0.5C30.7696 0.5 39.5 9.23045 39.5 20C39.5 30.7696 30.7696 39.5 20 39.5C9.23045 39.5 0.5 30.7696 0.5 20Z" fill="white" stroke="#040A0E"/>
<path d="M2.5 11.5H14.5V13.5H2L2.5 11.5Z" fill="#040A0E"/>
<path d="M1 18H13V19H1V18Z" fill="#040A0E"/>
<path d="M1 16H9V17H1V16Z" fill="#040A0E"/>
<path d="M1.28 23H8V26H1.28L1.28 23Z" fill="#040A0E"/>
<path d="M2 27H9V28H2L2 27Z" fill="#040A0E"/>
<path d="M3 29H11V30H3L3 29Z" fill="#040A0E"/>
<path d="M4 31H13V32H4L4 31Z" fill="#040A0E"/>
<path d="M6 33H15V37.5H11L6 33Z" fill="#040A0E"/>
<path d="M1 20H39V21H0L1 20Z" fill="#040A0E"/>
<path d="M4 8H16V10H2.5L4 8Z" fill="#040A0E"/>
<rect x="25" y="6" width="8" height="8" rx="4" fill="#040A0E"/>
<path d="M16.6001 59.1691L9.91857 38.8143L15.9568 40.9709L16.0384 41H16.125H20.5H24.875H24.9616L25.0432 40.9709L31.0814 38.8143L24.3999 59.1691L25.218 59.6888L31.875 53.4122L37.2712 58.5L28.907 66.3862L20.5 74.3128L3.72885 58.5L9.12501 53.4122L15.782 59.6888L16.6001 59.1691Z" fill="#EB294C" stroke="#040A0E"/>
</svg>
