<svg width="40" height="40" viewBox="0 0 40 40" fill="none" xmlns="http://www.w3.org/2000/svg">
<path d="M20 28L28 20L25.2 17.2L22 20.4V12H18V20.4L14.8 17.2L12 20L20 28ZM20 40C17.2333 40 14.6333 39.4747 12.2 38.424C9.76667 37.3747 7.65 35.95 5.85 34.15C4.05 32.35 2.62533 30.2333 1.576 27.8C0.525334 25.3667 0 22.7667 0 20C0 17.2333 0.525334 14.6333 1.576 12.2C2.62533 9.76667 4.05 7.65 5.85 5.85C7.65 4.05 9.76667 2.62467 12.2 1.574C14.6333 0.524667 17.2333 0 20 0C22.7667 0 25.3667 0.524667 27.8 1.574C30.2333 2.62467 32.35 4.05 34.15 5.85C35.95 7.65 37.3747 9.76667 38.424 12.2C39.4747 14.6333 40 17.2333 40 20C40 22.7667 39.4747 25.3667 38.424 27.8C37.3747 30.2333 35.95 32.35 34.15 34.15C32.35 35.95 30.2333 37.3747 27.8 38.424C25.3667 39.4747 22.7667 40 20 40Z" fill="url(#paint0_linear_6_69)"/>
<defs>
<linearGradient id="paint0_linear_6_69" x1="20" y1="0" x2="20" y2="40" gradientUnits="userSpaceOnUse">
<stop stop-color="#FFC83C"/>
<stop offset="1" stop-color="#EB294C"/>
</linearGradient>
</defs>
</svg>
