<svg width="90" height="97" viewBox="0 0 90 97" fill="none" xmlns="http://www.w3.org/2000/svg">
<g filter="url(#filter0_d_27_40)">
<rect x="24.3887" y="22.5" width="41.2844" height="51.1052" rx="20.6422" fill="white" stroke="black"/>
<path d="M20.5853 55.9955C20.5853 53.9621 23.5584 49.6412 23.8887 49.9589C24.2191 49.6094 30.4956 63.6206 33.7991 64.5737C37.1026 65.5269 43.3792 58.2195 45.3612 58.2195C47.8771 58.2195 52.2985 63.9383 56.593 64.5737C60.8875 65.2092 64.8517 49.9589 66.1731 49.9589C67.2302 49.9589 69.3664 53.9833 69.8069 55.9955C70.3574 61.7143 69.8069 73.6604 67.1641 75.6938C64.5213 77.7271 51.6378 79.5063 45.3612 79.5063C40.1858 79.6122 28.6457 78.998 23.8887 75.6938C17.9425 71.5635 20.5853 58.5372 20.5853 55.9955Z" fill="white" stroke="black"/>
<rect x="23.8887" y="40.4274" width="42.2844" height="1.27086" fill="black"/>
<path d="M27.1922 41.6983H62.8696V51.2297L45.0309 44.8754L27.1922 51.2297V41.6983Z" fill="black"/>
<rect x="44.3702" y="69.6572" width="1.32139" height="8.896" rx="0.660693" fill="black"/>
<rect x="47.013" y="69.6572" width="1.32139" height="8.896" rx="0.660693" fill="black"/>
<rect x="41.7274" y="69.6572" width="1.32139" height="8.896" rx="0.660693" fill="black"/>
<path d="M27.2761 49.3234L29.1005 50.0685L26.8618 55.36L25.8708 53.4537L27.2761 49.3234Z" fill="black"/>
<path d="M60.8875 50.1024L62.7119 49.3573L64.5213 53.136L63.5303 55.0423L60.8875 50.1024Z" fill="black"/>
<path d="M38.0936 62.6674L45.3612 56.3132L53.2895 62.9852L52.9592 63.3029L45.3612 58.8549L38.424 63.3029L38.0936 62.6674Z" fill="black"/>
</g>
<defs>
<filter id="filter0_d_27_40" x="0.500004" y="0" width="89" height="96.0173" filterUnits="userSpaceOnUse" color-interpolation-filters="sRGB">
<feFlood flood-opacity="0" result="BackgroundImageFix"/>
<feColorMatrix in="SourceAlpha" type="matrix" values="0 0 0 0 0 0 0 0 0 0 0 0 0 0 0 0 0 0 127 0" result="hardAlpha"/>
<feOffset dy="-3"/>
<feGaussianBlur stdDeviation="9.5"/>
<feComposite in2="hardAlpha" operator="out"/>
<feColorMatrix type="matrix" values="0 0 0 0 0 0 0 0 0 0 0 0 0 0 0 0 0 0 0.25 0"/>
<feBlend mode="normal" in2="BackgroundImageFix" result="effect1_dropShadow_27_40"/>
<feBlend mode="normal" in="SourceGraphic" in2="effect1_dropShadow_27_40" result="shape"/>
</filter>
</defs>
</svg>
